<svg xmlns="http://www.w3.org/2000/svg" width="954" height="348" viewBox="0 0 954 348">
  <g id="Group_21" data-name="Group 21" transform="translate(-483 -366)">
    <rect id="Rectangle_55" data-name="Rectangle 55" width="954" height="348" transform="translate(483 366)" fill="#fafafa"/>
    <g id="Group_20" data-name="Group 20" transform="translate(15.5 3.934)">
      <path id="Path_69" data-name="Path 69" d="M4457.5,1553.489v8.246l254.581,48.589v-56.835Z" transform="translate(-3468 -1053)" fill="#f44336" stroke="#f44336" stroke-width="1"/>
      <path id="Path_76" data-name="Path 76" d="M4457.5,1553.489v8.246l253.981,49.079-4.013-57.389Z" transform="matrix(0.998, 0.07, -0.07, 0.998, -3344.993, -1352.895)" fill="#ff9800" stroke="#ff9800" stroke-width="1"/>
      <path id="Path_77" data-name="Path 77" d="M4457.5,1553.489v8.246l253.849,35.978-6.695-47.635Z" transform="translate(-3198.483 -1641.708) rotate(8)" fill="#ffeb3b" stroke="#ffeb3b" stroke-width="1"/>
      <path id="Path_78" data-name="Path 78" d="M4457.772,1554.783h0l-.275,6.952,250.666,13.091-5.622-26.447Z" transform="translate(-3033.125 -1920.909) rotate(12)" fill="#4caf50" stroke="#4caf50" stroke-width="1"/>
      <path id="Path_79" data-name="Path 79" d="M4457.608,1554.288l-.111,7.447,250.187,12.353-8-27.894Z" transform="translate(-2846.709 -2187.071) rotate(16)" fill="#2196f3" stroke="#2196f3" stroke-width="1"/>
      <path id="Path_80" data-name="Path 80" d="M4457.722,1553.893l-1.488,10.337,247.383,3.085,3.2.04-9.276-25.486Z" transform="translate(-2642.125 -2439.823) rotate(20)" fill="#673ab7" stroke="#673ab7" stroke-width="1"/>
      <path id="Path_81" data-name="Path 81" d="M4457.167,1551.624l6.757,5.595,240.517-1.982-8.124-18.247Z" transform="translate(-2420.354 -2676.861) rotate(24)" fill="#9c27b0" stroke="#9c27b0" stroke-width="1"/>
      <path id="Path_61" data-name="Path 61" d="M4456.5,1554.033l171.056,24.333-35.589-59.387Z" transform="translate(-3604 -1019)" fill="#f44336" stroke="#f44336" stroke-width="1"/>
      <path id="Path_62" data-name="Path 62" d="M4456.5,1554.033l170.483,23.5-29.64-49.588Z" transform="translate(-3604 -1019)" fill="#ff9800" stroke="#ff9800" stroke-width="1"/>
      <path id="Path_63" data-name="Path 63" d="M4456.5,1554.033l170.344,23.442-24.364-40.756Z" transform="translate(-3604 -1019)" fill="#ffeb3b" stroke="#ffeb3b" stroke-width="1"/>
      <path id="Path_64" data-name="Path 64" d="M4456.5,1554.033l170.914,23.715-19.283-31.576Z" transform="translate(-3604 -1019)" fill="#4caf50" stroke="#4caf50" stroke-width="1"/>
      <path id="Path_65" data-name="Path 65" d="M4456.5,1554.033l171.238,24.286-14.127-22.989Z" transform="translate(-3604 -1019)" fill="#2196f3" stroke="#2196f3" stroke-width="1"/>
      <path id="Path_66" data-name="Path 66" d="M4456.5,1554.033l171.667,25.637-8.921-15.221Z" transform="translate(-3604 -1019)" fill="#673ab7" stroke="#673ab7" stroke-width="1"/>
      <path id="Path_67" data-name="Path 67" d="M4456.458,1553.044l172.68,26.912-4.83-7.855Z" transform="translate(-3604 -1018)" fill="#9c27b0" stroke="#9c27b0" stroke-width="1"/>
      <path id="Path_60" data-name="Path 60" d="M4377.014,1690l158.159-271.934L4694.016,1690Z" transform="translate(-3604 -1018)" fill="none" stroke="#4d4d4d" stroke-width="4"/>
      <line id="Line_23" data-name="Line 23" x1="217" y2="56" transform="translate(635.5 534.5)" fill="none" stroke="#4d4d4d" stroke-width="4"/>
      <path id="Path_68" data-name="Path 68" d="M874.179,1562.184l-14.232,29.828h30Z" transform="translate(2091.721 -646.259) rotate(77)" fill="#4d4d4d" stroke="#4d4d4d" stroke-width="1"/>
    </g>
  </g>
</svg>
