<svg xmlns="http://www.w3.org/2000/svg" width="1155" height="669.229" viewBox="0 0 1155 669.229">
  <g id="Group_31" data-name="Group 31" transform="translate(-383 -205.499)">
    <rect id="Rectangle_54" data-name="Rectangle 54" width="1155" height="667" transform="translate(383 207)" fill="#fafafa"/>
    <g id="Path_55" data-name="Path 55" transform="translate(668 248.5)" fill="#fafafa">
      <path d="M 292.5 582.5 C 272.8222351074219 582.5 253.1575317382812 580.5177001953125 234.0522308349609 576.6082153320312 C 215.4336853027344 572.7982788085938 197.1199951171875 567.1134033203125 179.6196899414062 559.7113647460938 C 162.4365386962891 552.4435424804688 145.8631591796875 543.44775390625 130.3600006103516 532.9740600585938 C 115.0034637451172 522.599365234375 100.5627670288086 510.6846923828125 87.43900299072266 497.5610046386719 C 74.3153076171875 484.4372253417969 62.40061569213867 469.9965515136719 52.02592468261719 454.6400146484375 C 41.55223083496094 439.1368408203125 32.55646133422852 422.5634765625 25.28861618041992 405.3803100585938 C 17.88661575317383 387.8800048828125 12.20169258117676 369.5663146972656 8.391769409179688 350.9477844238281 C 4.482307910919189 331.8424682617188 2.5 312.1777648925781 2.5 292.5 C 2.5 272.8222351074219 4.482307910919189 253.1575317382812 8.391769409179688 234.0522308349609 C 12.20169258117676 215.4336853027344 17.88661575317383 197.1199951171875 25.28861618041992 179.6196899414062 C 32.55646133422852 162.4365386962891 41.55223083496094 145.8631591796875 52.02592468261719 130.3600006103516 C 62.40061569213867 115.0034637451172 74.3153076171875 100.5627670288086 87.43900299072266 87.43900299072266 C 100.5627670288086 74.3153076171875 115.0034637451172 62.40061569213867 130.3600006103516 52.02592468261719 C 145.8631591796875 41.55223083496094 162.4365386962891 32.55646133422852 179.6196899414062 25.28861618041992 C 197.1199951171875 17.88661575317383 215.4336853027344 12.20169258117676 234.0522308349609 8.391769409179688 C 253.1575317382812 4.482307910919189 272.8222351074219 2.5 292.5 2.5 C 312.1777648925781 2.5 331.8424682617188 4.482307910919189 350.9477844238281 8.391769409179688 C 369.5663146972656 12.20169258117676 387.8800048828125 17.88661575317383 405.3803100585938 25.28861618041992 C 422.5634765625 32.55646133422852 439.1368408203125 41.55223083496094 454.6400146484375 52.02592468261719 C 469.9965515136719 62.40061569213867 484.4372253417969 74.3153076171875 497.5610046386719 87.43900299072266 C 510.6846923828125 100.5627670288086 522.599365234375 115.0034637451172 532.9740600585938 130.3600006103516 C 543.44775390625 145.8631591796875 552.4435424804688 162.4365386962891 559.7113647460938 179.6196899414062 C 567.1134033203125 197.1199951171875 572.7982788085938 215.4336853027344 576.6082153320312 234.0522308349609 C 580.5177001953125 253.1575317382812 582.5 272.8222351074219 582.5 292.5 C 582.5 312.1777648925781 580.5177001953125 331.8424682617188 576.6082153320312 350.9477844238281 C 572.7982788085938 369.5663146972656 567.1134033203125 387.8800048828125 559.7113647460938 405.3803100585938 C 552.4435424804688 422.5634765625 543.44775390625 439.1368408203125 532.9740600585938 454.6400146484375 C 522.599365234375 469.9965515136719 510.6846923828125 484.4372253417969 497.5610046386719 497.5610046386719 C 484.4372253417969 510.6846923828125 469.9965515136719 522.599365234375 454.6400146484375 532.9740600585938 C 439.1368408203125 543.44775390625 422.5634765625 552.4435424804688 405.3803100585938 559.7113647460938 C 387.8800048828125 567.1134033203125 369.5663146972656 572.7982788085938 350.9477844238281 576.6082153320312 C 331.8424682617188 580.5177001953125 312.1777648925781 582.5 292.5 582.5 Z" stroke="none"/>
      <path d="M 292.5 5 C 272.990234375 5 253.494140625 6.9652099609375 234.5533752441406 10.841064453125 C 216.0966186523438 14.61785888671875 197.9418334960938 20.25335693359375 180.5935363769531 27.59112548828125 C 163.55908203125 34.79608154296875 147.1289367675781 43.71417236328125 131.7594604492188 54.0975341796875 C 116.5347595214844 64.3831787109375 102.2179870605469 76.19561767578125 89.20675659179688 89.20675659179688 C 76.19561767578125 102.2179870605469 64.3831787109375 116.5347595214844 54.0975341796875 131.7594604492188 C 43.71417236328125 147.1289367675781 34.79608154296875 163.55908203125 27.59112548828125 180.5935363769531 C 20.25335693359375 197.9418334960938 14.61785888671875 216.0966186523438 10.841064453125 234.5533752441406 C 6.9652099609375 253.494140625 5 272.990234375 5 292.5 C 5 312.009765625 6.9652099609375 331.5057678222656 10.841064453125 350.446533203125 C 14.61785888671875 368.9033813476562 20.25335693359375 387.0580749511719 27.59112548828125 404.4063720703125 C 34.79608154296875 421.44091796875 43.71417236328125 437.87109375 54.0975341796875 453.240478515625 C 64.3831787109375 468.4651489257812 76.19561767578125 482.781982421875 89.20675659179688 495.7931518554688 C 102.2179870605469 508.8043823242188 116.5347595214844 520.6168212890625 131.7594604492188 530.9024658203125 C 147.1289367675781 541.2858276367188 163.55908203125 550.2039184570312 180.5935363769531 557.4088745117188 C 197.9418334960938 564.7466430664062 216.0966186523438 570.3821411132812 234.5533752441406 574.158935546875 C 253.494140625 578.0347900390625 272.990234375 580 292.5 580 C 312.009765625 580 331.5057678222656 578.0347900390625 350.446533203125 574.158935546875 C 368.9033813476562 570.3821411132812 387.0580749511719 564.7466430664062 404.4063720703125 557.4088745117188 C 421.44091796875 550.2039184570312 437.87109375 541.2858276367188 453.240478515625 530.9024658203125 C 468.4651489257812 520.6168212890625 482.781982421875 508.8043823242188 495.7931518554688 495.7931518554688 C 508.8043823242188 482.781982421875 520.6168212890625 468.4651489257812 530.9024658203125 453.240478515625 C 541.2858276367188 437.87109375 550.2039184570312 421.44091796875 557.4088745117188 404.4063720703125 C 564.7466430664062 387.0580749511719 570.3821411132812 368.9033813476562 574.158935546875 350.446533203125 C 578.0347900390625 331.5057678222656 580 312.009765625 580 292.5 C 580 272.990234375 578.0347900390625 253.494140625 574.158935546875 234.5533752441406 C 570.3821411132812 216.0966186523438 564.7466430664062 197.9418334960938 557.4088745117188 180.5935363769531 C 550.2039184570312 163.55908203125 541.2858276367188 147.1289367675781 530.9024658203125 131.7594604492188 C 520.6168212890625 116.5347595214844 508.8043823242188 102.2179870605469 495.7931518554688 89.20675659179688 C 482.781982421875 76.19561767578125 468.4651489257812 64.3831787109375 453.240478515625 54.0975341796875 C 437.87109375 43.71417236328125 421.44091796875 34.79608154296875 404.4063720703125 27.59112548828125 C 387.0580749511719 20.25335693359375 368.9033813476562 14.61785888671875 350.446533203125 10.841064453125 C 331.5057678222656 6.9652099609375 312.009765625 5 292.5 5 M 292.5 0 C 454.043212890625 0 585 130.9566955566406 585 292.5 C 585 454.043212890625 454.043212890625 585 292.5 585 C 130.9566955566406 585 0 454.043212890625 0 292.5 C 0 130.9566955566406 130.9566955566406 0 292.5 0 Z" stroke="none" fill="#4d4d4d"/>
    </g>
    <line id="Line_18" data-name="Line 18" y2="580" transform="translate(960.5 252)" fill="none" stroke="#4d4d4d" stroke-width="5"/>
    <path id="Path_56" data-name="Path 56" d="M2717.561,1370.284l.166,668.229H2427.72v-667.7Z" transform="translate(-1759.72 -1164.284)" fill="#fafafa" stroke="#fafafa" stroke-width="1"/>
    <path id="Path_57" data-name="Path 57" d="M2648.648,1699.911s-37.806,59.785,24.115,87.717c55.007-35.508,132.45-87.717,132.45-87.717l191.727-52.9s28.508,25.135,4.256,52.9" transform="translate(-1842 -1159.281)" fill="none" stroke="#4d4d4d" stroke-width="3"/>
    <path id="Path_82" data-name="Path 82" d="M407,0H0" transform="translate(761.5 541)" fill="none" stroke="#4d4d4d" stroke-width="4"/>
    <line id="Line_20" data-name="Line 20" x1="19" transform="translate(778.5 541)" fill="none" stroke="#fafafa" stroke-width="5"/>
    <line id="Line_20-2" data-name="Line 20" x1="19" transform="translate(817.5 541)" fill="none" stroke="#fafafa" stroke-width="5"/>
    <line id="Line_20-3" data-name="Line 20" x1="19" transform="translate(856.5 541)" fill="none" stroke="#fafafa" stroke-width="5"/>
    <line id="Line_20-4" data-name="Line 20" x1="19" transform="translate(895.5 541)" fill="none" stroke="#fafafa" stroke-width="5"/>
    <line id="Line_20-5" data-name="Line 20" x1="19" transform="translate(934.5 541)" fill="none" stroke="#fafafa" stroke-width="5"/>
    <line id="Line_20-6" data-name="Line 20" x1="19" transform="translate(973.5 541)" fill="none" stroke="#fafafa" stroke-width="5"/>
    <line id="Line_20-7" data-name="Line 20" x1="19" transform="translate(1012.5 541)" fill="none" stroke="#fafafa" stroke-width="5"/>
    <line id="Line_20-8" data-name="Line 20" x1="19" transform="translate(1051.5 541)" fill="none" stroke="#fafafa" stroke-width="5"/>
    <line id="Line_20-9" data-name="Line 20" x1="19" transform="translate(1090.5 541)" fill="none" stroke="#fafafa" stroke-width="5"/>
    <line id="Line_20-10" data-name="Line 20" x1="19" transform="translate(1129.5 541)" fill="none" stroke="#fafafa" stroke-width="5"/>
    <path id="Path_95" data-name="Path 95" d="M2.624-22.4V0H5.312V-17.92L17.312,0H20.1V-22.4H17.408V-4.48l-12-17.92ZM31.36-15.168a7.57,7.57,0,0,0-7.616,7.776A7.57,7.57,0,0,0,31.36.384a7.57,7.57,0,0,0,7.616-7.776A7.57,7.57,0,0,0,31.36-15.168Zm0,13.056a4.957,4.957,0,0,1-4.928-5.28,4.957,4.957,0,0,1,4.928-5.28,4.957,4.957,0,0,1,4.928,5.28A4.957,4.957,0,0,1,31.36-2.112ZM48.672-15.168a4.947,4.947,0,0,0-4.128,2.656v-2.272h-2.5V0h2.688V-10.176s1.056-2.5,3.392-2.5a3.75,3.75,0,0,1,1.7.32l.992-2.432A6.18,6.18,0,0,0,48.672-15.168Zm19.872,0a4.884,4.884,0,0,0-4.416,2.752,4.606,4.606,0,0,0-4.608-2.752,4.514,4.514,0,0,0-4.1,2.56v-2.176h-2.5V0h2.688V-10.3s.992-2.368,3.168-2.368c1.92,0,3.168,1.184,3.168,3.584V0H64.64V-10.3s.96-2.368,3.168-2.368c1.92,0,3.168,1.184,3.168,3.584V0h2.688V-9.5C73.664-13.152,71.616-15.168,68.544-15.168Zm15.072,0a11.015,11.015,0,0,0-5.536,1.5l1.12,2.24a10.239,10.239,0,0,1,4.416-1.248c1.184,0,3.744.416,3.744,3.488v.8A8.275,8.275,0,0,0,82.912-9.6c-3.328,0-5.856,2.048-5.856,4.928,0,3.2,2.848,5.056,5.5,5.056a6.248,6.248,0,0,0,5.024-2.528V0h2.464V-9.728C90.048-12.48,87.968-15.168,83.616-15.168Zm-.48,13.184c-1.664,0-3.392-.768-3.392-2.688,0-1.536,1.44-2.688,3.744-2.688A7.082,7.082,0,0,1,87.36-6.3v2.08A5.676,5.676,0,0,1,83.136-1.984ZM94.72,0h2.688V-24.192H94.72Z" transform="translate(721 523.5)" fill="#4d4d4d"/>
    <line id="Line_21" data-name="Line 21" x1="289" y2="195" transform="translate(672.5 541)" fill="none" stroke="#2196f3" stroke-width="5"/>
    <line id="Line_22" data-name="Line 22" x1="228" y2="63" transform="translate(960.5 478)" fill="none" stroke="#2196f3" stroke-width="5"/>
    <path id="Path_96" data-name="Path 96" d="M2.125-12.328q0-6.172,1.984-9.453a6.325,6.325,0,0,1,5.734-3.281,6.312,6.312,0,0,1,5.719,3.281q1.984,3.281,1.984,9.438,0,6.172-1.984,9.453A6.312,6.312,0,0,1,9.844.391a6.334,6.334,0,0,1-5.789-3.18Q2.125-5.969,2.125-12.328Zm3.188-1.359h9.047A14.636,14.636,0,0,0,13.094-20.2Q11.828-22.75,9.828-22.75q-1.984,0-3.25,2.547A14.636,14.636,0,0,0,5.313-13.687Zm9.047,2.313H5.313A16.088,16.088,0,0,0,6.547-4.508Q7.781-1.922,9.813-1.922q2,0,3.273-2.648A15.738,15.738,0,0,0,14.359-11.375Z" transform="translate(826 583.5)" fill="#4d4d4d"/>
    <path id="Path_98" data-name="Path 98" d="M2.125-12.328q0-6.172,1.984-9.453a6.325,6.325,0,0,1,5.734-3.281,6.312,6.312,0,0,1,5.719,3.281q1.984,3.281,1.984,9.438,0,6.172-1.984,9.453A6.312,6.312,0,0,1,9.844.391a6.334,6.334,0,0,1-5.789-3.18Q2.125-5.969,2.125-12.328Zm3.188-1.359h9.047A14.636,14.636,0,0,0,13.094-20.2Q11.828-22.75,9.828-22.75q-1.984,0-3.25,2.547A14.636,14.636,0,0,0,5.313-13.687Zm9.047,2.313H5.313A16.088,16.088,0,0,0,6.547-4.508Q7.781-1.922,9.813-1.922q2,0,3.273-2.648A15.738,15.738,0,0,0,14.359-11.375Z" transform="translate(1099 531.5)" fill="#4d4d4d"/>
    <path id="Path_97" data-name="Path 97" d="M5.928-11.376a8.261,8.261,0,0,0-4.152,1.128l.84,1.68A7.679,7.679,0,0,1,5.928-9.5,2.527,2.527,0,0,1,8.736-6.888v.6A6.206,6.206,0,0,0,5.4-7.2c-2.5,0-4.392,1.536-4.392,3.7A3.945,3.945,0,0,0,5.136.288,4.686,4.686,0,0,0,8.9-1.608V0h1.848V-7.3C10.752-9.36,9.192-11.376,5.928-11.376Zm-.36,9.888c-1.248,0-2.544-.576-2.544-2.016,0-1.152,1.08-2.016,2.808-2.016a5.312,5.312,0,0,1,2.9.792v1.56A4.257,4.257,0,0,1,5.568-1.488ZM14.184,0H16.2V-11.088H14.184Zm-.36-14.64a1.383,1.383,0,0,0,1.368,1.368A1.383,1.383,0,0,0,16.56-14.64a1.383,1.383,0,0,0-1.368-1.368A1.383,1.383,0,0,0,13.824-14.64ZM24.6-11.376a3.71,3.71,0,0,0-3.1,1.992v-1.7H19.632V0h2.016V-7.632A3.083,3.083,0,0,1,24.192-9.5a2.812,2.812,0,0,1,1.272.24l.744-1.824A4.635,4.635,0,0,0,24.6-11.376Z" transform="translate(845 583.5)" fill="#4d4d4d"/>
    <path id="Path_99" data-name="Path 99" d="M13.248-11.376A3.663,3.663,0,0,0,9.936-9.312,3.454,3.454,0,0,0,6.48-11.376a3.386,3.386,0,0,0-3.072,1.92v-1.632H1.536V0H3.552V-7.728A2.9,2.9,0,0,1,5.928-9.5c1.44,0,2.376.888,2.376,2.688V0H10.32V-7.728A2.855,2.855,0,0,1,12.7-9.5c1.44,0,2.376.888,2.376,2.688V0h2.016V-7.128C17.088-9.864,15.552-11.376,13.248-11.376Zm11.3,0A8.261,8.261,0,0,0,20.4-10.248l.84,1.68A7.679,7.679,0,0,1,24.552-9.5,2.527,2.527,0,0,1,27.36-6.888v.6A6.206,6.206,0,0,0,24.024-7.2c-2.5,0-4.392,1.536-4.392,3.7A3.945,3.945,0,0,0,23.76.288a4.686,4.686,0,0,0,3.768-1.9V0h1.848V-7.3C29.376-9.36,27.816-11.376,24.552-11.376Zm-.36,9.888c-1.248,0-2.544-.576-2.544-2.016,0-1.152,1.08-2.016,2.808-2.016a5.312,5.312,0,0,1,2.9.792v1.56A4.257,4.257,0,0,1,24.192-1.488Zm7.3-7.776h2.16v6.072A3.242,3.242,0,0,0,36.984.288a4.569,4.569,0,0,0,2.3-.672L38.544-2.04a2.632,2.632,0,0,1-1.272.456,1.485,1.485,0,0,1-1.608-1.7V-9.264H39.12v-1.824H35.664v-3.384H33.648v3.384h-2.16Z" transform="translate(1118 531.5)" fill="#4d4d4d"/>
    <path id="Path_58" data-name="Path 58" d="M875.6,1562.013l-15.651,30h30Z" transform="matrix(0.574, 0.819, -0.819, 0.574, 1583.911, -967.739)" fill="#2196f3"/>
    <path id="Path_59" data-name="Path 59" d="M875.6,1562.013l-15.651,30h30Z" transform="translate(2379.448 -717.958) rotate(76)" fill="#2196f3"/>
  </g>
</svg>
