<svg xmlns="http://www.w3.org/2000/svg" width="180.256" height="150.694" viewBox="0 0 180.256 150.694">
  <g id="Group_94" data-name="Group 94" transform="translate(-672.122 -686.025)">
    <g id="Group_93" data-name="Group 93" transform="translate(-316.378 51.525)">
      <path id="Rectangle_248" data-name="Rectangle 248" d="M0,0H28.38a22,22,0,0,1,22,22V158.256a22,22,0,0,1-22,22H0a0,0,0,0,1,0,0V0A0,0,0,0,1,0,0Z" transform="translate(1168.756 734.814) rotate(90)" fill="#fff"/>
      <rect id="Rectangle_249" data-name="Rectangle 249" width="50.38" height="180.256" transform="translate(1168.756 684.88) rotate(90)" fill="#fff"/>
      <path id="Rectangle_250" data-name="Rectangle 250" d="M0,0H28.38a22,22,0,0,1,22,22V158.256a22,22,0,0,1-22,22H0a0,0,0,0,1,0,0V0A0,0,0,0,1,0,0Z" transform="translate(988.5 684.88) rotate(-90)" fill="#fff"/>
    </g>
    <g id="Group_85" data-name="Group 85" transform="translate(-311 56.021)">
      <path id="Rectangle_248-2" data-name="Rectangle 248" d="M0,0H27.374a20,20,0,0,1,20,20V149.5a20,20,0,0,1-20,20H0a0,0,0,0,1,0,0V0A0,0,0,0,1,0,0Z" transform="translate(1158 728.828) rotate(90)" fill="#efdd42"/>
      <rect id="Rectangle_249-2" data-name="Rectangle 249" width="47.374" height="169.5" transform="translate(1158 681.874) rotate(90)" fill="#e24040"/>
      <path id="Rectangle_250-2" data-name="Rectangle 250" d="M0,0H27.374a20,20,0,0,1,20,20V149.5a20,20,0,0,1-20,20H0a0,0,0,0,1,0,0V0A0,0,0,0,1,0,0Z" transform="translate(988.5 681.874) rotate(-90)" fill="#151515"/>
    </g>
  </g>
</svg>
