<svg xmlns="http://www.w3.org/2000/svg" xmlns:xlink="http://www.w3.org/1999/xlink" width="164.409" height="164.409" viewBox="0 0 164.409 164.409">
  <defs>
    <clipPath id="clip-path">
      <rect id="Rectangle_152" data-name="Rectangle 152" width="164.409" height="164.409" fill="#fff" stroke="#707070" stroke-width="1"/>
    </clipPath>
  </defs>
  <g id="Mask_Group_54" data-name="Mask Group 54" clip-path="url(#clip-path)">
    <g id="energy-HJqk_E12Q" transform="translate(-19.74 55.988) rotate(-28)">
      <g id="Group_40" data-name="Group 40" transform="translate(0 0)">
        <path id="Path_120" data-name="Path 120" d="M11.682,0A11.857,11.857,0,0,0,0,12,11.857,11.857,0,0,0,11.682,24,11.858,11.858,0,0,0,23.364,12,11.858,11.858,0,0,0,11.682,0Z" transform="translate(66.023 59.027)" fill="#fff"/>
        <path id="Path_121" data-name="Path 121" d="M155.408,71.027c0-11-13.182-20.509-33.612-26.141.254-.963.456-1.9.68-2.843a11.68,11.68,0,0,0,2.44-22.693c-.6-8.5-3.449-14.534-8.362-17.445C109.055-2.545,97.992.86,85.4,11.5c-2.564,2.167-5.137,4.6-7.7,7.238C62.738,3.376,48.127-3.594,38.849,1.9c-7.5,4.451-10.165,16-7.491,32.509.544,3.364,1.308,6.87,2.252,10.472C13.182,50.517,0,60.029,0,71.027,0,76.1,2.819,81.033,8.11,85.372a13.2,13.2,0,0,0-.527,3.684A12.827,12.827,0,0,0,20.22,102.037a12.553,12.553,0,0,0,10.472-5.722c.965.291,1.935.578,2.932.85-5.474,21-4.045,37.486,5.228,42.986a13.784,13.784,0,0,0,7.157,1.866c8.834,0,20.162-6.86,31.7-18.7,11.535,11.843,22.862,18.7,31.7,18.7a13.811,13.811,0,0,0,7.158-1.866c4.009-2.379,6.687-6.9,7.838-13.12a12.133,12.133,0,0,0-1.177-23.848q-.613-2.95-1.419-6.015c20.427-5.633,33.607-15.146,33.607-26.141Zm-5.088,0c0,7.863-11.159,16.064-29.932,21.185a172.9,172.9,0,0,0-8.081-21.22,174.476,174.476,0,0,0,8.071-21.152c18.78,5.119,29.942,13.322,29.942,21.187ZM77.706,115.843a157.374,157.374,0,0,1-10.777-13.575c3.56.2,7.155.324,10.775.324,3.66,0,7.246-.106,10.76-.3a157.54,157.54,0,0,1-10.759,13.547Zm0-18.478c-4.91,0-9.768-.209-14.532-.577C60.578,92.853,58.008,88.661,55.5,84.2c-2.466-4.386-4.737-8.8-6.8-13.177q3.037-6.433,6.8-13.16c2.466-4.386,5.049-8.612,7.713-12.636,4.628-.343,9.459-.533,14.493-.533s9.873.19,14.5.535c2.6,3.947,5.184,8.154,7.7,12.634,2.456,4.367,4.713,8.769,6.772,13.15-2.067,4.407-4.319,8.824-6.772,13.19q-3.778,6.72-7.7,12.634c-4.633.343-9.468.533-14.506.533Zm-21.03-1.2a154.157,154.157,0,0,1-16.73-2.8,160.671,160.671,0,0,1,6.019-16.269q2.409,4.862,5.13,9.716t5.581,9.356Zm-10.7-31.227a162.008,162.008,0,0,1-6.015-16.329,150.48,150.48,0,0,1,16.76-2.787q-2.895,4.572-5.627,9.422-2.74,4.87-5.118,9.694ZM77.733,26.245A157.013,157.013,0,0,1,88.463,39.76c-3.51-.19-7.1-.3-10.758-.3s-7.226.106-10.728.294A158.052,158.052,0,0,1,77.733,26.245ZM98.689,45.824a149.813,149.813,0,0,1,16.741,2.784A164.4,164.4,0,0,1,109.418,64.9q-2.4-4.839-5.1-9.654-2.745-4.886-5.627-9.422Zm5.627,40.987c1.808-3.217,3.493-6.468,5.1-9.722a162.633,162.633,0,0,1,6,16.363A150.759,150.759,0,0,1,98.7,96.233q2.872-4.546,5.62-9.422ZM88.636,15.532c10.672-9.018,19.921-12.34,25.377-9.1,3.955,2.343,5.367,7.713,5.8,12.561a11.692,11.692,0,0,0-2.383,22.272c-.19.793-.36,1.569-.571,2.374a159.147,159.147,0,0,0-21.838-3.411,167.1,167.1,0,0,0-13.8-17.722c2.471-2.547,4.948-4.89,7.414-6.973ZM36.381,33.556c-2.267-14-.441-23.892,5.015-27.125,6.626-3.931,19.116,1.89,32.82,16.025A168.721,168.721,0,0,0,60.4,40.227,159.243,159.243,0,0,0,38.555,43.64c-.914-3.472-1.652-6.847-2.174-10.084Zm-3.75,57.89a13.344,13.344,0,0,0,.224-2.39A12.826,12.826,0,0,0,20.22,76.077,12.477,12.477,0,0,0,10.565,80.7c-2.8-2.449-5.478-5.79-5.478-9.673,0-7.859,11.154-16.06,29.92-21.181a172.614,172.614,0,0,0,8.076,21.18,170.988,170.988,0,0,0-8.04,21.12c-.821-.225-1.613-.465-2.411-.7Zm8.764,44.18c-6.631-3.933-7.964-17.969-2.888-37.243a163.176,163.176,0,0,0,21.853,3.409,166.959,166.959,0,0,0,13.864,17.8c-13.7,14.141-26.2,19.967-32.828,16.034Zm76.715-31.8a12.155,12.155,0,0,0,1.123,23.1c-.917,4.25-2.661,7.185-5.222,8.706-6.632,3.931-19.124-1.9-32.825-16.034a167.234,167.234,0,0,0,13.838-17.766,159.2,159.2,0,0,0,21.8-3.4q.728,2.749,1.287,5.4Z" fill="#fff"/>
      </g>
    </g>
  </g>
</svg>
