<svg xmlns="http://www.w3.org/2000/svg" width="1920" height="355" viewBox="0 0 1920 355">
  <g id="Group_91" data-name="Group 91" transform="translate(0 -363)">
    <rect id="Rectangle_2" data-name="Rectangle 2" width="1920" height="355" transform="translate(0 363)" fill="#fafafa"/>
    <g id="Group_90" data-name="Group 90">
      <path id="Path_167" data-name="Path 167" d="M19.839-5.1C12.8-5.1,7.956-10.965,7.956-17.85S12.8-30.6,19.839-30.6a12.275,12.275,0,0,1,9.078,3.927L33.048-30.7a17.889,17.889,0,0,0-13.209-5.61c-10.3,0-18.105,7.905-18.105,18.462S9.537.612,19.839.612A18,18,0,0,0,33.558-5.457l-4.08-4.029A12.7,12.7,0,0,1,19.839-5.1Z" transform="translate(1084 557)" fill="#151515"/>
      <path id="Path_166" data-name="Path 166" d="M7.5-5.025A5.89,5.89,0,0,0,13.425.9,5.89,5.89,0,0,0,19.35-5.025a5.89,5.89,0,0,0-5.925-5.925A5.89,5.89,0,0,0,7.5-5.025Zm24,0A5.89,5.89,0,0,0,37.425.9,5.89,5.89,0,0,0,43.35-5.025a5.89,5.89,0,0,0-5.925-5.925A5.89,5.89,0,0,0,31.5-5.025Zm24.075,0A5.89,5.89,0,0,0,61.5.9a5.89,5.89,0,0,0,5.925-5.925A5.89,5.89,0,0,0,61.5-10.95,5.89,5.89,0,0,0,55.575-5.025Z" transform="translate(870 546)" fill="#151515"/>
      <path id="Path_168" data-name="Path 168" d="M19.788-36.312c-10.4,0-18.054,7.905-18.054,18.462S9.384.612,19.788.612,37.842-7.293,37.842-17.85,30.192-36.312,19.788-36.312Zm0,31.11C12.6-5.2,7.956-10.965,7.956-17.85S12.6-30.5,19.788-30.5,31.62-24.735,31.62-17.85,26.979-5.2,19.788-5.2Z" transform="translate(1206 440)" fill="#151515"/>
      <path id="Path_169" data-name="Path 169" d="M19.788-36.312c-10.4,0-18.054,7.905-18.054,18.462S9.384.612,19.788.612,37.842-7.293,37.842-17.85,30.192-36.312,19.788-36.312Zm0,31.11C12.6-5.2,7.956-10.965,7.956-17.85S12.6-30.5,19.788-30.5,31.62-24.735,31.62-17.85,26.979-5.2,19.788-5.2Z" transform="translate(1206 670)" fill="#151515"/>
      <path id="Path_170" data-name="Path 170" d="M25.143-21.165H9.894V-35.7H3.774V0h6.12V-15.351H25.143V0h6.12V-35.7h-6.12Z" transform="translate(1374 670)" fill="#151515"/>
      <line id="Line_11" data-name="Line 11" y2="100.663" transform="translate(1070.163 542.765) rotate(90)" fill="none" stroke="#151515" stroke-width="7"/>
      <line id="Line_12" data-name="Line 12" y2="100.663" transform="translate(1361.163 655.765) rotate(90)" fill="none" stroke="#151515" stroke-width="7"/>
      <line id="Line_13" data-name="Line 13" y2="100.663" transform="translate(1200.422 633.355) rotate(135)" fill="none" stroke="#151515" stroke-width="7"/>
      <line id="Line_14" data-name="Line 14" y2="100.663" transform="translate(1134.242 519.355) rotate(-135)" fill="none" stroke="#151515" stroke-width="7"/>
      <line id="Line_15" data-name="Line 15" y2="100.663" transform="translate(1126.242 512.355) rotate(-135)" fill="none" stroke="#151515" stroke-width="7"/>
      <path id="Path_164" data-name="Path 164" d="M3.774-35.7V0h6.12V-24.531L27.744,0h5.508V-35.7h-6.12v24.582L9.282-35.7Z" transform="translate(692 557)" fill="#151515"/>
      <path id="Path_163" data-name="Path 163" d="M25.143-7.835H9.894V6.7H3.774V-29h6.12v15.351H25.143V-29h6.12V6.7h-6.12Z" transform="translate(604.242 411) rotate(180)" fill="#151515"/>
      <path id="Path_165" data-name="Path 165" d="M25.143-7.835H9.894V6.7H3.774V-29h6.12v15.351H25.143V-29h6.12V6.7h-6.12Z" transform="translate(604.242 641) rotate(180)" fill="#151515"/>
      <line id="Line_55" data-name="Line 55" y1="100.663" transform="translate(681 562.176) rotate(45)" fill="none" stroke="#151515" stroke-width="7"/>
      <line id="Line_56" data-name="Line 56" y1="100.663" transform="translate(612.821 441.176) rotate(-45)" fill="none" stroke="#151515" stroke-width="7"/>
      <line id="Line_57" data-name="Line 57" y2="100.663" transform="translate(843.163 539.766) rotate(90)" fill="none" stroke="#151515" stroke-width="7"/>
    </g>
  </g>
</svg>
