<svg xmlns="http://www.w3.org/2000/svg" width="1920" height="541" viewBox="0 0 1920 541">
  <g id="Group_93" data-name="Group 93" transform="translate(0 -214)">
    <rect id="Rectangle_2" data-name="Rectangle 2" width="1920" height="541" transform="translate(0 214)" fill="#fafafa"/>
    <g id="Group_92" data-name="Group 92">
      <path id="Path_179" data-name="Path 179" d="M19.839-5.1C12.8-5.1,7.956-10.965,7.956-17.85S12.8-30.6,19.839-30.6a12.275,12.275,0,0,1,9.078,3.927L33.048-30.7a17.889,17.889,0,0,0-13.209-5.61c-10.3,0-18.105,7.905-18.105,18.462S9.537.612,19.839.612A18,18,0,0,0,33.558-5.457l-4.08-4.029A12.7,12.7,0,0,1,19.839-5.1Z" transform="translate(573.758 555)" fill="#151515"/>
      <path id="Path_180" data-name="Path 180" d="M19.788-36.312c-10.4,0-18.054,7.905-18.054,18.462S9.384.612,19.788.612,37.842-7.293,37.842-17.85,30.192-36.312,19.788-36.312Zm0,31.11C12.6-5.2,7.956-10.965,7.956-17.85S12.6-30.5,19.788-30.5,31.62-24.735,31.62-17.85,26.979-5.2,19.788-5.2Z" transform="translate(695.758 438)" fill="#151515"/>
      <path id="Path_181" data-name="Path 181" d="M19.788-36.312c-10.4,0-18.054,7.905-18.054,18.462S9.384.612,19.788.612,37.842-7.293,37.842-17.85,30.192-36.312,19.788-36.312Zm0,31.11C12.6-5.2,7.956-10.965,7.956-17.85S12.6-30.5,19.788-30.5,31.62-24.735,31.62-17.85,26.979-5.2,19.788-5.2Z" transform="translate(695.758 668)" fill="#151515"/>
      <path id="Path_182" data-name="Path 182" d="M25.143-21.165H9.894V-35.7H3.774V0h6.12V-15.351H25.143V0h6.12V-35.7h-6.12Z" transform="translate(863.758 668)" fill="#151515"/>
      <line id="Line_11" data-name="Line 11" y2="100.663" transform="translate(559.921 540.765) rotate(90)" fill="none" stroke="#151515" stroke-width="7"/>
      <line id="Line_12" data-name="Line 12" y2="100.663" transform="translate(850.921 653.765) rotate(90)" fill="none" stroke="#151515" stroke-width="7"/>
      <line id="Line_13" data-name="Line 13" y2="100.663" transform="translate(690.179 631.355) rotate(135)" fill="none" stroke="#151515" stroke-width="7"/>
      <line id="Line_14" data-name="Line 14" y2="100.663" transform="translate(624 517.355) rotate(-135)" fill="none" stroke="#151515" stroke-width="7"/>
      <line id="Line_15" data-name="Line 15" y2="100.663" transform="translate(616 510.355) rotate(-135)" fill="none" stroke="#151515" stroke-width="7"/>
      <path id="Path_175" data-name="Path 175" d="M3.774-35.7V0h6.12V-24.531L27.744,0h5.508V-35.7h-6.12v24.582L9.282-35.7Z" transform="translate(243.758 557)" fill="#151515"/>
      <path id="Path_173" data-name="Path 173" d="M25.143-7.835H9.894V6.7H3.774V-29h6.12v15.351H25.143V-29h6.12V6.7h-6.12Z" transform="translate(156 411) rotate(180)" fill="#151515"/>
      <path id="Path_174" data-name="Path 174" d="M25.143-7.835H9.894V6.7H3.774V-29h6.12v15.351H25.143V-29h6.12V6.7h-6.12Z" transform="translate(156 641) rotate(180)" fill="#151515"/>
      <line id="Line_55" data-name="Line 55" y1="100.663" transform="translate(232.758 562.176) rotate(45)" fill="none" stroke="#151515" stroke-width="7"/>
      <line id="Line_56" data-name="Line 56" y1="100.663" transform="translate(164.578 441.176) rotate(-45)" fill="none" stroke="#151515" stroke-width="7"/>
      <line id="Line_57" data-name="Line 57" y2="100.663" transform="translate(394.921 539.766) rotate(90)" fill="none" stroke="#151515" stroke-width="7"/>
      <path id="Path_177" data-name="Path 177" d="M19.839-5.1C12.8-5.1,7.956-10.965,7.956-17.85S12.8-30.6,19.839-30.6a12.275,12.275,0,0,1,9.078,3.927L33.048-30.7a17.889,17.889,0,0,0-13.209-5.61c-10.3,0-18.105,7.905-18.105,18.462S9.537.612,19.839.612A18,18,0,0,0,33.558-5.457l-4.08-4.029A12.7,12.7,0,0,1,19.839-5.1Z" transform="translate(408.758 557)" fill="#151515"/>
      <g id="Group_83" data-name="Group 83" transform="translate(967.355 -366.066) rotate(90)">
        <line id="Line_58" data-name="Line 58" y2="100.663" transform="translate(1039.163 540.766) rotate(90)" fill="none" stroke="#151515" stroke-width="7"/>
        <line id="Line_59" data-name="Line 59" y2="100.663" transform="translate(874.163 539.766) rotate(90)" fill="none" stroke="#151515" stroke-width="7"/>
      </g>
      <path id="Path_176" data-name="Path 176" d="M25.143-21.165H9.894V-35.7H3.774V0h6.12V-15.351H25.143V0h6.12V-35.7h-6.12Z" transform="translate(409.758 396)" fill="#151515"/>
      <path id="Path_178" data-name="Path 178" d="M25.143-21.165H9.894V-35.7H3.774V0h6.12V-15.351H25.143V0h6.12V-35.7h-6.12Z" transform="translate(408.758 719)" fill="#151515"/>
      <path id="Path_190" data-name="Path 190" d="M19.839-5.1C12.8-5.1,7.956-10.965,7.956-17.85S12.8-30.6,19.839-30.6a12.275,12.275,0,0,1,9.078,3.927L33.048-30.7a17.889,17.889,0,0,0-13.209-5.61c-10.3,0-18.105,7.905-18.105,18.462S9.537.612,19.839.612A18,18,0,0,0,33.558-5.457l-4.08-4.029A12.7,12.7,0,0,1,19.839-5.1Z" transform="translate(1473.758 552)" fill="#151515"/>
      <path id="Path_191" data-name="Path 191" d="M19.788-36.312c-10.4,0-18.054,7.905-18.054,18.462S9.384.612,19.788.612,37.842-7.293,37.842-17.85,30.192-36.312,19.788-36.312Zm0,31.11C12.6-5.2,7.956-10.965,7.956-17.85S12.6-30.5,19.788-30.5,31.62-24.735,31.62-17.85,26.979-5.2,19.788-5.2Z" transform="translate(1595.758 435)" fill="#151515"/>
      <path id="Path_192" data-name="Path 192" d="M19.788-36.312c-10.4,0-18.054,7.905-18.054,18.462S9.384.612,19.788.612,37.842-7.293,37.842-17.85,30.192-36.312,19.788-36.312Zm0,31.11C12.6-5.2,7.956-10.965,7.956-17.85S12.6-30.5,19.788-30.5,31.62-24.735,31.62-17.85,26.979-5.2,19.788-5.2Z" transform="translate(1595.758 665)" fill="#151515"/>
      <path id="Path_193" data-name="Path 193" d="M25.143-21.165H9.894V-35.7H3.774V0h6.12V-15.351H25.143V0h6.12V-35.7h-6.12Z" transform="translate(1763.758 665)" fill="#151515"/>
      <line id="Line_11-2" data-name="Line 11" y2="100.663" transform="translate(1459.921 537.765) rotate(90)" fill="none" stroke="#151515" stroke-width="7"/>
      <line id="Line_12-2" data-name="Line 12" y2="100.663" transform="translate(1750.921 650.765) rotate(90)" fill="none" stroke="#151515" stroke-width="7"/>
      <line id="Line_13-2" data-name="Line 13" y2="100.663" transform="translate(1590.179 628.355) rotate(135)" fill="none" stroke="#151515" stroke-width="7"/>
      <line id="Line_14-2" data-name="Line 14" y2="100.663" transform="translate(1524 514.355) rotate(-135)" fill="none" stroke="#151515" stroke-width="7"/>
      <line id="Line_15-2" data-name="Line 15" y2="100.663" transform="translate(1516 507.355) rotate(-135)" fill="none" stroke="#151515" stroke-width="7"/>
      <path id="Path_185" data-name="Path 185" d="M3.774-35.7V0h6.12V-24.531L27.744,0h5.508V-35.7h-6.12v24.582L9.282-35.7Z" transform="translate(1143.758 554)" fill="#151515"/>
      <path id="Path_183" data-name="Path 183" d="M25.143-7.835H9.894V6.7H3.774V-29h6.12v15.351H25.143V-29h6.12V6.7h-6.12Z" transform="translate(1056 408) rotate(180)" fill="#151515"/>
      <path id="Path_184" data-name="Path 184" d="M25.143-7.835H9.894V6.7H3.774V-29h6.12v15.351H25.143V-29h6.12V6.7h-6.12Z" transform="translate(1056 638) rotate(180)" fill="#151515"/>
      <line id="Line_55-2" data-name="Line 55" y1="100.663" transform="translate(1132.758 559.176) rotate(45)" fill="none" stroke="#151515" stroke-width="7"/>
      <line id="Line_56-2" data-name="Line 56" y1="100.663" transform="translate(1064.578 438.176) rotate(-45)" fill="none" stroke="#151515" stroke-width="7"/>
      <line id="Line_57-2" data-name="Line 57" y2="100.663" transform="translate(1294.921 536.766) rotate(90)" fill="none" stroke="#151515" stroke-width="7"/>
      <path id="Path_187" data-name="Path 187" d="M19.839-5.1C12.8-5.1,7.956-10.965,7.956-17.85S12.8-30.6,19.839-30.6a12.275,12.275,0,0,1,9.078,3.927L33.048-30.7a17.889,17.889,0,0,0-13.209-5.61c-10.3,0-18.105,7.905-18.105,18.462S9.537.612,19.839.612A18,18,0,0,0,33.558-5.457l-4.08-4.029A12.7,12.7,0,0,1,19.839-5.1Z" transform="translate(1308.758 554)" fill="#151515"/>
      <g id="Group_83-2" data-name="Group 83" transform="translate(1867.355 -369.066) rotate(90)">
        <line id="Line_58-2" data-name="Line 58" y2="100.663" transform="translate(1039.163 540.766) rotate(90)" fill="none" stroke="#151515" stroke-width="7"/>
        <line id="Line_59-2" data-name="Line 59" y2="100.663" transform="translate(874.163 539.766) rotate(90)" fill="none" stroke="#151515" stroke-width="7"/>
      </g>
      <path id="Path_186" data-name="Path 186" d="M25.143-21.165H9.894V-35.7H3.774V0h6.12V-15.351H25.143V0h6.12V-35.7h-6.12Z" transform="translate(1309.758 393)" fill="#151515"/>
      <path id="Path_188" data-name="Path 188" d="M19.839-5.1C12.8-5.1,7.956-10.965,7.956-17.85S12.8-30.6,19.839-30.6a12.275,12.275,0,0,1,9.078,3.927L33.048-30.7a17.889,17.889,0,0,0-13.209-5.61c-10.3,0-18.105,7.905-18.105,18.462S9.537.612,19.839.612A18,18,0,0,0,33.558-5.457l-4.08-4.029A12.7,12.7,0,0,1,19.839-5.1Zm39.78-16.065H44.37V-35.7H38.25V0h6.12V-15.351H59.619V0h6.12V-35.7h-6.12Z" transform="translate(1308.758 716)" fill="#151515"/>
      <path id="Path_189" data-name="Path 189" d="M13.51-17.57c0,2.485-1.68,3.43-4.235,3.43H7.945v3.85H9.7c2.2,0,4.445.875,4.445,3.465,0,1.89-1.61,3.325-4.27,3.325A5.394,5.394,0,0,1,4.725-7.245L1.3-5.25A8.715,8.715,0,0,0,9.87.42c4.76,0,8.47-2.8,8.47-7.245,0-4.69-3.6-5.6-3.6-5.6a6.169,6.169,0,0,0,3.01-5.145c0-4.515-3.43-7.35-7.91-7.35A8.37,8.37,0,0,0,2.03-19.74l3.64,1.715A4.49,4.49,0,0,1,9.835-21,3.435,3.435,0,0,1,13.51-17.57Z" transform="translate(1380 729)" fill="#151515"/>
      <path id="Path_171" data-name="Path 171" d="M20.553-15.5h8.925v9.435s-3.264,2.6-9.792,2.6c-7.752,0-13.158-6.783-13.158-14.382s5.406-14.382,13.158-14.382a13.63,13.63,0,0,1,10,3.978l3.06-3.009s-3.825-5.049-13.056-5.049c-10.3,0-17.748,8.16-17.748,18.462S9.384.612,19.686.612c9.282,0,14.025-4.692,14.025-4.692v-15.5H20.553ZM40.749,0h4.284V-38.556H40.749Zm9.843,10.659a8.7,8.7,0,0,0,5,1.683A6.927,6.927,0,0,0,62.118,7.6c.561-1.377,12.393-31.161,12.393-31.161H69.87L62.832-4.947,54.57-23.562H49.725L60.741.1,58.9,4.743c-.918,2.295-1.785,3.621-3.672,3.621A5.483,5.483,0,0,1,52.428,7.14ZM94.962-6.732a8.647,8.647,0,0,1-6.885,3.366c-4.743,0-7.854-3.774-7.854-8.415S83.334-20.2,88.077-20.2a8.708,8.708,0,0,1,6.477,2.856l2.907-2.6a12.628,12.628,0,0,0-9.384-4.233A12.1,12.1,0,0,0,75.939-11.781,12.065,12.065,0,0,0,88.077.612a12.707,12.707,0,0,0,9.639-4.539Zm17.085-17.442c-7.089,0-11.781,5.508-11.781,12.393A12.039,12.039,0,0,0,112.557.612a13.134,13.134,0,0,0,9.792-4.641l-2.7-2.8a9.1,9.1,0,0,1-7.089,3.468c-4.437,0-7.854-3.315-8.109-6.885h19.023a13.377,13.377,0,0,0,.051-1.377C123.522-19.227,118.626-24.174,112.047-24.174Zm-7.5,10.353a7.307,7.307,0,0,1,7.5-6.375,7.094,7.094,0,0,1,7.293,6.375Zm35.088-10.353a8.382,8.382,0,0,0-7.242,3.927v-3.315h-3.978V0H132.7V-16.218s2.04-3.978,5.865-3.978c3.162,0,5.661,1.734,5.661,5.763V0h4.284V-15.147A8.576,8.576,0,0,0,139.638-24.174Zm25.551,0c-7.089,0-11.781,5.508-11.781,12.393A12.039,12.039,0,0,0,165.7.612a13.134,13.134,0,0,0,9.792-4.641l-2.7-2.8A9.1,9.1,0,0,1,165.7-3.366c-4.437,0-7.854-3.315-8.109-6.885h19.023a13.379,13.379,0,0,0,.051-1.377C176.664-19.227,171.768-24.174,165.189-24.174Zm-7.5,10.353a7.307,7.307,0,0,1,7.5-6.375,7.094,7.094,0,0,1,7.293,6.375Z" transform="translate(337 293)" fill="#151515"/>
      <path id="Path_172" data-name="Path 172" d="M.408,0H5L8.721-9.639h15.4L27.846,0h4.488L18.411-35.7H14.433ZM16.422-29.58l6.12,15.861H10.3ZM36.924,0h4.284V-38.556H36.924ZM57.987-24.174a17.555,17.555,0,0,0-8.823,2.4l1.785,3.57A16.318,16.318,0,0,1,57.987-20.2c1.887,0,5.967.663,5.967,5.559v1.275A13.189,13.189,0,0,0,56.865-15.3c-5.3,0-9.333,3.264-9.333,7.854,0,5.1,4.539,8.058,8.772,8.058a9.958,9.958,0,0,0,8.007-4.029V0h3.927V-15.5C68.238-19.89,64.923-24.174,57.987-24.174ZM57.222-3.162c-2.652,0-5.406-1.224-5.406-4.284,0-2.448,2.3-4.284,5.967-4.284a11.288,11.288,0,0,1,6.171,1.683v3.315S61.4-3.162,57.222-3.162ZM85.986-24.174a8.382,8.382,0,0,0-7.242,3.927v-3.315H74.766V0H79.05V-16.218S81.09-20.2,84.915-20.2c3.162,0,5.661,1.734,5.661,5.763V0H94.86V-15.147A8.576,8.576,0,0,0,85.986-24.174ZM102.153,0h4.284V-23.562h-4.284Zm-.765-31.11a2.939,2.939,0,0,0,2.907,2.907A2.939,2.939,0,0,0,107.2-31.11a2.939,2.939,0,0,0-2.907-2.907A2.939,2.939,0,0,0,101.388-31.11Zm23.562,6.936a8.382,8.382,0,0,0-7.242,3.927v-3.315H113.73V0h4.284V-16.218s2.04-3.978,5.865-3.978c3.162,0,5.661,1.734,5.661,5.763V0h4.284V-15.147A8.576,8.576,0,0,0,124.95-24.174Zm25.551,0c-7.089,0-11.781,5.508-11.781,12.393A12.039,12.039,0,0,0,151.011.612,13.134,13.134,0,0,0,160.8-4.029l-2.7-2.8a9.1,9.1,0,0,1-7.089,3.468c-4.437,0-7.854-3.315-8.109-6.885h19.023a13.379,13.379,0,0,0,.051-1.377C161.976-19.227,157.08-24.174,150.5-24.174ZM143-13.821a7.307,7.307,0,0,1,7.5-6.375,7.094,7.094,0,0,1,7.293,6.375Z" transform="translate(1241 293)" fill="#151515"/>
    </g>
  </g>
</svg>
