<svg xmlns="http://www.w3.org/2000/svg" width="1920" height="271" viewBox="0 0 1920 271">
  <g id="Group_95" data-name="Group 95" transform="translate(0 -399)">
    <rect id="Rectangle_2" data-name="Rectangle 2" width="1920" height="271" transform="translate(0 399)" fill="#fafafa"/>
    <g id="Group_94" data-name="Group 94">
      <path id="Path_194" data-name="Path 194" d="M19.839-5.1C12.8-5.1,7.956-10.965,7.956-17.85S12.8-30.6,19.839-30.6a12.275,12.275,0,0,1,9.078,3.927L33.048-30.7a17.889,17.889,0,0,0-13.209-5.61c-10.3,0-18.105,7.905-18.105,18.462S9.537.612,19.839.612A18,18,0,0,0,33.558-5.457l-4.08-4.029A12.7,12.7,0,0,1,19.839-5.1Z" transform="translate(859.164 635)" fill="#151515"/>
      <path id="Path_196" data-name="Path 196" d="M19.788,7.312C9.384,7.312,1.734-.593,1.734-11.15s7.65-18.462,18.054-18.462,18.054,7.9,18.054,18.462S30.192,7.312,19.788,7.312Zm0-31.11C12.6-23.8,7.956-18.035,7.956-11.15S12.6,1.5,19.788,1.5,31.62-4.265,31.62-11.15,26.979-23.8,19.788-23.8Z" transform="translate(897.164 442) rotate(180)" fill="#151515"/>
      <line id="Line_62" data-name="Line 62" y1="100.663" transform="translate(882.832 483.934)" fill="none" stroke="#151515" stroke-width="7"/>
      <line id="Line_61" data-name="Line 61" y1="100.663" transform="translate(845.663 617.766) rotate(90)" fill="none" stroke="#151515" stroke-width="7"/>
      <line id="Line_63" data-name="Line 63" y1="100.663" transform="translate(870.832 483.934)" fill="none" stroke="#151515" stroke-width="7"/>
      <path id="Path_195" data-name="Path 195" d="M3.774-35.7V0h6.12V-24.531L27.744,0h5.508V-35.7h-6.12v24.582L9.282-35.7Z" transform="translate(1021.5 635)" fill="#151515"/>
      <path id="Path_197" data-name="Path 197" d="M25.143-7.835H9.894V6.7H3.774V-29h6.12v15.351H25.143V-29h6.12V6.7h-6.12Z" transform="translate(1057.742 442) rotate(180)" fill="#151515"/>
      <line id="Line_57" data-name="Line 57" y2="100.663" transform="translate(1172.663 617.766) rotate(90)" fill="none" stroke="#151515" stroke-width="7"/>
      <line id="Line_60" data-name="Line 60" y2="100.663" transform="translate(1039.831 584.597) rotate(180)" fill="none" stroke="#151515" stroke-width="7"/>
      <line id="Line_64" data-name="Line 64" y2="100.663" transform="translate(1006.663 617.766) rotate(90)" fill="none" stroke="#151515" stroke-width="7"/>
    </g>
  </g>
</svg>
