<svg xmlns="http://www.w3.org/2000/svg" xmlns:xlink="http://www.w3.org/1999/xlink" width="853" height="358" viewBox="0 0 853 358">
  <defs>
    <clipPath id="clip-path">
      <rect id="Rectangle_46" data-name="Rectangle 46" width="48" height="48" transform="translate(456 517)" fill="#4d4d4d" stroke="#4d4d4d" stroke-width="1"/>
    </clipPath>
    <clipPath id="clip-path-3">
      <rect id="Rectangle_46-2" data-name="Rectangle 46" width="48" height="48" transform="translate(456 517)" fill="#2196f3" stroke="#2196f3" stroke-width="1"/>
    </clipPath>
  </defs>
  <g id="Group_32" data-name="Group 32" transform="translate(-534 -361)">
    <rect id="Rectangle_45" data-name="Rectangle 45" width="853" height="358" transform="translate(534 361)" fill="#fafafa"/>
    <g id="Mask_Group_4" data-name="Mask Group 4" transform="translate(1589.39 1195.361) rotate(180)" clip-path="url(#clip-path)">
      <g id="baseline-arrow_back-24px_1_" data-name="baseline-arrow_back-24px (1)" transform="translate(456 517)">
        <path id="Path_8" data-name="Path 8" d="M0,0H48V48H0Z" fill="none"/>
        <path id="Path_9" data-name="Path 9" d="M39.833,21.833H15.493l11.18-11.18-2.84-2.82-16,16,16,16,2.82-2.82-11.16-11.18h24.34Z" transform="translate(0.167 0.167)" fill="#4d4d4d"/>
      </g>
    </g>
    <g id="Mask_Group_5" data-name="Mask Group 5" transform="translate(1664.346 -59.439) rotate(90)" clip-path="url(#clip-path)">
      <g id="baseline-arrow_back-24px_1_2" data-name="baseline-arrow_back-24px (1)" transform="translate(456 517)">
        <path id="Path_10" data-name="Path 10" d="M0,0H48V48H0Z" fill="none"/>
        <path id="Path_11" data-name="Path 11" d="M39.833,21.833H15.493l11.18-11.18-2.84-2.82-16,16,16,16,2.82-2.82-11.16-11.18h24.34Z" transform="translate(-2.833 0.167)" fill="#4d4d4d"/>
      </g>
    </g>
    <path id="Path_103" data-name="Path 103" d="M5.644-21.08H16.218V-23.8H2.788V0H5.644V-10.846h9.894v-2.72H5.644Z" transform="translate(1145.846 543.361)" fill="#4d4d4d"/>
    <path id="Path_100" data-name="Path 100" d="M5.644-21.08H16.218V-23.8H2.788V0H5.644V-10.846h9.894v-2.72H5.644Z" transform="translate(925.846 507.361)" fill="#4d4d4d"/>
    <path id="Path_101" data-name="Path 101" d="M5.644-21.08H16.218V-23.8H2.788V0H5.644V-10.846h9.894v-2.72H5.644Z" transform="translate(934.846 696.361)" fill="#4d4d4d"/>
    <path id="Path_104" data-name="Path 104" d="M.132-10.164,5.214.44l5.082-10.6H8.4L5.28-3.278,2.156-10.164Z" transform="translate(1161.846 547.361)" fill="#4d4d4d"/>
    <path id="Path_102" data-name="Path 102" d="M6.644-10.428a3.578,3.578,0,0,0-2.992,1.5v-7.7H1.8V0H3.652V-7a3.2,3.2,0,0,1,2.53-1.716A2.254,2.254,0,0,1,8.624-6.226V0h1.848V-6.534A3.7,3.7,0,0,0,6.644-10.428Z" transform="translate(949.846 702.361)" fill="#4d4d4d"/>
    <g id="Mask_Group_4-2" data-name="Mask Group 4" transform="matrix(-0.819, 0.574, -0.574, -0.819, 1813.726, 578.27)" clip-path="url(#clip-path-3)">
      <g id="baseline-arrow_back-24px_1_3" data-name="baseline-arrow_back-24px (1)" transform="translate(456 517)">
        <path id="Path_8-2" data-name="Path 8" d="M0,0H48V48H0Z" fill="none"/>
        <path id="Path_9-2" data-name="Path 9" d="M39.833,21.833H15.493l11.18-11.18-2.84-2.82-16,16,16,16,2.82-2.82-11.16-11.18h24.34Z" transform="translate(0.167 0.167)" fill="#2196f3"/>
      </g>
    </g>
    <path id="Path_14" data-name="Path 14" d="M232.955,851h0Z" transform="translate(528.891 -196.639)" fill="#4d4d4d" stroke="#4d4d4d" stroke-width="4"/>
    <path id="Path_15" data-name="Path 15" d="M662,621.023v0Z" transform="translate(461.346 -189.439)" fill="#4d4d4d" stroke="#4d4d4d" stroke-width="4"/>
    <line id="Line_24" data-name="Line 24" x2="351.47" transform="translate(761.85 654.36)" fill="none" stroke="#4d4d4d" stroke-width="4"/>
    <line id="Line_25" data-name="Line 25" y2="222.78" transform="translate(1123.35 431.58)" fill="none" stroke="#4d4d4d" stroke-width="4"/>
    <line id="Line_26" data-name="Line 26" x1="349.41" transform="matrix(-0.819, 0.574, -0.574, -0.819, 1046.99, 454.7)" fill="none" stroke="#2196f3" stroke-width="4"/>
    <line id="Line_27" data-name="Line 27" x1="349.41" transform="matrix(-0.819, 0.574, -0.574, -0.819, 1096.989, 419.7)" fill="none" stroke="#2196f3" stroke-width="4"/>
    <line id="Line_28" data-name="Line 28" x1="349.41" transform="matrix(-0.819, 0.574, -0.574, -0.819, 1119.989, 403.6)" fill="none" stroke="#2196f3" stroke-width="4"/>
  </g>
</svg>
