<svg xmlns="http://www.w3.org/2000/svg" xmlns:xlink="http://www.w3.org/1999/xlink" width="1277" height="245" viewBox="0 0 1277 245">
  <defs>
    <clipPath id="clip-path">
      <rect id="Rectangle_42" data-name="Rectangle 42" width="40.932" height="40.932" transform="translate(0)" fill="#4d4d4d" stroke="#707070" stroke-width="1"/>
    </clipPath>
    <clipPath id="clip-path-3">
      <rect id="Rectangle_44" data-name="Rectangle 44" width="40.932" height="40.932" fill="#4d4d4d" stroke="#707070" stroke-width="1"/>
    </clipPath>
  </defs>
  <g id="Group_28" data-name="Group 28" transform="translate(-322 -395)">
    <rect id="Rectangle_1" data-name="Rectangle 1" width="1277" height="245" transform="translate(322 395)" fill="#fafafa"/>
    <rect id="Rectangle_41" data-name="Rectangle 41" width="50" height="5" transform="translate(1214 513)" fill="#1565c0"/>
    <rect id="Rectangle_40" data-name="Rectangle 40" width="50" height="5" transform="translate(902 513)" fill="#1565c0"/>
    <rect id="Rectangle_39" data-name="Rectangle 39" width="50" height="5" transform="translate(587 513)" fill="#1565c0"/>
    <circle id="Ellipse_1" data-name="Ellipse 1" cx="12.5" cy="12.5" r="12.5" transform="translate(420 518)" fill="#1565c0"/>
    <circle id="Ellipse_2" data-name="Ellipse 2" cx="12.5" cy="12.5" r="12.5" transform="translate(547 518)" fill="#1565c0"/>
    <rect id="Rectangle_2" data-name="Rectangle 2" width="208" height="63" rx="16" transform="translate(389 467)" fill="#2196f3"/>
    <rect id="Rectangle_3" data-name="Rectangle 3" width="170" height="45" rx="16" transform="translate(408 460)" fill="#2196f3"/>
    <circle id="Ellipse_3" data-name="Ellipse 3" cx="12.5" cy="12.5" r="12.5" transform="translate(666 518)" fill="#1565c0"/>
    <circle id="Ellipse_4" data-name="Ellipse 4" cx="12.5" cy="12.5" r="12.5" transform="translate(851 518)" fill="#1565c0"/>
    <circle id="Ellipse_5" data-name="Ellipse 5" cx="12.5" cy="12.5" r="12.5" transform="translate(821 518)" fill="#1565c0"/>
    <circle id="Ellipse_6" data-name="Ellipse 6" cx="12.5" cy="12.5" r="12.5" transform="translate(697 518)" fill="#1565c0"/>
    <rect id="Rectangle_4" data-name="Rectangle 4" width="272.269" height="63" rx="16" transform="translate(635 467)" fill="#2196f3"/>
    <rect id="Rectangle_5" data-name="Rectangle 5" width="222.528" height="45" rx="16" transform="translate(659.871 460)" fill="#2196f3"/>
    <rect id="Rectangle_6" data-name="Rectangle 6" width="37" height="16" transform="translate(389 485)" fill="#1565c0"/>
    <path id="Rectangle_7" data-name="Rectangle 7" d="M0,0H15a7,7,0,0,1,7,7V7a7,7,0,0,1-7,7H0a0,0,0,0,1,0,0V0A0,0,0,0,1,0,0Z" transform="matrix(0.839, -0.545, 0.545, 0.839, 418.414, 489.282)" fill="#1565c0"/>
    <circle id="Ellipse_7" data-name="Ellipse 7" cx="12.5" cy="12.5" r="12.5" transform="translate(978 518)" fill="#1565c0"/>
    <circle id="Ellipse_8" data-name="Ellipse 8" cx="12.5" cy="12.5" r="12.5" transform="translate(1163 518)" fill="#1565c0"/>
    <circle id="Ellipse_9" data-name="Ellipse 9" cx="12.5" cy="12.5" r="12.5" transform="translate(1133 518)" fill="#1565c0"/>
    <circle id="Ellipse_10" data-name="Ellipse 10" cx="12.5" cy="12.5" r="12.5" transform="translate(1009 518)" fill="#1565c0"/>
    <rect id="Rectangle_8" data-name="Rectangle 8" width="272.269" height="63" rx="16" transform="translate(947 467)" fill="#2196f3"/>
    <rect id="Rectangle_9" data-name="Rectangle 9" width="222.528" height="45" rx="16" transform="translate(971.871 460)" fill="#2196f3"/>
    <circle id="Ellipse_11" data-name="Ellipse 11" cx="12.5" cy="12.5" r="12.5" transform="translate(1290 518)" fill="#1565c0"/>
    <circle id="Ellipse_12" data-name="Ellipse 12" cx="12.5" cy="12.5" r="12.5" transform="translate(1475 518)" fill="#1565c0"/>
    <circle id="Ellipse_13" data-name="Ellipse 13" cx="12.5" cy="12.5" r="12.5" transform="translate(1445 518)" fill="#1565c0"/>
    <circle id="Ellipse_14" data-name="Ellipse 14" cx="12.5" cy="12.5" r="12.5" transform="translate(1321 518)" fill="#1565c0"/>
    <rect id="Rectangle_10" data-name="Rectangle 10" width="272.269" height="63" rx="16" transform="translate(1259 467)" fill="#2196f3"/>
    <rect id="Rectangle_11" data-name="Rectangle 11" width="222.528" height="45" rx="16" transform="translate(1283.871 460)" fill="#2196f3"/>
    <path id="Rectangle_12" data-name="Rectangle 12" d="M0,0H14a4,4,0,0,1,4,4V14a4,4,0,0,1-4,4H0a0,0,0,0,1,0,0V0A0,0,0,0,1,0,0Z" transform="translate(635 485)" fill="#1565c0"/>
    <rect id="Rectangle_13" data-name="Rectangle 13" width="18" height="18" rx="4" transform="translate(661 485)" fill="#1565c0"/>
    <rect id="Rectangle_13-2" data-name="Rectangle 13" width="18" height="18" rx="4" transform="translate(723 485)" fill="#1565c0"/>
    <rect id="Rectangle_13-3" data-name="Rectangle 13" width="18" height="18" rx="4" transform="translate(749 485)" fill="#1565c0"/>
    <rect id="Rectangle_13-4" data-name="Rectangle 13" width="18" height="18" rx="4" transform="translate(775 485)" fill="#1565c0"/>
    <rect id="Rectangle_13-5" data-name="Rectangle 13" width="18" height="18" rx="4" transform="translate(801 485)" fill="#1565c0"/>
    <rect id="Rectangle_13-6" data-name="Rectangle 13" width="18" height="18" rx="4" transform="translate(863 485)" fill="#1565c0"/>
    <path id="Rectangle_13-7" data-name="Rectangle 13" d="M4,0H18a0,0,0,0,1,0,0V18a0,0,0,0,1,0,0H4a4,4,0,0,1-4-4V4A4,4,0,0,1,4,0Z" transform="translate(889 485)" fill="#1565c0"/>
    <rect id="Rectangle_14" data-name="Rectangle 14" width="28" height="36" rx="4" transform="translate(687 485)" fill="#1565c0"/>
    <rect id="Rectangle_15" data-name="Rectangle 15" width="28" height="36" rx="4" transform="translate(827 485)" fill="#1565c0"/>
    <rect id="Rectangle_16" data-name="Rectangle 16" width="18" height="18" rx="4" transform="translate(452 484)" fill="#1565c0"/>
    <rect id="Rectangle_17" data-name="Rectangle 17" width="18" height="18" rx="4" transform="translate(478 484)" fill="#1565c0"/>
    <rect id="Rectangle_18" data-name="Rectangle 18" width="18" height="18" rx="4" transform="translate(504 484)" fill="#1565c0"/>
    <path id="Rectangle_19" data-name="Rectangle 19" d="M0,0H14a4,4,0,0,1,4,4V14a4,4,0,0,1-4,4H0a0,0,0,0,1,0,0V0A0,0,0,0,1,0,0Z" transform="translate(947 485)" fill="#1565c0"/>
    <rect id="Rectangle_20" data-name="Rectangle 20" width="18" height="18" rx="4" transform="translate(973 485)" fill="#1565c0"/>
    <rect id="Rectangle_21" data-name="Rectangle 21" width="18" height="18" rx="4" transform="translate(1035 485)" fill="#1565c0"/>
    <rect id="Rectangle_22" data-name="Rectangle 22" width="18" height="18" rx="4" transform="translate(1061 485)" fill="#1565c0"/>
    <rect id="Rectangle_23" data-name="Rectangle 23" width="18" height="18" rx="4" transform="translate(1087 485)" fill="#1565c0"/>
    <rect id="Rectangle_24" data-name="Rectangle 24" width="18" height="18" rx="4" transform="translate(1113 485)" fill="#1565c0"/>
    <rect id="Rectangle_25" data-name="Rectangle 25" width="18" height="18" rx="4" transform="translate(1175 485)" fill="#1565c0"/>
    <path id="Rectangle_26" data-name="Rectangle 26" d="M4,0H18a0,0,0,0,1,0,0V18a0,0,0,0,1,0,0H4a4,4,0,0,1-4-4V4A4,4,0,0,1,4,0Z" transform="translate(1201 485)" fill="#1565c0"/>
    <rect id="Rectangle_27" data-name="Rectangle 27" width="28" height="36" rx="4" transform="translate(999 485)" fill="#1565c0"/>
    <rect id="Rectangle_28" data-name="Rectangle 28" width="28" height="36" rx="4" transform="translate(1139 485)" fill="#1565c0"/>
    <path id="Rectangle_29" data-name="Rectangle 29" d="M0,0H14a4,4,0,0,1,4,4V14a4,4,0,0,1-4,4H0a0,0,0,0,1,0,0V0A0,0,0,0,1,0,0Z" transform="translate(1259 485)" fill="#1565c0"/>
    <rect id="Rectangle_30" data-name="Rectangle 30" width="18" height="18" rx="4" transform="translate(1285 485)" fill="#1565c0"/>
    <rect id="Rectangle_31" data-name="Rectangle 31" width="18" height="18" rx="4" transform="translate(1347 485)" fill="#1565c0"/>
    <rect id="Rectangle_32" data-name="Rectangle 32" width="18" height="18" rx="4" transform="translate(1373 485)" fill="#1565c0"/>
    <rect id="Rectangle_33" data-name="Rectangle 33" width="18" height="18" rx="4" transform="translate(1399 485)" fill="#1565c0"/>
    <rect id="Rectangle_34" data-name="Rectangle 34" width="18" height="18" rx="4" transform="translate(1425 485)" fill="#1565c0"/>
    <rect id="Rectangle_35" data-name="Rectangle 35" width="18" height="18" rx="4" transform="translate(1487 485)" fill="#1565c0"/>
    <path id="Rectangle_36" data-name="Rectangle 36" d="M4,0H18a0,0,0,0,1,0,0V18a0,0,0,0,1,0,0H4a4,4,0,0,1-4-4V4A4,4,0,0,1,4,0Z" transform="translate(1513 485)" fill="#1565c0"/>
    <rect id="Rectangle_37" data-name="Rectangle 37" width="28" height="36" rx="4" transform="translate(1311 485)" fill="#1565c0"/>
    <rect id="Rectangle_38" data-name="Rectangle 38" width="28" height="36" rx="4" transform="translate(1451 485)" fill="#1565c0"/>
    <g id="Mask_Group_1" data-name="Mask Group 1" transform="translate(550 579)" clip-path="url(#clip-path)">
      <g id="baseline-arrow_back-24px_1_" data-name="baseline-arrow_back-24px (1)" transform="translate(0)">
        <path id="Path_1" data-name="Path 1" d="M0,0H40.932V40.932H0Z" fill="none"/>
        <path id="Path_2" data-name="Path 2" d="M35.122,19.772H14.365L23.9,10.238l-2.422-2.4L7.833,21.477,21.477,35.122l2.4-2.4-9.517-9.534H35.122Z" transform="translate(-1.011 -1.011)" fill="#4d4d4d"/>
      </g>
    </g>
    <path id="Path_83" data-name="Path 83" d="M7.1,0H9.867V-20.46H16.5V-23.1H.462v2.64H7.1ZM23.463-15.642c-4.587,0-7.623,3.564-7.623,8.019A7.79,7.79,0,0,0,23.793.4a8.5,8.5,0,0,0,6.336-3L28.38-4.422a5.888,5.888,0,0,1-4.587,2.244,5.142,5.142,0,0,1-5.247-4.455H30.855a8.656,8.656,0,0,0,.033-.891C30.888-12.441,27.72-15.642,23.463-15.642Zm-4.851,6.7a4.728,4.728,0,0,1,4.851-4.125,4.59,4.59,0,0,1,4.719,4.125Zm22.7-6.7A5.423,5.423,0,0,0,36.63-13.1v-2.145H34.056V0h2.772V-10.494s1.32-2.574,3.8-2.574a3.381,3.381,0,0,1,3.663,3.729V0h2.772V-9.8A5.549,5.549,0,0,0,41.316-15.642ZM50.292-2.805A8.355,8.355,0,0,0,56.826.4c2.937,0,6.039-1.518,6.039-4.455,0-3.1-2.475-4.191-5.379-4.818-2.508-.528-3.7-1.155-3.7-2.31,0-.99.957-1.947,2.9-1.947a5.6,5.6,0,0,1,3.828,1.683l1.815-1.881a7.924,7.924,0,0,0-5.643-2.31c-3.4,0-5.61,2.178-5.61,4.389,0,2.871,2.31,4.158,5.577,4.818,2.343.462,3.465,1.122,3.465,2.442,0,1.221-1.749,1.881-3.3,1.881a5.881,5.881,0,0,1-4.62-2.475ZM66.792,0h2.772V-15.246H66.792Zm-.5-20.13a1.9,1.9,0,0,0,1.881,1.881,1.9,1.9,0,0,0,1.881-1.881,1.9,1.9,0,0,0-1.881-1.881A1.9,1.9,0,0,0,66.3-20.13Zm14.784,4.488a7.807,7.807,0,0,0-7.854,8.019A7.807,7.807,0,0,0,81.081.4a7.807,7.807,0,0,0,7.854-8.019A7.807,7.807,0,0,0,81.081-15.642Zm0,13.464C78.012-2.178,76-4.62,76-7.623s2.013-5.445,5.082-5.445,5.082,2.442,5.082,5.445S84.15-2.178,81.081-2.178ZM99.363-15.642A5.423,5.423,0,0,0,94.677-13.1v-2.145H92.1V0h2.772V-10.494s1.32-2.574,3.795-2.574a3.381,3.381,0,0,1,3.663,3.729V0H105.1V-9.8A5.549,5.549,0,0,0,99.363-15.642Z" transform="translate(593.491 611.396)" fill="#4d4d4d"/>
    <g id="Mask_Group_2" data-name="Mask Group 2" transform="translate(871.253 579)" clip-path="url(#clip-path)">
      <g id="baseline-arrow_back-24px_1_2" data-name="baseline-arrow_back-24px (1)" transform="translate(0)">
        <path id="Path_3" data-name="Path 3" d="M0,0H40.932V40.932H0Z" fill="none"/>
        <path id="Path_4" data-name="Path 4" d="M35.122,19.772H14.365L23.9,10.238l-2.422-2.4L7.833,21.477,21.477,35.122l2.4-2.4-9.517-9.534H35.122Z" transform="translate(-1.011 -1.011)" fill="#4d4d4d"/>
      </g>
    </g>
    <path id="Path_84" data-name="Path 84" d="M7.1,0H9.867V-20.46H16.5V-23.1H.462v2.64H7.1ZM23.463-15.642c-4.587,0-7.623,3.564-7.623,8.019A7.79,7.79,0,0,0,23.793.4a8.5,8.5,0,0,0,6.336-3L28.38-4.422a5.888,5.888,0,0,1-4.587,2.244,5.142,5.142,0,0,1-5.247-4.455H30.855a8.656,8.656,0,0,0,.033-.891C30.888-12.441,27.72-15.642,23.463-15.642Zm-4.851,6.7a4.728,4.728,0,0,1,4.851-4.125,4.59,4.59,0,0,1,4.719,4.125Zm22.7-6.7A5.423,5.423,0,0,0,36.63-13.1v-2.145H34.056V0h2.772V-10.494s1.32-2.574,3.8-2.574a3.381,3.381,0,0,1,3.663,3.729V0h2.772V-9.8A5.549,5.549,0,0,0,41.316-15.642ZM50.292-2.805A8.355,8.355,0,0,0,56.826.4c2.937,0,6.039-1.518,6.039-4.455,0-3.1-2.475-4.191-5.379-4.818-2.508-.528-3.7-1.155-3.7-2.31,0-.99.957-1.947,2.9-1.947a5.6,5.6,0,0,1,3.828,1.683l1.815-1.881a7.924,7.924,0,0,0-5.643-2.31c-3.4,0-5.61,2.178-5.61,4.389,0,2.871,2.31,4.158,5.577,4.818,2.343.462,3.465,1.122,3.465,2.442,0,1.221-1.749,1.881-3.3,1.881a5.881,5.881,0,0,1-4.62-2.475ZM66.792,0h2.772V-15.246H66.792Zm-.5-20.13a1.9,1.9,0,0,0,1.881,1.881,1.9,1.9,0,0,0,1.881-1.881,1.9,1.9,0,0,0-1.881-1.881A1.9,1.9,0,0,0,66.3-20.13Zm14.784,4.488a7.807,7.807,0,0,0-7.854,8.019A7.807,7.807,0,0,0,81.081.4a7.807,7.807,0,0,0,7.854-8.019A7.807,7.807,0,0,0,81.081-15.642Zm0,13.464C78.012-2.178,76-4.62,76-7.623s2.013-5.445,5.082-5.445,5.082,2.442,5.082,5.445S84.15-2.178,81.081-2.178ZM99.363-15.642A5.423,5.423,0,0,0,94.677-13.1v-2.145H92.1V0h2.772V-10.494s1.32-2.574,3.795-2.574a3.381,3.381,0,0,1,3.663,3.729V0H105.1V-9.8A5.549,5.549,0,0,0,99.363-15.642Z" transform="translate(914.744 611.396)" fill="#4d4d4d"/>
    <g id="Mask_Group_3" data-name="Mask Group 3" transform="translate(1177.46 579)" clip-path="url(#clip-path-3)">
      <g id="baseline-arrow_back-24px_1_3" data-name="baseline-arrow_back-24px (1)">
        <path id="Path_5" data-name="Path 5" d="M0,0H40.932V40.932H0Z" fill="none"/>
        <path id="Path_6" data-name="Path 6" d="M35.122,19.772H14.365L23.9,10.238l-2.422-2.4L7.833,21.477,21.477,35.122l2.4-2.4-9.517-9.534H35.122Z" transform="translate(-1.011 -1.011)" fill="#4d4d4d"/>
      </g>
    </g>
    <path id="Path_85" data-name="Path 85" d="M7.1,0H9.867V-20.46H16.5V-23.1H.462v2.64H7.1ZM23.463-15.642c-4.587,0-7.623,3.564-7.623,8.019A7.79,7.79,0,0,0,23.793.4a8.5,8.5,0,0,0,6.336-3L28.38-4.422a5.888,5.888,0,0,1-4.587,2.244,5.142,5.142,0,0,1-5.247-4.455H30.855a8.656,8.656,0,0,0,.033-.891C30.888-12.441,27.72-15.642,23.463-15.642Zm-4.851,6.7a4.728,4.728,0,0,1,4.851-4.125,4.59,4.59,0,0,1,4.719,4.125Zm22.7-6.7A5.423,5.423,0,0,0,36.63-13.1v-2.145H34.056V0h2.772V-10.494s1.32-2.574,3.8-2.574a3.381,3.381,0,0,1,3.663,3.729V0h2.772V-9.8A5.549,5.549,0,0,0,41.316-15.642ZM50.292-2.805A8.355,8.355,0,0,0,56.826.4c2.937,0,6.039-1.518,6.039-4.455,0-3.1-2.475-4.191-5.379-4.818-2.508-.528-3.7-1.155-3.7-2.31,0-.99.957-1.947,2.9-1.947a5.6,5.6,0,0,1,3.828,1.683l1.815-1.881a7.924,7.924,0,0,0-5.643-2.31c-3.4,0-5.61,2.178-5.61,4.389,0,2.871,2.31,4.158,5.577,4.818,2.343.462,3.465,1.122,3.465,2.442,0,1.221-1.749,1.881-3.3,1.881a5.881,5.881,0,0,1-4.62-2.475ZM66.792,0h2.772V-15.246H66.792Zm-.5-20.13a1.9,1.9,0,0,0,1.881,1.881,1.9,1.9,0,0,0,1.881-1.881,1.9,1.9,0,0,0-1.881-1.881A1.9,1.9,0,0,0,66.3-20.13Zm14.784,4.488a7.807,7.807,0,0,0-7.854,8.019A7.807,7.807,0,0,0,81.081.4a7.807,7.807,0,0,0,7.854-8.019A7.807,7.807,0,0,0,81.081-15.642Zm0,13.464C78.012-2.178,76-4.62,76-7.623s2.013-5.445,5.082-5.445,5.082,2.442,5.082,5.445S84.15-2.178,81.081-2.178ZM99.363-15.642A5.423,5.423,0,0,0,94.677-13.1v-2.145H92.1V0h2.772V-10.494s1.32-2.574,3.795-2.574a3.381,3.381,0,0,1,3.663,3.729V0H105.1V-9.8A5.549,5.549,0,0,0,99.363-15.642Z" transform="translate(1220.951 611.396)" fill="#4d4d4d"/>
  </g>
</svg>
