<svg xmlns="http://www.w3.org/2000/svg" width="1112" height="576" viewBox="0 0 1112 576">
  <g id="Group_29" data-name="Group 29" transform="translate(-404 -257)">
    <rect id="Rectangle_51" data-name="Rectangle 51" width="1112" height="576" transform="translate(404 257)" fill="#fafafa"/>
    <line id="Line_1" data-name="Line 1" x1="212" transform="translate(666.5 427.5)" fill="none" stroke="#707070" stroke-width="4"/>
    <path id="Path_30" data-name="Path 30" d="M2326.527,594.079l206.159-333.84L2727.5,594.079h-400.97Z" transform="translate(-1654 172)" fill="none" stroke="#2196f3" stroke-width="8"/>
    <path id="Path_31" data-name="Path 31" d="M2334.038,592.527l-7.344,12.418,400.261-1.733-6.568-10.37Z" transform="translate(-1654 169)" fill="#fafafa"/>
    <path id="Path_27" data-name="Path 27" d="M1140.092,887.168l395.513-.1V871.816L1567.69,889.1,1535.6,903.583V890.553l-395.513-.376Z" transform="translate(-221.659 1910.369) rotate(-90)" fill="#4d4d4d" stroke="#4d4d4d" stroke-width="1"/>
    <path id="Path_87" data-name="Path 87" d="M6.88,0H9.568V-19.84H16V-22.4H.448v2.56H6.88Zm12.1,0h2.688V-14.784H18.976ZM18.5-19.52A1.844,1.844,0,0,0,20.32-17.7a1.844,1.844,0,0,0,1.824-1.824,1.844,1.844,0,0,0-1.824-1.824A1.844,1.844,0,0,0,18.5-19.52Zm23.36,4.352a4.884,4.884,0,0,0-4.416,2.752,4.606,4.606,0,0,0-4.608-2.752,4.514,4.514,0,0,0-4.1,2.56v-2.176h-2.5V0h2.688V-10.3s.992-2.368,3.168-2.368c1.92,0,3.168,1.184,3.168,3.584V0h2.688V-10.3s.96-2.368,3.168-2.368c1.92,0,3.168,1.184,3.168,3.584V0h2.688V-9.5C46.976-13.152,44.928-15.168,41.856-15.168Zm15.584,0c-4.448,0-7.392,3.456-7.392,7.776A7.554,7.554,0,0,0,57.76.384,8.241,8.241,0,0,0,63.9-2.528l-1.7-1.76A5.709,5.709,0,0,1,57.76-2.112a4.986,4.986,0,0,1-5.088-4.32H64.608A8.4,8.4,0,0,0,64.64-7.3C64.64-12.064,61.568-15.168,57.44-15.168Zm-4.7,6.5a4.585,4.585,0,0,1,4.7-4,4.451,4.451,0,0,1,4.576,4ZM83.584,3.68C80.832-.544,79.232-3.872,79.232-9.44s1.6-8.9,4.352-13.12l-1.952-1.376c-3.072,4.64-4.9,8.544-4.9,14.5s1.824,9.856,4.9,14.5Zm18.56-18.848a4.884,4.884,0,0,0-4.416,2.752,4.606,4.606,0,0,0-4.608-2.752,4.514,4.514,0,0,0-4.1,2.56v-2.176h-2.5V0h2.688V-10.3s.992-2.368,3.168-2.368c1.92,0,3.168,1.184,3.168,3.584V0H98.24V-10.3s.96-2.368,3.168-2.368c1.92,0,3.168,1.184,3.168,3.584V0h2.688V-9.5C107.264-13.152,105.216-15.168,102.144-15.168ZM110.4-2.72a8.1,8.1,0,0,0,6.336,3.1c2.848,0,5.856-1.472,5.856-4.32,0-3.008-2.4-4.064-5.216-4.672-2.432-.512-3.584-1.12-3.584-2.24,0-.96.928-1.888,2.816-1.888A5.429,5.429,0,0,1,120.32-11.1l1.76-1.824a7.684,7.684,0,0,0-5.472-2.24c-3.3,0-5.44,2.112-5.44,4.256,0,2.784,2.24,4.032,5.408,4.672,2.272.448,3.36,1.088,3.36,2.368,0,1.184-1.7,1.824-3.2,1.824a5.7,5.7,0,0,1-4.48-2.4Zm16.32,7.776c3.072-4.64,4.9-8.544,4.9-14.5s-1.824-9.856-4.9-14.5l-1.952,1.376c2.752,4.224,4.352,7.552,4.352,13.12s-1.6,8.9-4.352,13.12Z" transform="translate(1173 779)" fill="#4d4d4d"/>
    <path id="Path_86" data-name="Path 86" d="M5.312-19.84h9.952V-22.4H2.624V0H5.312V-10.208h9.312v-2.56H5.312ZM24.64-15.168a7.57,7.57,0,0,0-7.616,7.776A7.57,7.57,0,0,0,24.64.384a7.57,7.57,0,0,0,7.616-7.776A7.57,7.57,0,0,0,24.64-15.168Zm0,13.056a4.957,4.957,0,0,1-4.928-5.28,4.957,4.957,0,0,1,4.928-5.28,4.957,4.957,0,0,1,4.928,5.28A4.957,4.957,0,0,1,24.64-2.112ZM41.952-15.168a4.947,4.947,0,0,0-4.128,2.656v-2.272h-2.5V0h2.688V-10.176s1.056-2.5,3.392-2.5a3.75,3.75,0,0,1,1.7.32l.992-2.432A6.18,6.18,0,0,0,41.952-15.168ZM56.608-4.224a5.426,5.426,0,0,1-4.32,2.112,4.957,4.957,0,0,1-4.928-5.28,4.957,4.957,0,0,1,4.928-5.28,5.464,5.464,0,0,1,4.064,1.792l1.824-1.632a7.924,7.924,0,0,0-5.888-2.656,7.59,7.59,0,0,0-7.616,7.776A7.57,7.57,0,0,0,52.288.384a7.973,7.973,0,0,0,6.048-2.848Zm10.72-10.944c-4.448,0-7.392,3.456-7.392,7.776A7.554,7.554,0,0,0,67.648.384a8.241,8.241,0,0,0,6.144-2.912l-1.7-1.76a5.709,5.709,0,0,1-4.448,2.176,4.986,4.986,0,0,1-5.088-4.32H74.5a8.4,8.4,0,0,0,.032-.864C74.528-12.064,71.456-15.168,67.328-15.168Zm-4.7,6.5a4.585,4.585,0,0,1,4.7-4,4.451,4.451,0,0,1,4.576,4ZM93.472,3.68C90.72-.544,89.12-3.872,89.12-9.44s1.6-8.9,4.352-13.12L91.52-23.936c-3.072,4.64-4.9,8.544-4.9,14.5s1.824,9.856,4.9,14.5Zm3.52-26.08V0H99.68V-17.92L111.68,0h2.784V-22.4h-2.688V-4.48l-12-17.92ZM119.936,5.056c3.072-4.64,4.9-8.544,4.9-14.5s-1.824-9.856-4.9-14.5l-1.952,1.376c2.752,4.224,4.352,7.552,4.352,13.12s-1.6,8.9-4.352,13.12Z" transform="translate(614 319)" fill="#4d4d4d"/>
    <line id="Line_2" data-name="Line 2" x2="14" transform="translate(681.5 427.5)" fill="none" stroke="#fafafa" stroke-width="5"/>
    <line id="Line_2-2" data-name="Line 2" x2="14" transform="translate(715.5 427.5)" fill="none" stroke="#fafafa" stroke-width="5"/>
    <line id="Line_2-3" data-name="Line 2" x2="14" transform="translate(749.5 427.5)" fill="none" stroke="#fafafa" stroke-width="5"/>
    <line id="Line_2-4" data-name="Line 2" x2="14" transform="translate(783.5 427.5)" fill="none" stroke="#fafafa" stroke-width="5"/>
    <line id="Line_2-5" data-name="Line 2" x2="14" transform="translate(817.5 427.5)" fill="none" stroke="#fafafa" stroke-width="5"/>
    <line id="Line_2-6" data-name="Line 2" x2="14" transform="translate(851.5 427.5)" fill="none" stroke="#fafafa" stroke-width="5"/>
    <path id="Path_28" data-name="Path 28" d="M1140.092,889.258l449.347-.11V871.816l36.452,19.638-36.452,16.453V893.1l-449.347-.428Z" transform="translate(-474.051 -121.816)" fill="#4d4d4d"/>
  </g>
</svg>
