<svg xmlns="http://www.w3.org/2000/svg" width="196.287" height="164.881" viewBox="0 0 196.287 164.881">
  <g id="hierarchy-ry59iMAz4" transform="translate(-19.09 -21.635)">
    <g id="Group_92" data-name="Group 92" transform="translate(19.09 21.636)">
      <path id="Path_235" data-name="Path 235" d="M192.361,109.921H172.733V82.441a3.925,3.925,0,0,0-3.926-3.926H102.069V54.96H121.7a3.925,3.925,0,0,0,3.926-3.926V3.926A3.925,3.925,0,0,0,121.7,0H74.589a3.927,3.927,0,0,0-3.926,3.926V51.035a3.927,3.927,0,0,0,3.926,3.926H94.218V78.515H27.48a3.927,3.927,0,0,0-3.926,3.926v27.48H3.926A3.925,3.925,0,0,0,0,113.847v47.109a3.925,3.925,0,0,0,3.926,3.926H51.035a3.925,3.925,0,0,0,3.926-3.926V113.847a3.925,3.925,0,0,0-3.926-3.926H31.406V86.366H94.218v23.554H74.589a3.925,3.925,0,0,0-3.926,3.926v47.109a3.925,3.925,0,0,0,3.926,3.926H121.7a3.922,3.922,0,0,0,3.926-3.926V113.847a3.922,3.922,0,0,0-3.926-3.926H102.069V86.366h62.812v23.554H145.253a3.922,3.922,0,0,0-3.926,3.926v47.109a3.922,3.922,0,0,0,3.926,3.926h47.109a3.922,3.922,0,0,0,3.926-3.926V113.847a3.922,3.922,0,0,0-3.926-3.926Z" fill="#fff" fill-rule="evenodd"/>
    </g>
  </g>
</svg>
