<svg xmlns="http://www.w3.org/2000/svg" width="164.906" height="164.906" viewBox="0 0 164.906 164.906">
  <g id="maths-ry_hGdcG4" transform="translate(-28.46 -28.46)">
    <g id="Group_87" data-name="Group 87" transform="translate(28.46 28.46)">
      <path id="Path_229" data-name="Path 229" d="M160.509,0h-17.59a4.729,4.729,0,0,0-4.4,4.4V25.835H87.95A15.4,15.4,0,0,0,72.559,13.742,15.979,15.979,0,0,0,57.168,25.835H25.835V4.4a4.336,4.336,0,0,0-4.4-4.4H4.4A4.729,4.729,0,0,0,0,4.4V160.509a4.729,4.729,0,0,0,4.4,4.4h17.59a4.729,4.729,0,0,0,4.4-4.4V139.071H84.652a14.876,14.876,0,0,0,14.292,9.894,15.654,15.654,0,0,0,14.292-9.894h25.286v21.438a4.729,4.729,0,0,0,4.4,4.4h17.59a4.729,4.729,0,0,0,4.4-4.4V4.4a4.729,4.729,0,0,0-4.4-4.4ZM88.5,95.646A15.4,15.4,0,0,0,73.108,83.553,15.979,15.979,0,0,0,57.717,95.646H25.835V69.81H84.1A14.876,14.876,0,0,0,98.394,79.7a15.654,15.654,0,0,0,14.292-9.894h25.286V95.646Zm-19.239,0h-2.2A6.759,6.759,0,0,1,73.108,91.8a6.684,6.684,0,0,1,6.6,6.6c0,3.848-3.3,7.146-6.6,7.146a4.99,4.99,0,0,1-3.848-1.649h.55a4.729,4.729,0,0,0,4.4-4.4,4.815,4.815,0,0,0-4.947-3.848Zm26.385-34.63h-2.2a6.759,6.759,0,0,1,6.047-3.848c3.848,0,7.146,3.3,7.146,6.6a7.276,7.276,0,0,1-7.146,7.146,4.99,4.99,0,0,1-3.848-1.649h.55a4.729,4.729,0,0,0,4.4-4.4,5.28,5.28,0,0,0-4.947-3.848ZM73.108,22.537a6.684,6.684,0,0,1,6.6,6.6c0,3.848-3.3,7.146-6.6,7.146a4.99,4.99,0,0,1-3.848-1.649h.55a4.729,4.729,0,0,0,4.4-4.4,4.729,4.729,0,0,0-4.4-4.4h-2.2c.55-1.649,2.748-3.3,5.5-3.3ZM58.267,34.63a14.876,14.876,0,0,0,14.292,9.894A15.654,15.654,0,0,0,86.851,34.63h51.121V60.466H113.236A15.4,15.4,0,0,0,97.844,48.373,15.979,15.979,0,0,0,82.453,60.466H25.835V34.63ZM98.944,140.17a4.99,4.99,0,0,1-3.848-1.649h.55a4.4,4.4,0,0,0,0-8.8h-2.2a6.759,6.759,0,0,1,6.047-3.848c3.848,0,7.146,3.3,7.146,6.6-.55,4.947-3.848,7.7-7.7,7.7Zm15.391-9.894a15.4,15.4,0,0,0-15.391-12.093,15.979,15.979,0,0,0-15.391,12.093H25.835V104.441H58.267a14.876,14.876,0,0,0,14.292,9.894,15.654,15.654,0,0,0,14.292-9.894h51.121v25.835Z" fill="#fff" fill-rule="evenodd"/>
    </g>
  </g>
</svg>
