<svg xmlns="http://www.w3.org/2000/svg" width="164.409" height="164.409" viewBox="0 0 164.409 164.409">
  <g id="business-B1vknIsMV" transform="translate(-17.818 -17.818)">
    <g id="Group_91" data-name="Group 91" transform="translate(17.818 17.818)">
      <path id="Path_234" data-name="Path 234" d="M161.364,60.892H115.7V3.045A3.044,3.044,0,0,0,112.65,0H51.758a3.046,3.046,0,0,0-3.045,3.045V36.535H3.045A3.046,3.046,0,0,0,0,39.58V161.364a3.044,3.044,0,0,0,3.045,3.045h158.32a3.042,3.042,0,0,0,3.045-3.045V63.937a3.044,3.044,0,0,0-3.045-3.045Zm-143.1,88.294a3.045,3.045,0,0,1-6.089,0V143.1a3.045,3.045,0,0,1,6.089,0v6.089Zm0-18.268a3.045,3.045,0,0,1-6.089,0v-6.089a3.045,3.045,0,1,1,6.089,0v6.089Zm0-15.223a3.045,3.045,0,1,1-6.089,0v-6.089a3.045,3.045,0,0,1,6.089,0V115.7Zm0-18.268a3.045,3.045,0,0,1-6.089,0V91.338a3.045,3.045,0,1,1,6.089,0v6.089Zm0-18.268a3.045,3.045,0,1,1-6.089,0V73.071a3.045,3.045,0,0,1,6.089,0V79.16Zm0-18.268a3.045,3.045,0,0,1-6.089,0V54.8a3.045,3.045,0,1,1,6.089,0v6.089Zm12.178,88.294a3.045,3.045,0,0,1-6.089,0V143.1a3.045,3.045,0,0,1,6.089,0v6.089Zm0-18.268a3.045,3.045,0,0,1-6.089,0v-6.089a3.045,3.045,0,1,1,6.089,0v6.089Zm0-15.223a3.045,3.045,0,1,1-6.089,0v-6.089a3.045,3.045,0,0,1,6.089,0V115.7Zm0-18.268a3.045,3.045,0,0,1-6.089,0V91.338a3.045,3.045,0,1,1,6.089,0v6.089Zm0-18.268a3.045,3.045,0,1,1-6.089,0V73.071a3.045,3.045,0,0,1,6.089,0V79.16Zm0-18.268a3.045,3.045,0,0,1-6.089,0V54.8a3.045,3.045,0,1,1,6.089,0v6.089Zm12.178,88.294a3.045,3.045,0,0,1-6.089,0V143.1a3.045,3.045,0,0,1,6.089,0v6.089Zm0-18.268a3.045,3.045,0,0,1-6.089,0v-6.089a3.045,3.045,0,1,1,6.089,0v6.089Zm0-15.223a3.045,3.045,0,1,1-6.089,0v-6.089a3.045,3.045,0,0,1,6.089,0V115.7Zm0-18.268a3.045,3.045,0,0,1-6.089,0V91.338a3.045,3.045,0,1,1,6.089,0v6.089Zm0-18.268a3.045,3.045,0,1,1-6.089,0V73.071a3.045,3.045,0,0,1,6.089,0V79.16Zm0-18.268a3.045,3.045,0,0,1-6.089,0V54.8a3.045,3.045,0,1,1,6.089,0v6.089Zm24.357,88.294a3.045,3.045,0,0,1-6.089,0V143.1a3.045,3.045,0,0,1,6.089,0v6.089Zm0-18.268a3.045,3.045,0,0,1-6.089,0v-6.089a3.045,3.045,0,1,1,6.089,0v6.089Zm0-18.268a3.045,3.045,0,1,1-6.089,0v-6.089a3.045,3.045,0,1,1,6.089,0v6.089Zm0-18.268a3.045,3.045,0,1,1-6.089,0V88.294a3.045,3.045,0,1,1,6.089,0v6.089Zm0-18.268a3.045,3.045,0,1,1-6.089,0V70.026a3.045,3.045,0,1,1,6.089,0v6.089Zm0-18.268a3.045,3.045,0,1,1-6.089,0V51.758a3.045,3.045,0,1,1,6.089,0v6.089Zm0-18.268a3.045,3.045,0,0,1-6.089,0V33.491a3.045,3.045,0,1,1,6.089,0V39.58Zm0-18.268a3.045,3.045,0,1,1-6.089,0V15.223a3.045,3.045,0,1,1,6.089,0v6.089ZM79.16,149.186a3.045,3.045,0,0,1-6.089,0V143.1a3.045,3.045,0,0,1,6.089,0v6.089Zm0-18.268a3.045,3.045,0,0,1-6.089,0v-6.089a3.045,3.045,0,0,1,6.089,0v6.089Zm0-18.268a3.045,3.045,0,0,1-6.089,0v-6.089a3.045,3.045,0,0,1,6.089,0v6.089Zm0-18.268a3.045,3.045,0,1,1-6.089,0V88.294a3.045,3.045,0,1,1,6.089,0v6.089Zm0-18.268a3.045,3.045,0,1,1-6.089,0V70.026a3.045,3.045,0,1,1,6.089,0v6.089Zm0-18.268a3.045,3.045,0,1,1-6.089,0V51.758a3.045,3.045,0,0,1,6.089,0v6.089Zm0-18.268a3.045,3.045,0,0,1-6.089,0V33.491a3.045,3.045,0,0,1,6.089,0V39.58Zm0-18.268a3.045,3.045,0,0,1-6.089,0V15.223a3.045,3.045,0,0,1,6.089,0v6.089ZM91.338,149.186a3.045,3.045,0,0,1-6.089,0V143.1a3.045,3.045,0,0,1,6.089,0v6.089Zm0-18.268a3.045,3.045,0,0,1-6.089,0v-6.089a3.045,3.045,0,0,1,6.089,0v6.089Zm0-18.268a3.045,3.045,0,0,1-6.089,0v-6.089a3.045,3.045,0,0,1,6.089,0v6.089Zm0-18.268a3.045,3.045,0,1,1-6.089,0V88.294a3.045,3.045,0,0,1,6.089,0v6.089Zm0-18.268a3.045,3.045,0,0,1-6.089,0V70.026a3.045,3.045,0,1,1,6.089,0v6.089Zm0-18.268a3.045,3.045,0,0,1-6.089,0V51.758a3.045,3.045,0,0,1,6.089,0v6.089Zm0-18.268a3.045,3.045,0,0,1-6.089,0V33.491a3.045,3.045,0,0,1,6.089,0V39.58Zm0-18.268a3.045,3.045,0,0,1-6.089,0V15.223a3.045,3.045,0,0,1,6.089,0v6.089Zm12.178,127.874a3.045,3.045,0,0,1-6.089,0V143.1a3.045,3.045,0,0,1,6.089,0v6.089Zm0-18.268a3.045,3.045,0,0,1-6.089,0v-6.089a3.045,3.045,0,1,1,6.089,0v6.089Zm0-18.268a3.045,3.045,0,1,1-6.089,0v-6.089a3.045,3.045,0,1,1,6.089,0v6.089Zm0-18.268a3.045,3.045,0,1,1-6.089,0V88.294a3.045,3.045,0,1,1,6.089,0v6.089Zm0-18.268a3.045,3.045,0,1,1-6.089,0V70.026a3.045,3.045,0,1,1,6.089,0v6.089Zm0-18.268a3.045,3.045,0,1,1-6.089,0V51.758a3.045,3.045,0,1,1,6.089,0v6.089Zm0-18.268a3.045,3.045,0,0,1-6.089,0V33.491a3.045,3.045,0,1,1,6.089,0V39.58Zm0-18.268a3.045,3.045,0,1,1-6.089,0V15.223a3.045,3.045,0,1,1,6.089,0v6.089ZM149.186,152.23H118.74a3.045,3.045,0,1,1,0-6.089h30.446a3.045,3.045,0,0,1,0,6.089Zm0-12.178H118.74a3.045,3.045,0,0,1,0-6.089h30.446a3.045,3.045,0,0,1,0,6.089Zm0-12.178H118.74a3.045,3.045,0,1,1,0-6.089h30.446a3.045,3.045,0,1,1,0,6.089Zm0-12.178H118.74a3.045,3.045,0,1,1,0-6.089h30.446a3.045,3.045,0,0,1,0,6.089Zm0-12.178H118.74a3.045,3.045,0,1,1,0-6.089h30.446a3.045,3.045,0,0,1,0,6.089Zm0-12.178H118.74a3.045,3.045,0,0,1,0-6.089h30.446a3.045,3.045,0,0,1,0,6.089Zm0-12.178H118.74a3.045,3.045,0,1,1,0-6.089h30.446a3.045,3.045,0,0,1,0,6.089Z" fill="#fff" fill-rule="evenodd"/>
    </g>
  </g>
</svg>
