<svg xmlns="http://www.w3.org/2000/svg" width="1107" height="695" viewBox="0 0 1107 695">
  <g id="Group_30" data-name="Group 30" transform="translate(-408 -193)">
    <rect id="Rectangle_52" data-name="Rectangle 52" width="1107" height="695" transform="translate(408 193)" fill="#fafafa"/>
    <path id="Path_34" data-name="Path 34" d="M4408.524,766.45S4491.487,231.5,4550.2,276.661s143.322,218.6,143.322,218.6,138.846,273.769,351.108,218.967c18.407-4.752,16.961,0,16.961,0s-1.618,38.912,0,50.431c.346,7.664-29.383,1.794-29.383,1.794Z" transform="translate(-3767 42)" fill="#f44336"/>
    <path id="Path_35" data-name="Path 35" d="M4408.524,646.5s105.926-401.124,164.248-367.029,130.536,169.983,130.536,169.983,127.058,196.115,337.914,154.744c18.117-3.554,15.6,0,15.6,0s-.364,24.679,0,33.236c.221.1,0,8.078,0,8.078l-28.747.989Z" transform="translate(-3762.675 161.952)" fill="#7bd80f"/>
    <path id="Path_36" data-name="Path 36" d="M4408.524,547.684S4533.47,250.8,4591.441,275.818s122.408,129.657,122.408,129.657,109.82,138.441,319.41,108.088c21.408-3.1,19.558,2.825,19.558,2.825s.418,25.049-.953,30.3c-11.1,1.268-27.509.992-27.509.992Z" transform="translate(-3758.784 260.77)" fill="#03a9f4"/>
    <path id="Path_37" data-name="Path 37" d="M4408.524,478.586s148.288-201.823,205.564-183.528,74.072,70.3,126.527,102.163c33.572,20.39,76.13,40.8,126.735,48.274s83.872,16.128,158.42,8.136c18.563-1.99,20.018,1.9,20.018,1.9v23.723l-28.815-.673Z" transform="translate(-3751.695 330.022)" fill="#9c27b0"/>
    <path id="Path_38" data-name="Path 38" d="M4408.524,331.1s170.313-124.38,248.966-80.173,70.076,40.636,111.351,51.2c20,5.748,87.208,11.876,87.208,11.876s104.617,6,149.6,4.863c21.1-.532,25.483,0,25.483,0h0V331.1h-622.61Z" transform="translate(-3736.518 477.353)" fill="#fff"/>
    <path id="Path_32" data-name="Path 32" d="M1139.909,886.492l395.7.579V871.816l31.565,16.432L1535.6,903.583V890.553l-395.513-.376Z" transform="translate(-286.659 1806.369) rotate(-90)" fill="#4d4d4d" stroke="#4d4d4d" stroke-width="1"/>
    <path id="Path_33" data-name="Path 33" d="M1140.092,887.168l395.513-.1V871.816l31.993,16.838L1535.6,903.583V890.553l-395.513-.376Z" transform="translate(-230.85 -80.221)" fill="#4d4d4d" stroke="#4d4d4d" stroke-width="1"/>
    <line id="Line_3" data-name="Line 3" x1="329" transform="translate(601.5 808.45)" fill="none" stroke="#4d4d4d" stroke-width="4"/>
    <line id="Line_4" data-name="Line 4" y1="159.55" transform="translate(602 650.9)" fill="none" stroke="#4d4d4d" stroke-width="4"/>
    <path id="Path_89" data-name="Path 89" d="M30.272-22.4H27.424L21.7-6.88,16.256-22.4H14.3L8.8-6.88,3.136-22.4H.128L8.736.64,15.2-16.992,21.632.64Zm6.816,7.232a11.015,11.015,0,0,0-5.536,1.5l1.12,2.24a10.239,10.239,0,0,1,4.416-1.248c1.184,0,3.744.416,3.744,3.488v.8A8.275,8.275,0,0,0,36.384-9.6c-3.328,0-5.856,2.048-5.856,4.928,0,3.2,2.848,5.056,5.5,5.056a6.248,6.248,0,0,0,5.024-2.528V0H43.52V-9.728C43.52-12.48,41.44-15.168,37.088-15.168Zm-.48,13.184c-1.664,0-3.392-.768-3.392-2.688,0-1.536,1.44-2.688,3.744-2.688A7.082,7.082,0,0,1,40.832-6.3v2.08A5.676,5.676,0,0,1,36.608-1.984Zm9.152-12.8L53.152.64l7.392-15.424H57.792L53.248-4.768,48.7-14.784ZM68.7-15.168c-4.448,0-7.392,3.456-7.392,7.776A7.554,7.554,0,0,0,69.024.384a8.241,8.241,0,0,0,6.144-2.912l-1.7-1.76a5.709,5.709,0,0,1-4.448,2.176,4.986,4.986,0,0,1-5.088-4.32H75.872A8.393,8.393,0,0,0,75.9-7.3C75.9-12.064,72.832-15.168,68.7-15.168ZM64-8.672a4.585,4.585,0,0,1,4.7-4,4.451,4.451,0,0,1,4.576,4ZM79.552,0H82.24V-24.192H79.552ZM93.28-15.168c-4.448,0-7.392,3.456-7.392,7.776A7.554,7.554,0,0,0,93.6.384a8.241,8.241,0,0,0,6.144-2.912l-1.7-1.76A5.709,5.709,0,0,1,93.6-2.112a4.986,4.986,0,0,1-5.088-4.32h11.936a8.4,8.4,0,0,0,.032-.864C100.48-12.064,97.408-15.168,93.28-15.168Zm-4.7,6.5a4.585,4.585,0,0,1,4.7-4,4.451,4.451,0,0,1,4.576,4Zm22.016-6.5a5.259,5.259,0,0,0-4.544,2.464v-2.08h-2.5V0h2.688V-10.176s1.28-2.5,3.68-2.5a3.278,3.278,0,0,1,3.552,3.616V0h2.688V-9.5A5.381,5.381,0,0,0,110.592-15.168ZM131.168.192c0,3.328-1.952,5.056-5.088,5.056a6.524,6.524,0,0,1-4.832-2.336l-1.632,2.016a9.019,9.019,0,0,0,6.464,2.816c4.288,0,7.776-2.56,7.776-7.68V-14.784h-2.464v2.144a5.755,5.755,0,0,0-4.992-2.528c-4,0-7.168,3.424-7.168,7.776S122.4.384,126.4.384a5.949,5.949,0,0,0,4.768-2.24Zm0-4.8a5.256,5.256,0,0,1-4.352,2.5c-3.008,0-4.9-2.368-4.9-5.28s1.888-5.28,4.9-5.28a5.322,5.322,0,0,1,4.352,2.5Zm5.5-7.744h2.88v8.1A4.323,4.323,0,0,0,144,.384a6.092,6.092,0,0,0,3.072-.9L146.08-2.72a3.509,3.509,0,0,1-1.7.608,1.979,1.979,0,0,1-2.144-2.272v-7.968h4.608v-2.432H142.24V-19.3h-2.688v4.512h-2.88ZM157.6-15.168a5.2,5.2,0,0,0-4.352,2.176v-11.2H150.56V0h2.688V-10.176s1.28-2.5,3.68-2.5a3.278,3.278,0,0,1,3.552,3.616V0h2.688V-9.5A5.381,5.381,0,0,0,157.6-15.168ZM183.136,3.68c-2.752-4.224-4.352-7.552-4.352-13.12s1.6-8.9,4.352-13.12l-1.952-1.376c-3.072,4.64-4.9,8.544-4.9,14.5s1.824,9.856,4.9,14.5ZM201.7-15.168a4.884,4.884,0,0,0-4.416,2.752,4.606,4.606,0,0,0-4.608-2.752,4.514,4.514,0,0,0-4.1,2.56v-2.176h-2.5V0h2.688V-10.3s.992-2.368,3.168-2.368c1.92,0,3.168,1.184,3.168,3.584V0h2.688V-10.3s.96-2.368,3.168-2.368c1.92,0,3.168,1.184,3.168,3.584V0h2.688V-9.5C206.816-13.152,204.768-15.168,201.7-15.168Zm24.832,0a4.884,4.884,0,0,0-4.416,2.752,4.606,4.606,0,0,0-4.608-2.752,4.514,4.514,0,0,0-4.1,2.56v-2.176h-2.5V0H213.6V-10.3s.992-2.368,3.168-2.368c1.92,0,3.168,1.184,3.168,3.584V0h2.688V-10.3s.96-2.368,3.168-2.368c1.92,0,3.168,1.184,3.168,3.584V0h2.688V-9.5C231.648-13.152,229.6-15.168,226.528-15.168ZM236.544,5.056c3.072-4.64,4.9-8.544,4.9-14.5s-1.824-9.856-4.9-14.5l-1.952,1.376c2.752,4.224,4.352,7.552,4.352,13.12s-1.6,8.9-4.352,13.12Z" transform="translate(867 855)" fill="#4d4d4d"/>
    <path id="Path_88" data-name="Path 88" d="M3.072,0H5.76V-22.4H3.072ZM17.92-15.168A5.259,5.259,0,0,0,13.376-12.7v-2.08h-2.5V0h2.688V-10.176s1.28-2.5,3.68-2.5A3.278,3.278,0,0,1,20.8-9.056V0h2.688V-9.5A5.381,5.381,0,0,0,17.92-15.168ZM26.3-12.352h2.88v8.1A4.323,4.323,0,0,0,33.632.384a6.092,6.092,0,0,0,3.072-.9L35.712-2.72a3.509,3.509,0,0,1-1.7.608,1.979,1.979,0,0,1-2.144-2.272v-7.968H36.48v-2.432H31.872V-19.3H29.184v4.512H26.3Zm19.68-2.816c-4.448,0-7.392,3.456-7.392,7.776A7.554,7.554,0,0,0,46.3.384a8.241,8.241,0,0,0,6.144-2.912l-1.7-1.76A5.709,5.709,0,0,1,46.3-2.112a4.986,4.986,0,0,1-5.088-4.32H53.152a8.394,8.394,0,0,0,.032-.864C53.184-12.064,50.112-15.168,45.984-15.168Zm-4.7,6.5a4.585,4.585,0,0,1,4.7-4,4.451,4.451,0,0,1,4.576,4Zm22.016-6.5A5.259,5.259,0,0,0,58.752-12.7v-2.08h-2.5V0h2.688V-10.176s1.28-2.5,3.68-2.5a3.278,3.278,0,0,1,3.552,3.616V0h2.688V-9.5A5.381,5.381,0,0,0,63.3-15.168ZM72-2.72a8.1,8.1,0,0,0,6.336,3.1c2.848,0,5.856-1.472,5.856-4.32,0-3.008-2.4-4.064-5.216-4.672-2.432-.512-3.584-1.12-3.584-2.24,0-.96.928-1.888,2.816-1.888A5.429,5.429,0,0,1,81.92-11.1l1.76-1.824a7.684,7.684,0,0,0-5.472-2.24c-3.3,0-5.44,2.112-5.44,4.256,0,2.784,2.24,4.032,5.408,4.672,2.272.448,3.36,1.088,3.36,2.368,0,1.184-1.7,1.824-3.2,1.824a5.7,5.7,0,0,1-4.48-2.4ZM88,0h2.688V-14.784H88Zm-.48-19.52A1.844,1.844,0,0,0,89.344-17.7a1.844,1.844,0,0,0,1.824-1.824,1.844,1.844,0,0,0-1.824-1.824A1.844,1.844,0,0,0,87.52-19.52Zm6.464,7.168h2.88v8.1a4.323,4.323,0,0,0,4.448,4.64,6.092,6.092,0,0,0,3.072-.9l-.992-2.208a3.509,3.509,0,0,1-1.7.608,1.979,1.979,0,0,1-2.144-2.272v-7.968h4.608v-2.432H99.552V-19.3H96.864v4.512h-2.88Zm12.128,19.04a5.456,5.456,0,0,0,3.136,1.056,4.346,4.346,0,0,0,4.1-2.976c.352-.864,7.776-19.552,7.776-19.552h-2.912L113.792-3.1l-5.184-11.68h-3.04L112.48.064l-1.152,2.912c-.576,1.44-1.12,2.272-2.3,2.272a3.44,3.44,0,0,1-1.76-.768Z" transform="translate(577.5 591.5) rotate(-90)" fill="#4d4d4d"/>
    <line id="Line_5" data-name="Line 5" y1="36" x2="122" transform="translate(778.5 288.5)" fill="none" stroke="#4d4d4d" stroke-width="3"/>
    <line id="Line_6" data-name="Line 6" y1="42" x2="135" transform="translate(806.5 410.5)" fill="none" stroke="#4d4d4d" stroke-width="3"/>
    <line id="Line_7" data-name="Line 7" y1="44" x2="141" transform="translate(827.5 503.5)" fill="none" stroke="#4d4d4d" stroke-width="3"/>
    <line id="Line_8" data-name="Line 8" y1="66" x2="163" transform="translate(849.5 569.5)" fill="none" stroke="#4d4d4d" stroke-width="3"/>
    <line id="Line_9" data-name="Line 9" y1="74" x2="184" transform="translate(898.5 658.5)" fill="none" stroke="#4d4d4d" stroke-width="3"/>
    <path id="Path_90" data-name="Path 90" d="M6.88,0H9.568V-19.84H16V-22.4H.448v2.56H6.88ZM27.168-9.056h13.12v-2.368H27.168Zm0,5.056h13.12V-6.368H27.168Zm40.7-3.136c0-5.12-3.456-7.552-7.072-7.552a9.018,9.018,0,0,0-4.128.928V-19.9h10.72v-2.5H54.112V-9.664s2.976-2.5,6.08-2.5a4.675,4.675,0,0,1,4.992,5.024,4.724,4.724,0,0,1-4.928,5.024c-3.68,0-4.928-3.584-4.928-3.584L52.992-4.448A7.794,7.794,0,0,0,60.256.384C64.128.384,67.872-2.112,67.872-7.136Zm18.4,0c0-5.12-3.456-7.552-7.072-7.552a9.018,9.018,0,0,0-4.128.928V-19.9h10.72v-2.5H72.512V-9.664s2.976-2.5,6.08-2.5a4.675,4.675,0,0,1,4.992,5.024,4.724,4.724,0,0,1-4.928,5.024c-3.68,0-4.928-3.584-4.928-3.584L71.392-4.448A7.794,7.794,0,0,0,78.656.384C82.528.384,86.272-2.112,86.272-7.136Zm11.04-15.648c-5.7,0-8.16,5.6-8.16,11.584S91.616.384,97.312.384s8.1-5.6,8.1-11.584S103.008-22.784,97.312-22.784Zm0,20.672c-3.968,0-5.472-4.7-5.472-9.088s1.5-9.088,5.472-9.088,5.408,4.7,5.408,9.088S101.28-2.112,97.312-2.112Zm18.944-20.672c-5.7,0-8.16,5.6-8.16,11.584S110.56.384,116.256.384s8.1-5.6,8.1-11.584S121.952-22.784,116.256-22.784Zm0,20.672c-3.968,0-5.472-4.7-5.472-9.088s1.5-9.088,5.472-9.088,5.408,4.7,5.408,9.088S120.224-2.112,116.256-2.112ZM131.008-22.4H128.32V0h2.688V-10.688L140.9,0h3.648L134.016-11.456,143.488-22.4h-3.424l-9.056,10.528Z" transform="translate(916 294)" fill="#4d4d4d"/>
    <path id="Path_91" data-name="Path 91" d="M6.88,0H9.568V-19.84H16V-22.4H.448v2.56H6.88ZM27.168-9.056h13.12v-2.368H27.168Zm0,5.056h13.12V-6.368H27.168Zm40.7-3.136c0-5.12-3.456-7.552-7.072-7.552a9.018,9.018,0,0,0-4.128.928V-19.9h10.72v-2.5H54.112V-9.664s2.976-2.5,6.08-2.5a4.675,4.675,0,0,1,4.992,5.024,4.724,4.724,0,0,1-4.928,5.024c-3.68,0-4.928-3.584-4.928-3.584L52.992-4.448A7.794,7.794,0,0,0,60.256.384C64.128.384,67.872-2.112,67.872-7.136Zm11.04-15.648c-5.7,0-8.16,5.6-8.16,11.584S73.216.384,78.912.384s8.1-5.6,8.1-11.584S84.608-22.784,78.912-22.784Zm0,20.672c-3.968,0-5.472-4.7-5.472-9.088s1.5-9.088,5.472-9.088,5.408,4.7,5.408,9.088S82.88-2.112,78.912-2.112ZM97.856-22.784c-5.7,0-8.16,5.6-8.16,11.584S92.16.384,97.856.384s8.1-5.6,8.1-11.584S103.552-22.784,97.856-22.784Zm0,20.672c-3.968,0-5.472-4.7-5.472-9.088s1.5-9.088,5.472-9.088,5.408,4.7,5.408,9.088S101.824-2.112,97.856-2.112ZM116.8-22.784c-5.7,0-8.16,5.6-8.16,11.584S111.1.384,116.8.384s8.1-5.6,8.1-11.584S122.5-22.784,116.8-22.784Zm0,20.672c-3.968,0-5.472-4.7-5.472-9.088s1.5-9.088,5.472-9.088,5.408,4.7,5.408,9.088S120.768-2.112,116.8-2.112ZM131.552-22.4h-2.688V0h2.688V-10.688L141.44,0h3.648L134.56-11.456,144.032-22.4h-3.424l-9.056,10.528Z" transform="translate(955 412)" fill="#4d4d4d"/>
    <path id="Path_92" data-name="Path 92" d="M6.88,0H9.568V-19.84H16V-22.4H.448v2.56H6.88ZM27.168-9.056h13.12v-2.368H27.168Zm0,5.056h13.12V-6.368H27.168Zm23.9-1.888H62.5V0H65.12V-5.888H67.9v-2.5H65.12V-22.4H62.752Zm4.48-2.5L62.5-18.3v9.92Zm30.3,1.248c0-5.12-3.456-7.552-7.072-7.552a9.018,9.018,0,0,0-4.128.928V-19.9h10.72v-2.5H72.1V-9.664s2.976-2.5,6.08-2.5a4.675,4.675,0,0,1,4.992,5.024A4.724,4.724,0,0,1,78.24-2.112c-3.68,0-4.928-3.584-4.928-3.584L70.976-4.448A7.794,7.794,0,0,0,78.24.384C82.112.384,85.856-2.112,85.856-7.136ZM96.9-22.784c-5.7,0-8.16,5.6-8.16,11.584S91.2.384,96.9.384s8.1-5.6,8.1-11.584S102.592-22.784,96.9-22.784Zm0,20.672c-3.968,0-5.472-4.7-5.472-9.088s1.5-9.088,5.472-9.088,5.408,4.7,5.408,9.088S100.864-2.112,96.9-2.112ZM115.84-22.784c-5.7,0-8.16,5.6-8.16,11.584S110.144.384,115.84.384s8.1-5.6,8.1-11.584S121.536-22.784,115.84-22.784Zm0,20.672c-3.968,0-5.472-4.7-5.472-9.088s1.5-9.088,5.472-9.088,5.408,4.7,5.408,9.088S119.808-2.112,115.84-2.112ZM130.592-22.4H127.9V0h2.688V-10.688L140.48,0h3.648L133.6-11.456,143.072-22.4h-3.424l-9.056,10.528Z" transform="translate(984 503)" fill="#4d4d4d"/>
    <path id="Path_93" data-name="Path 93" d="M6.88,0H9.568V-19.84H16V-22.4H.448v2.56H6.88ZM27.168-9.056h13.12v-2.368H27.168Zm0,5.056h13.12V-6.368H27.168Zm23.9-1.888H62.5V0H65.12V-5.888H67.9v-2.5H65.12V-22.4H62.752Zm4.48-2.5L62.5-18.3v9.92ZM78.5-22.784c-5.7,0-8.16,5.6-8.16,11.584S72.8.384,78.5.384s8.1-5.6,8.1-11.584S84.192-22.784,78.5-22.784Zm0,20.672c-3.968,0-5.472-4.7-5.472-9.088s1.5-9.088,5.472-9.088S83.9-15.584,83.9-11.2,82.464-2.112,78.5-2.112ZM97.44-22.784c-5.7,0-8.16,5.6-8.16,11.584S91.744.384,97.44.384s8.1-5.6,8.1-11.584S103.136-22.784,97.44-22.784Zm0,20.672c-3.968,0-5.472-4.7-5.472-9.088s1.5-9.088,5.472-9.088,5.408,4.7,5.408,9.088S101.408-2.112,97.44-2.112Zm18.944-20.672c-5.7,0-8.16,5.6-8.16,11.584S110.688.384,116.384.384s8.1-5.6,8.1-11.584S122.08-22.784,116.384-22.784Zm0,20.672c-3.968,0-5.472-4.7-5.472-9.088s1.5-9.088,5.472-9.088,5.408,4.7,5.408,9.088S120.352-2.112,116.384-2.112ZM131.136-22.4h-2.688V0h2.688V-10.688L141.024,0h3.648L134.144-11.456,143.616-22.4h-3.424l-9.056,10.528Z" transform="translate(1025 569)" fill="#4d4d4d"/>
    <path id="Path_94" data-name="Path 94" d="M6.88,0H9.568V-19.84H16V-22.4H.448v2.56H6.88ZM27.168-9.056h13.12v-2.368H27.168Zm0,5.056h13.12V-6.368H27.168ZM63.456-16.48c0,2.56-2.048,3.808-4.576,3.808h-.672v2.464h1.056c3.2,0,4.736,1.536,4.736,4.032,0,2.144-1.728,4.064-4.608,4.064a5.057,5.057,0,0,1-4.832-3.68L52.192-4.7a7.383,7.383,0,0,0,7.2,5.088c4.1,0,7.3-2.5,7.3-6.56,0-4.576-3.3-5.44-3.3-5.44a5.218,5.218,0,0,0,2.752-4.864,6.468,6.468,0,0,0-6.688-6.3,7.028,7.028,0,0,0-6.5,4.384l2.3,1.024a4.5,4.5,0,0,1,4.192-2.912A3.882,3.882,0,0,1,63.456-16.48ZM85.28-7.136c0-5.12-3.456-7.552-7.072-7.552a9.018,9.018,0,0,0-4.128.928V-19.9H84.8v-2.5H71.52V-9.664s2.976-2.5,6.08-2.5a4.675,4.675,0,0,1,4.992,5.024,4.724,4.724,0,0,1-4.928,5.024c-3.68,0-4.928-3.584-4.928-3.584L70.4-4.448A7.794,7.794,0,0,0,77.664.384C81.536.384,85.28-2.112,85.28-7.136ZM96.32-22.784c-5.7,0-8.16,5.6-8.16,11.584S90.624.384,96.32.384s8.1-5.6,8.1-11.584S102.016-22.784,96.32-22.784Zm0,20.672c-3.968,0-5.472-4.7-5.472-9.088s1.5-9.088,5.472-9.088,5.408,4.7,5.408,9.088S100.288-2.112,96.32-2.112Zm18.944-20.672c-5.7,0-8.16,5.6-8.16,11.584S109.568.384,115.264.384s8.1-5.6,8.1-11.584S120.96-22.784,115.264-22.784Zm0,20.672c-3.968,0-5.472-4.7-5.472-9.088s1.5-9.088,5.472-9.088,5.408,4.7,5.408,9.088S119.232-2.112,115.264-2.112ZM130.016-22.4h-2.688V0h2.688V-10.688L139.9,0h3.648L133.024-11.456,142.5-22.4h-3.424l-9.056,10.528Z" transform="translate(1093 660)" fill="#4d4d4d"/>
  </g>
</svg>
