<svg xmlns="http://www.w3.org/2000/svg" width="117.89" height="163.283" viewBox="0 0 117.89 163.283">
  <path id="Subtraction_3" data-name="Subtraction 3" d="M99.742,163.284H20.312a3.165,3.165,0,0,1-1.358-2.6V148.049a3.163,3.163,0,0,1,3.159-3.159H44.23V130.748a54.206,54.206,0,0,1-10.413-3.628,53.226,53.226,0,0,1-9.4-5.642H3.16A3.163,3.163,0,0,1,0,118.319V105.681a3.163,3.163,0,0,1,3.16-3.159H47.4a3.163,3.163,0,0,1,3.16,3.159v7.049a35.367,35.367,0,0,0,6.152.544,34.448,34.448,0,0,0,24.517-10.142,35.05,35.05,0,0,0,6.462-8.878,34.419,34.419,0,0,0,3.364-20.777,34.994,34.994,0,0,0-3.311-10.42,15.709,15.709,0,0,1-8.524-2.6l-24.8,24.8a3.159,3.159,0,0,1-4.468,0l-2.234-2.234L36.545,94.2a3.16,3.16,0,0,1-4.47,0l-8.938-8.941a3.155,3.155,0,0,1,0-4.468L34.309,69.619l-2.234-2.234a3.157,3.157,0,0,1,0-4.468L62.31,32.683,69.7,40.074a2.5,2.5,0,0,0,3.535,0l.446-.445a2.5,2.5,0,0,0,0-3.535L66.29,28.7l2.776-2.776,7.392,7.392a2.5,2.5,0,0,0,3.535,0l.445-.445a2.5,2.5,0,0,0,0-3.535l-7.392-7.392,2.776-2.776,7.392,7.392a2.5,2.5,0,0,0,3.535,0l.446-.446a2.5,2.5,0,0,0,0-3.536L79.8,15.189,85.691,9.3a3.155,3.155,0,0,1,4.468,0l2.234,2.234L103.564.364A3.031,3.031,0,0,1,104,0h3.6a3.194,3.194,0,0,1,.434.363L116.967,9.3a3.159,3.159,0,0,1-.006,4.47L105.791,24.944l2.234,2.234a3.155,3.155,0,0,1,0,4.468L101.1,38.574a15.8,15.8,0,0,1,1.956,12.966.086.086,0,0,0,.014.016l0,0,0,0a.143.143,0,0,1,.028.031A53.735,53.735,0,0,1,94.62,116.54a53.177,53.177,0,0,1-18.8,12.192V144.89H97.94a3.163,3.163,0,0,1,3.16,3.159v12.638a3.162,3.162,0,0,1-1.358,2.6Z" transform="translate(0 -0.001)" fill="#fff"/>
</svg>
