<svg xmlns="http://www.w3.org/2000/svg" xmlns:xlink="http://www.w3.org/1999/xlink" width="164.409" height="164.409" viewBox="0 0 164.409 164.409">
  <defs>
    <clipPath id="clip-path">
      <rect id="Rectangle_158" data-name="Rectangle 158" width="164.409" height="164.409" fill="#fff" stroke="#707070" stroke-width="1"/>
    </clipPath>
  </defs>
  <g id="Mask_Group_60" data-name="Mask Group 60" clip-path="url(#clip-path)">
    <g id="repair-H1yvRV13Q" transform="translate(14.187 14.183)">
      <g id="Group_47" data-name="Group 47" transform="translate(0 0)">
        <path id="Path_128" data-name="Path 128" d="M98.864,79.969,84.705,65.811l32.443-32.44H123.6a2.661,2.661,0,0,0,1.889-.783l11.339-11.339a2.671,2.671,0,0,0,0-3.779L121.71,2.352a2.669,2.669,0,0,0-3.779,0L106.592,13.688a2.67,2.67,0,0,0-.783,1.889v6.451L73.369,54.472c-3.562-3.565-11.208-11.211-14.156-14.158A29.382,29.382,0,0,0,23.328,2.956a2.674,2.674,0,0,0-1.171,4.466l10.03,10.03L29.074,29.07,17.449,32.187,7.422,22.16a2.67,2.67,0,0,0-4.46,1.173,29.374,29.374,0,0,0,37.352,35.88L54.47,73.371,50.961,76.88A15.99,15.99,0,0,0,32.722,80L6.262,106.455a16.062,16.062,0,0,0,0,22.678l3.781,3.779a16.029,16.029,0,0,0,22.675,0l26.454-26.457A15.985,15.985,0,0,0,62.3,88.219l3.509-3.509L79.964,98.868a29.4,29.4,0,0,0,35.885,37.355,2.672,2.672,0,0,0,1.171-4.463l-10.03-10.03,3.113-11.622L121.726,107l10.03,10.03a2.672,2.672,0,0,0,4.463-1.171A29.383,29.383,0,0,0,98.864,79.969Zm-85.039,40.5a2.672,2.672,0,0,1-1.889-4.562L42.168,85.672a2.672,2.672,0,0,1,3.779,3.779L15.714,119.686a2.665,2.665,0,0,1-1.889.783ZM53.5,97.008,23.272,127.244a2.672,2.672,0,0,1-3.779-3.779L49.726,93.23A2.672,2.672,0,1,1,53.5,97.008Z" transform="translate(-1.576 -1.568)" fill="#fff" fill-rule="evenodd"/>
      </g>
    </g>
  </g>
</svg>
