<svg xmlns="http://www.w3.org/2000/svg" xmlns:xlink="http://www.w3.org/1999/xlink" width="164.409" height="164.409" viewBox="0 0 164.409 164.409">
  <defs>
    <clipPath id="clip-path">
      <rect id="Rectangle_156" data-name="Rectangle 156" width="164.409" height="164.409" fill="#fff" stroke="#707070" stroke-width="1"/>
    </clipPath>
  </defs>
  <g id="Mask_Group_59" data-name="Mask Group 59" clip-path="url(#clip-path)">
    <g id="read-BJQJn4k3X" transform="translate(7.141 16.148)">
      <g id="Group_46" data-name="Group 46" transform="translate(0 0)">
        <path id="Path_127" data-name="Path 127" d="M141.12,120.1H81.069a3,3,0,0,0-3,3,3,3,0,0,1-6.005,0,3,3,0,0,0-3-3H9.008a3,3,0,1,0,0,6.005H66.57a9.01,9.01,0,0,0,16.988,0H141.12a3,3,0,0,0,0-6.005ZM72.061,0H3A3,3,0,0,0,0,3V111.094a3,3,0,0,0,3,3H72.061V0ZM57.049,90.077H21.018a3,3,0,0,1,0-6.005H57.049a3,3,0,1,1,0,6.005Zm0-12.01H21.018a3,3,0,0,1,0-6.005H57.049a3,3,0,1,1,0,6.005Zm0-12.01H21.018a3,3,0,0,1,0-6.005H57.049a3,3,0,0,1,0,6.005Zm0-12.01H21.018a3,3,0,0,1,0-6.005H57.049a3,3,0,0,1,0,6.005Zm0-12.01H21.018a3,3,0,1,1,0-6.005H57.049a3,3,0,1,1,0,6.005Zm0-12.01H21.018a3,3,0,1,1,0-6.005H57.049a3,3,0,1,1,0,6.005ZM147.125,0H78.066V114.1h69.059a3,3,0,0,0,3-3V3a3,3,0,0,0-3-3ZM117.1,90.077H93.079a3,3,0,0,1,0-6.005H117.1a3,3,0,0,1,0,6.005Zm12.01-12.01H93.079a3,3,0,0,1,0-6.005H129.11a3,3,0,1,1,0,6.005Zm0-12.01H93.079a3,3,0,0,1,0-6.005H129.11a3,3,0,1,1,0,6.005Zm0-12.01H93.079a3,3,0,0,1,0-6.005H129.11a3,3,0,1,1,0,6.005Zm0-12.01H93.079a3,3,0,0,1,0-6.005H129.11a3,3,0,1,1,0,6.005Zm0-12.01H93.079a3,3,0,0,1,0-6.005H129.11a3,3,0,1,1,0,6.005Z" fill="#fff"/>
      </g>
    </g>
  </g>
</svg>
