<svg xmlns="http://www.w3.org/2000/svg" xmlns:xlink="http://www.w3.org/1999/xlink" width="1687" height="855" viewBox="0 0 1687 855">
  <defs>
    <radialGradient id="radial-gradient" cx="0.5" cy="0.5" r="0.975" gradientTransform="translate(0.247 0.244) scale(0.507 0.513)" gradientUnits="objectBoundingBox">
      <stop offset="0"/>
      <stop offset="0.645" stop-color="#2c2c2c"/>
      <stop offset="0.749" stop-color="#646464"/>
      <stop offset="0.813" stop-color="#8e8e8e"/>
      <stop offset="0.916" stop-color="#e2e2e2"/>
      <stop offset="1" stop-color="#fafafa"/>
    </radialGradient>
  </defs>
  <g id="Group_47" data-name="Group 47" transform="translate(-117 -113)">
    <rect id="Rectangle_45" data-name="Rectangle 45" width="1687" height="855" transform="translate(117 113)" fill="url(#radial-gradient)"/>
    <g id="Group_32" data-name="Group 32" transform="translate(-40)">
      <circle id="Ellipse_12" data-name="Ellipse 12" cx="69" cy="69" r="69" transform="translate(1209 427)" fill="#afafaf"/>
      <path id="Intersection_9" data-name="Intersection 9" d="M-3911.606,147.069c-5.129-10.007,4.7-18.98-7.991-24.422-12.8-5.488-25.76.321-38.835,5.536a69.169,69.169,0,0,1-15.478-21.727,28.043,28.043,0,0,1,8.422-8.394c20.155-13.558.939-39.591-2.032-59.581a69.373,69.373,0,0,1,11.88-13.027c6.8,6.515,15.4,16.243,19.521,14.208,6.413-3.165,6.095-17.3,7.806-28.4A69.1,69.1,0,0,1-3911,9.072a69.124,69.124,0,0,1,16.893,2.083c-6.024,9.463-20.612,22.926-23.882,31.839-2.924,7.965,6.538,3.327,15.814-1.312,7.206-3.6,14.3-7.207,15.39-4.9,2.493,5.276-17.855,20.488-21.236,27.313a27.939,27.939,0,0,0-2.91,10.79,44.47,44.47,0,0,1,13.41,4.3c3.942,2.6-1.336,13.008-1.494,23.366-.185,12.082,4.639,24.158,7.462,26.212,4.769,3.47,1.635,11.083-3.541,16.467A69.183,69.183,0,0,1-3911,147.072Zm-38.641-49.006c-10.7,13.433.838,15.024,17.934,9.331,2.972-.991,9.516-10.214,2.925-17.941C-3937.487,91.184-3945.572,92.2-3950.247,98.063Zm70.007,3.786c9.789-7.371,25.086-26.213,37.8-31.605a69.766,69.766,0,0,1,.439,7.828,68.791,68.791,0,0,1-20.89,49.461C-3873.453,120.861-3889.476,108.8-3880.24,101.849Zm0-33.056c-6.6-6.723,6.849-30.151,14.774-42.565a69.064,69.064,0,0,1,20.141,30.622c-14.354,7.2-23.316,14.211-29.652,14.211A7.043,7.043,0,0,1-3880.24,68.793Z" transform="translate(5189 417.928)" fill="#9f9f9f"/>
    </g>
    <g id="Group_46" data-name="Group 46" transform="translate(558 -265)">
      <circle id="Ellipse_21" data-name="Ellipse 21" cx="213" cy="213" r="213" transform="translate(138 592)" fill="#35adf8"/>
      <path id="Intersection_16" data-name="Intersection 16" d="M-1882,213A213.028,213.028,0,0,1-1760.084,20.4,12.457,12.457,0,0,1-1759,25.5,12.5,12.5,0,0,1-1771.5,38h9A12.5,12.5,0,0,1-1750,50.5,12.5,12.5,0,0,1-1762.5,63h-11A12.5,12.5,0,0,1-1761,75.5,12.5,12.5,0,0,1-1773.5,88h11a12.5,12.5,0,0,1,12.5,12.5,12.5,12.5,0,0,1-12.5,12.5h11a12.5,12.5,0,0,1,12.5,12.5,12.5,12.5,0,0,1-12.5,12.5h-22a12.5,12.5,0,0,1,12.5,12.5,12.5,12.5,0,0,1-12.5,12.5h-12a12.5,12.5,0,0,1,12.5,12.5,12.5,12.5,0,0,1-12.5,12.5h9a12.5,12.5,0,0,1,12.5,12.5,12.5,12.5,0,0,1-12.5,12.5h-15a12.5,12.5,0,0,1-12.5-12.5,12.5,12.5,0,0,1,12.5-12.5h-48a12.5,12.5,0,0,1,12.5,12.5,12.5,12.5,0,0,1-12.5,12.5h-31a12.5,12.5,0,0,1,12.5,12.5,12.5,12.5,0,0,1-12.5,12.5h-9a12.5,12.5,0,0,1,12.5,12.5,12.5,12.5,0,0,1-9.2,12.061A213.659,213.659,0,0,1-1882,213Zm417.5,23a12.5,12.5,0,0,1-12.5-12.5,12.5,12.5,0,0,1,12.5-12.5h-20a12.5,12.5,0,0,1-12.5-12.5,12.5,12.5,0,0,1,12.5-12.5h-42a12.5,12.5,0,0,1,12.5,12.5,12.5,12.5,0,0,1-12.5,12.5h-34a12.5,12.5,0,0,1-12.5-12.5,12.5,12.5,0,0,1,12.5-12.5h15a12.5,12.5,0,0,1-12.5-12.5,12.5,12.5,0,0,1,12.5-12.5h-40a12.5,12.5,0,0,1,12.5,12.5,12.5,12.5,0,0,1-12.5,12.5h-45a12.5,12.5,0,0,1,12.5,12.5,12.5,12.5,0,0,1-12.5,12.5h-51a12.5,12.5,0,0,1-12.5-12.5,12.5,12.5,0,0,1,12.5-12.5h8a12.5,12.5,0,0,1-12.5-12.5,12.5,12.5,0,0,1,12.5-12.5h8a12.5,12.5,0,0,1-12.5-12.5,12.5,12.5,0,0,1,12.5-12.5h25a12.5,12.5,0,0,1,12.5,12.5,12.5,12.5,0,0,1-12.5,12.5h25a12.5,12.5,0,0,1-12.5-12.5,12.5,12.5,0,0,1,12.5-12.5h48a12.5,12.5,0,0,1-12.5-12.5,12.5,12.5,0,0,1,12.5-12.5h22A12.5,12.5,0,0,1-1558,98.5,12.5,12.5,0,0,1-1545.5,86h38A12.5,12.5,0,0,1-1520,73.5a12.462,12.462,0,0,1,3.76-8.937A212.294,212.294,0,0,1-1456,213a215.53,215.53,0,0,1-1.227,23Zm-171-104a12.5,12.5,0,0,1-12.5-12.5,12.5,12.5,0,0,1,12.5-12.5h15a12.5,12.5,0,0,1,12.5,12.5,12.5,12.5,0,0,1-12.5,12.5Zm63-46A12.5,12.5,0,0,1-1585,73.5,12.5,12.5,0,0,1-1572.5,61h25A12.5,12.5,0,0,1-1535,73.5,12.5,12.5,0,0,1-1547.5,86Z" transform="translate(2020 592)" fill="#79e05a"/>
      <path id="Intersection_17" data-name="Intersection 17" d="M-1897.418,388.718A12.505,12.505,0,0,1-1885.5,380h36a12.5,12.5,0,0,1-12.5-12.5,12.5,12.5,0,0,1,12.5-12.5h72a12.5,12.5,0,0,1,12.5,12.5,12.5,12.5,0,0,1-12.5,12.5h64.061a12.5,12.5,0,0,1,12.5,12.5,12.5,12.5,0,0,1-12.5,12.5h28.774A212.112,212.112,0,0,1-1777,426,212.029,212.029,0,0,1-1897.418,388.718Z" transform="translate(2128 592)" fill="#e3f0df"/>
      <path id="Intersection_18" data-name="Intersection 18" d="M-1746.5,50A12.5,12.5,0,0,1-1759,37.5,12.5,12.5,0,0,1-1746.5,25h-45A12.5,12.5,0,0,1-1779,37.5,12.5,12.5,0,0,1-1791.5,50h-24A12.5,12.5,0,0,1-1828,37.5,12.5,12.5,0,0,1-1815.5,25h-14a12.5,12.5,0,0,1-12.246-9.981A212.893,212.893,0,0,1-1777,5a212.318,212.318,0,0,1,81.517,16.156A12.463,12.463,0,0,1-1704.5,25h3A12.5,12.5,0,0,1-1689,37.5,12.5,12.5,0,0,1-1701.5,50Z" transform="translate(2128 587)" fill="#e2efde"/>
      <path id="Intersection_19" data-name="Intersection 19" d="M-1882.57,261h67.07a12.5,12.5,0,0,1,12.5,12.5,12.5,12.5,0,0,1-12.5,12.5h-19a12.5,12.5,0,0,1,12.5,12.5,12.5,12.5,0,0,1-12.5,12.5h-15a12.5,12.5,0,0,1,12.5,12.5,12.5,12.5,0,0,1-11.927,12.487A211.947,211.947,0,0,1-1882.57,261Z" transform="translate(2026 594)" fill="#79e05a"/>
      <path id="Intersection_20" data-name="Intersection 20" d="M-1646.5,379a12.5,12.5,0,0,1-12.5-12.5,12.5,12.5,0,0,1,12.5-12.5h-8a12.5,12.5,0,0,1-12.5-12.5,12.5,12.5,0,0,1,12.5-12.5h-28a12.5,12.5,0,0,1-12.5-12.5,12.5,12.5,0,0,1,12.5-12.5h-59.849a12.5,12.5,0,0,1-12.5-12.5,12.5,12.5,0,0,1,12.5-12.5h-17a12.5,12.5,0,0,1-12.5-12.5,12.5,12.5,0,0,1,12.5-12.5h43.85a12.5,12.5,0,0,1-12.5-12.5,12.5,12.5,0,0,1,12.5-12.5h127a12.5,12.5,0,0,1,12.5,12.5,12.5,12.5,0,0,1-12.5,12.5h17a12.5,12.5,0,0,1,3.462.486A211.248,211.248,0,0,1-1574.423,279h-1.077q.537,0,1.063.045A211.683,211.683,0,0,1-1584.363,304h-1.138c.375,0,.748.017,1.115.049A212.64,212.64,0,0,1-1598.329,329h0a214.131,214.131,0,0,1-45.194,50Z" transform="translate(2128 592)" fill="#79e05a"/>
    </g>
  </g>
</svg>
