<svg xmlns="http://www.w3.org/2000/svg" xmlns:xlink="http://www.w3.org/1999/xlink" width="1687" height="855" viewBox="0 0 1687 855">
  <defs>
    <radialGradient id="radial-gradient" cx="0.5" cy="0.5" r="0.975" gradientTransform="translate(0.247 0.244) scale(0.507 0.513)" gradientUnits="objectBoundingBox">
      <stop offset="0"/>
      <stop offset="0.645" stop-color="#2c2c2c"/>
      <stop offset="0.749" stop-color="#646464"/>
      <stop offset="0.813" stop-color="#8e8e8e"/>
      <stop offset="0.916" stop-color="#e2e2e2"/>
      <stop offset="1" stop-color="#fafafa"/>
    </radialGradient>
  </defs>
  <g id="Group_96" data-name="Group 96" transform="translate(-117 -113)">
    <rect id="Rectangle_45" data-name="Rectangle 45" width="1687" height="855" transform="translate(117 113)" fill="url(#radial-gradient)"/>
    <g id="Group_32" data-name="Group 32" transform="translate(-40)">
      <circle id="Ellipse_12" data-name="Ellipse 12" cx="69" cy="69" r="69" transform="translate(1209 427)" fill="#afafaf"/>
      <path id="Intersection_9" data-name="Intersection 9" d="M-3911.606,147.069c-5.129-10.007,4.7-18.98-7.991-24.422-12.8-5.488-25.76.321-38.835,5.536a69.169,69.169,0,0,1-15.478-21.727,28.043,28.043,0,0,1,8.422-8.394c20.155-13.558.939-39.591-2.032-59.581a69.373,69.373,0,0,1,11.88-13.027c6.8,6.515,15.4,16.243,19.521,14.208,6.413-3.165,6.095-17.3,7.806-28.4A69.1,69.1,0,0,1-3911,9.072a69.124,69.124,0,0,1,16.893,2.083c-6.024,9.463-20.612,22.926-23.882,31.839-2.924,7.965,6.538,3.327,15.814-1.312,7.206-3.6,14.3-7.207,15.39-4.9,2.493,5.276-17.855,20.488-21.236,27.313a27.939,27.939,0,0,0-2.91,10.79,44.47,44.47,0,0,1,13.41,4.3c3.942,2.6-1.336,13.008-1.494,23.366-.185,12.082,4.639,24.158,7.462,26.212,4.769,3.47,1.635,11.083-3.541,16.467A69.183,69.183,0,0,1-3911,147.072Zm-38.641-49.006c-10.7,13.433.838,15.024,17.934,9.331,2.972-.991,9.516-10.214,2.925-17.941C-3937.487,91.184-3945.572,92.2-3950.247,98.063Zm70.007,3.786c9.789-7.371,25.086-26.213,37.8-31.605a69.766,69.766,0,0,1,.439,7.828,68.791,68.791,0,0,1-20.89,49.461C-3873.453,120.861-3889.476,108.8-3880.24,101.849Zm0-33.056c-6.6-6.723,6.849-30.151,14.774-42.565a69.064,69.064,0,0,1,20.141,30.622c-14.354,7.2-23.316,14.211-29.652,14.211A7.043,7.043,0,0,1-3880.24,68.793Z" transform="translate(5189 417.928)" fill="#9f9f9f"/>
    </g>
    <g id="Group_95" data-name="Group 95" transform="translate(-286 103)">
      <circle id="Ellipse_37" data-name="Ellipse 37" cx="213" cy="213" r="213" transform="translate(982 224)" fill="#35adf8"/>
      <path id="Intersection_26" data-name="Intersection 26" d="M-1882,213a212.306,212.306,0,0,1,61.775-150h41.725A12.5,12.5,0,0,1-1791,50.5,12.5,12.5,0,0,1-1778.5,38h21A12.5,12.5,0,0,1-1745,50.5,12.5,12.5,0,0,1-1757.5,63h-16A12.5,12.5,0,0,1-1761,75.5,12.5,12.5,0,0,1-1773.5,88h11a12.5,12.5,0,0,1,12.5,12.5,12.5,12.5,0,0,1-12.5,12.5h11a12.5,12.5,0,0,1,12.5,12.5,12.5,12.5,0,0,1-12.5,12.5h-22a12.5,12.5,0,0,1,12.5,12.5,12.5,12.5,0,0,1-12.5,12.5h-12a12.5,12.5,0,0,1,12.5,12.5,12.5,12.5,0,0,1-12.5,12.5h-2a12.5,12.5,0,0,1,12.5,12.5,12.5,12.5,0,0,1-12.5,12.5,12.5,12.5,0,0,1-12.5-12.5,12.5,12.5,0,0,1,12.5-12.5h-52a12.5,12.5,0,0,1,12.5,12.5,12.5,12.5,0,0,1-12.5,12.5h-31a12.5,12.5,0,0,1,12.5,12.5,12.5,12.5,0,0,1-12.5,12.5h-9a12.5,12.5,0,0,1,12.5,12.5,12.5,12.5,0,0,1-9.2,12.061A213.659,213.659,0,0,1-1882,213Zm46,20.5a12.5,12.5,0,0,1,12.5-12.5,12.5,12.5,0,0,1,12.5,12.5,12.5,12.5,0,0,1-12.5,12.5A12.5,12.5,0,0,1-1836,233.5Zm363.5-32.5a12.5,12.5,0,0,1-12.5-12.5,12.5,12.5,0,0,1,12.5-12.5h-8a12.5,12.5,0,0,1-12.5-12.5,12.5,12.5,0,0,1,12.5-12.5h-40a12.5,12.5,0,0,1,12.5,12.5,12.5,12.5,0,0,1-12.5,12.5h-26a12.5,12.5,0,0,1-12.5-12.5,12.5,12.5,0,0,1,12.5-12.5h-39a12.5,12.5,0,0,1,12.5,12.5,12.5,12.5,0,0,1-12.5,12.5h-45a12.5,12.5,0,0,1,12.5,12.5,12.5,12.5,0,0,1-12.5,12.5h-51a12.5,12.5,0,0,1-12.5-12.5,12.5,12.5,0,0,1,12.5-12.5h13a12.5,12.5,0,0,1-12.5-12.5,12.5,12.5,0,0,1,12.5-12.5h23a12.5,12.5,0,0,1-12.5-12.5,12.5,12.5,0,0,1,12.5-12.5h5c.337,0,.671.014,1,.04q.5-.039,1-.04h52a12.5,12.5,0,0,1-12.5-12.5,12.5,12.5,0,0,1,12.5-12.5h-7A12.5,12.5,0,0,1-1606,88.5,12.5,12.5,0,0,1-1593.5,76h17A12.5,12.5,0,0,1-1564,88.5a12.5,12.5,0,0,1-12.5,12.5h31A12.5,12.5,0,0,1-1558,88.5,12.5,12.5,0,0,1-1545.5,76h39.6a212.042,212.042,0,0,1,49.566,125Zm-168-50h2q-.5,0-1-.04C-1639.83,150.987-1640.164,151-1640.5,151Zm-1.5-41.5A12.5,12.5,0,0,1-1629.5,97a12.5,12.5,0,0,1,12.5,12.5,12.5,12.5,0,0,1-12.5,12.5A12.5,12.5,0,0,1-1642,109.5Zm-41-9A12.5,12.5,0,0,1-1670.5,88a12.5,12.5,0,0,1,12.5,12.5,12.5,12.5,0,0,1-12.5,12.5A12.5,12.5,0,0,1-1683,100.5Z" transform="translate(2864 224)" fill="#79e05a"/>
      <path id="Intersection_27" data-name="Intersection 27" d="M-1869.335,405h26.345a12.5,12.5,0,0,1,12.49-12h111.062a12.5,12.5,0,0,1,12.49,12h22.283A212.112,212.112,0,0,1-1777,426,212.115,212.115,0,0,1-1869.335,405Z" transform="translate(2972 224)" fill="#e3f0df"/>
      <path id="Intersection_28" data-name="Intersection 28" d="M-1813.118,21a12.5,12.5,0,0,1-12.334-10.464A213.7,213.7,0,0,1-1777,5a213.2,213.2,0,0,1,58.557,8.15A12.505,12.505,0,0,1-1730.049,21Z" transform="translate(2972 219)" fill="#e2efde"/>
      <path id="Intersection_29" data-name="Intersection 29" d="M-1882.1,261h95.686a12.5,12.5,0,0,1,12.5,12.5,12.5,12.5,0,0,1-12.5,12.5h-13a12.5,12.5,0,0,1,12.5,12.5,12.5,12.5,0,0,1-12.5,12.5H-1816.5a12.5,12.5,0,0,1,12.5,12.5,12.5,12.5,0,0,1-12.5,12.5h-14a12.5,12.5,0,0,1,12.5,12.5,12.506,12.506,0,0,1-8.781,11.938A212.624,212.624,0,0,1-1882.1,261Z" transform="translate(2870 226)" fill="#79e05a"/>
      <path id="Intersection_30" data-name="Intersection 30" d="M-1646.5,404a12.5,12.5,0,0,1-12.5-12.5,12.5,12.5,0,0,1,12.5-12.5,12.5,12.5,0,0,1-12.5-12.5,12.5,12.5,0,0,1,12.5-12.5h-8a12.5,12.5,0,0,1-12.5-12.5,12.5,12.5,0,0,1,12.5-12.5h-28a12.5,12.5,0,0,1-12.5-12.5,12.5,12.5,0,0,1,12.5-12.5h-59.849a12.5,12.5,0,0,1-12.5-12.5,12.5,12.5,0,0,1,12.5-12.5h-17a12.5,12.5,0,0,1-12.5-12.5,12.5,12.5,0,0,1,12.5-12.5h23.849a12.5,12.5,0,0,1-12.5-12.5,12.5,12.5,0,0,1,12.5-12.5h147a12.5,12.5,0,0,1,12.5,12.5,12.5,12.5,0,0,1-12.5,12.5h17a12.525,12.525,0,0,1,3.086.384A213.472,213.472,0,0,1-1571.38,279h0a211.3,211.3,0,0,1-15.591,50h-2.529a12.559,12.559,0,0,1,2.422.235A213.635,213.635,0,0,1-1643.88,404Z" transform="translate(2976 196)" fill="#79e05a"/>
      <rect id="Rectangle_249" data-name="Rectangle 249" width="57.684" height="25" rx="12.5" transform="translate(1127.316 286)" fill="#79e05a"/>
      <rect id="Rectangle_250" data-name="Rectangle 250" width="37" height="25" rx="12.5" transform="translate(1130.316 311)" fill="#79e05a"/>
      <rect id="Rectangle_252" data-name="Rectangle 252" width="84.684" height="25" rx="12.5" transform="translate(1127.316 261)" fill="#79e05a"/>
    </g>
  </g>
</svg>
