<svg xmlns="http://www.w3.org/2000/svg" width="1131" height="637" viewBox="0 0 1131 637">
  <g id="Group_80" data-name="Group 80" transform="translate(-411 -222)">
    <rect id="Rectangle_182" data-name="Rectangle 182" width="1131" height="637" transform="translate(411 222)" fill="#fafafa"/>
    <g id="Group_79" data-name="Group 79" transform="translate(20.5 27)">
      <g id="Group_76" data-name="Group 76" transform="translate(82.442 25.192)">
        <g id="Rectangle_170" data-name="Rectangle 170" transform="translate(499 368)" fill="none" stroke="#2196f3" stroke-width="5">
          <rect width="57" height="57" rx="8" stroke="none"/>
          <rect x="2.5" y="2.5" width="52" height="52" rx="5.5" fill="none"/>
        </g>
        <g id="Rectangle_170-2" data-name="Rectangle 170" transform="translate(571 368)" fill="none" stroke="#2196f3" stroke-width="5">
          <rect width="57" height="57" rx="8" stroke="none"/>
          <rect x="2.5" y="2.5" width="52" height="52" rx="5.5" fill="none"/>
        </g>
        <g id="Rectangle_170-3" data-name="Rectangle 170" transform="translate(904 368)" fill="none" stroke="#2196f3" stroke-width="5">
          <rect width="57" height="57" rx="8" stroke="none"/>
          <rect x="2.5" y="2.5" width="52" height="52" rx="5.5" fill="none"/>
        </g>
        <g id="Rectangle_170-4" data-name="Rectangle 170" transform="translate(976 368)" fill="none" stroke="#2196f3" stroke-width="5">
          <rect width="57" height="57" rx="8" stroke="none"/>
          <rect x="2.5" y="2.5" width="52" height="52" rx="5.5" fill="none"/>
        </g>
        <g id="Rectangle_170-5" data-name="Rectangle 170" transform="translate(1048 368)" fill="none" stroke="#2196f3" stroke-width="5">
          <rect width="57" height="57" rx="8" stroke="none"/>
          <rect x="2.5" y="2.5" width="52" height="52" rx="5.5" fill="none"/>
        </g>
        <g id="Rectangle_170-6" data-name="Rectangle 170" transform="translate(1120 368)" fill="none" stroke="#2196f3" stroke-width="5">
          <rect width="57" height="57" rx="8" stroke="none"/>
          <rect x="2.5" y="2.5" width="52" height="52" rx="5.5" fill="none"/>
        </g>
        <g id="Rectangle_170-7" data-name="Rectangle 170" transform="translate(1192 368)" fill="none" stroke="#2196f3" stroke-width="5">
          <rect width="57" height="57" rx="8" stroke="none"/>
          <rect x="2.5" y="2.5" width="52" height="52" rx="5.5" fill="none"/>
        </g>
        <g id="Rectangle_170-8" data-name="Rectangle 170" transform="translate(1264 368)" fill="none" stroke="#2196f3" stroke-width="5">
          <rect width="57" height="57" rx="8" stroke="none"/>
          <rect x="2.5" y="2.5" width="52" height="52" rx="5.5" fill="none"/>
        </g>
        <g id="Rectangle_170-9" data-name="Rectangle 170" transform="translate(499 440)" fill="none" stroke="#2196f3" stroke-width="5">
          <rect width="57" height="57" rx="8" stroke="none"/>
          <rect x="2.5" y="2.5" width="52" height="52" rx="5.5" fill="none"/>
        </g>
        <g id="Rectangle_170-10" data-name="Rectangle 170" transform="translate(571 440)" fill="none" stroke="#2196f3" stroke-width="5">
          <rect width="57" height="57" rx="8" stroke="none"/>
          <rect x="2.5" y="2.5" width="52" height="52" rx="5.5" fill="none"/>
        </g>
        <g id="Rectangle_170-11" data-name="Rectangle 170" transform="translate(904 440)" fill="none" stroke="#2196f3" stroke-width="5">
          <rect width="57" height="57" rx="8" stroke="none"/>
          <rect x="2.5" y="2.5" width="52" height="52" rx="5.5" fill="none"/>
        </g>
        <g id="Rectangle_170-12" data-name="Rectangle 170" transform="translate(976 440)" fill="none" stroke="#2196f3" stroke-width="5">
          <rect width="57" height="57" rx="8" stroke="none"/>
          <rect x="2.5" y="2.5" width="52" height="52" rx="5.5" fill="none"/>
        </g>
        <g id="Rectangle_170-13" data-name="Rectangle 170" transform="translate(1048 440)" fill="none" stroke="#2196f3" stroke-width="5">
          <rect width="57" height="57" rx="8" stroke="none"/>
          <rect x="2.5" y="2.5" width="52" height="52" rx="5.5" fill="none"/>
        </g>
        <g id="Rectangle_170-14" data-name="Rectangle 170" transform="translate(1120 440)" fill="none" stroke="#2196f3" stroke-width="5">
          <rect width="57" height="57" rx="8" stroke="none"/>
          <rect x="2.5" y="2.5" width="52" height="52" rx="5.5" fill="none"/>
        </g>
        <g id="Rectangle_170-15" data-name="Rectangle 170" transform="translate(1192 440)" fill="none" stroke="#2196f3" stroke-width="5">
          <rect width="57" height="57" rx="8" stroke="none"/>
          <rect x="2.5" y="2.5" width="52" height="52" rx="5.5" fill="none"/>
        </g>
        <g id="Rectangle_170-16" data-name="Rectangle 170" transform="translate(1264 440)" fill="none" stroke="#2196f3" stroke-width="5">
          <rect width="57" height="57" rx="8" stroke="none"/>
          <rect x="2.5" y="2.5" width="52" height="52" rx="5.5" fill="none"/>
        </g>
        <g id="Rectangle_170-17" data-name="Rectangle 170" transform="translate(499 512)" fill="none" stroke="#2196f3" stroke-width="5">
          <rect width="57" height="57" rx="8" stroke="none"/>
          <rect x="2.5" y="2.5" width="52" height="52" rx="5.5" fill="none"/>
        </g>
        <g id="Rectangle_170-18" data-name="Rectangle 170" transform="translate(571 512)" fill="none" stroke="#2196f3" stroke-width="5">
          <rect width="57" height="57" rx="8" stroke="none"/>
          <rect x="2.5" y="2.5" width="52" height="52" rx="5.5" fill="none"/>
        </g>
        <g id="Rectangle_170-19" data-name="Rectangle 170" transform="translate(904 512)" fill="none" stroke="#2196f3" stroke-width="5">
          <rect width="57" height="57" rx="8" stroke="none"/>
          <rect x="2.5" y="2.5" width="52" height="52" rx="5.5" fill="none"/>
        </g>
        <g id="Rectangle_170-20" data-name="Rectangle 170" transform="translate(976 512)" fill="none" stroke="#2196f3" stroke-width="5">
          <rect width="57" height="57" rx="8" stroke="none"/>
          <rect x="2.5" y="2.5" width="52" height="52" rx="5.5" fill="none"/>
        </g>
        <g id="Rectangle_170-21" data-name="Rectangle 170" transform="translate(1048 512)" fill="none" stroke="#2196f3" stroke-width="5">
          <rect width="57" height="57" rx="8" stroke="none"/>
          <rect x="2.5" y="2.5" width="52" height="52" rx="5.5" fill="none"/>
        </g>
        <g id="Rectangle_170-22" data-name="Rectangle 170" transform="translate(1120 512)" fill="none" stroke="#2196f3" stroke-width="5">
          <rect width="57" height="57" rx="8" stroke="none"/>
          <rect x="2.5" y="2.5" width="52" height="52" rx="5.5" fill="none"/>
        </g>
        <g id="Rectangle_170-23" data-name="Rectangle 170" transform="translate(1192 512)" fill="none" stroke="#2196f3" stroke-width="5">
          <rect width="57" height="57" rx="8" stroke="none"/>
          <rect x="2.5" y="2.5" width="52" height="52" rx="5.5" fill="none"/>
        </g>
        <g id="Rectangle_170-24" data-name="Rectangle 170" transform="translate(1264 512)" fill="none" stroke="#2196f3" stroke-width="5">
          <rect width="57" height="57" rx="8" stroke="none"/>
          <rect x="2.5" y="2.5" width="52" height="52" rx="5.5" fill="none"/>
        </g>
        <g id="Rectangle_170-25" data-name="Rectangle 170" transform="translate(499 584)" fill="none" stroke="#2196f3" stroke-width="5">
          <rect width="57" height="57" rx="8" stroke="none"/>
          <rect x="2.5" y="2.5" width="52" height="52" rx="5.5" fill="none"/>
        </g>
        <g id="Rectangle_170-26" data-name="Rectangle 170" transform="translate(571 584)" fill="none" stroke="#2196f3" stroke-width="5">
          <rect width="57" height="57" rx="8" stroke="none"/>
          <rect x="2.5" y="2.5" width="52" height="52" rx="5.5" fill="none"/>
        </g>
        <g id="Rectangle_170-27" data-name="Rectangle 170" transform="translate(904 584)" fill="none" stroke="#2196f3" stroke-width="5">
          <rect width="57" height="57" rx="8" stroke="none"/>
          <rect x="2.5" y="2.5" width="52" height="52" rx="5.5" fill="none"/>
        </g>
        <g id="Rectangle_170-28" data-name="Rectangle 170" transform="translate(976 584)" fill="none" stroke="#2196f3" stroke-width="5">
          <rect width="57" height="57" rx="8" stroke="none"/>
          <rect x="2.5" y="2.5" width="52" height="52" rx="5.5" fill="none"/>
        </g>
        <g id="Rectangle_170-29" data-name="Rectangle 170" transform="translate(1048 584)" fill="none" stroke="#2196f3" stroke-width="5">
          <rect width="57" height="57" rx="8" stroke="none"/>
          <rect x="2.5" y="2.5" width="52" height="52" rx="5.5" fill="none"/>
        </g>
        <g id="Rectangle_170-30" data-name="Rectangle 170" transform="translate(1120 584)" fill="none" stroke="#2196f3" stroke-width="5">
          <rect width="57" height="57" rx="8" stroke="none"/>
          <rect x="2.5" y="2.5" width="52" height="52" rx="5.5" fill="none"/>
        </g>
        <g id="Rectangle_170-31" data-name="Rectangle 170" transform="translate(1192 584)" fill="none" stroke="#2196f3" stroke-width="5">
          <rect width="57" height="57" rx="8" stroke="none"/>
          <rect x="2.5" y="2.5" width="52" height="52" rx="5.5" fill="none"/>
        </g>
        <g id="Rectangle_170-32" data-name="Rectangle 170" transform="translate(1264 584)" fill="none" stroke="#2196f3" stroke-width="5">
          <rect width="57" height="57" rx="8" stroke="none"/>
          <rect x="2.5" y="2.5" width="52" height="52" rx="5.5" fill="none"/>
        </g>
        <g id="Rectangle_170-33" data-name="Rectangle 170" transform="translate(499 656)" fill="none" stroke="#2196f3" stroke-width="5">
          <rect width="57" height="57" rx="8" stroke="none"/>
          <rect x="2.5" y="2.5" width="52" height="52" rx="5.5" fill="none"/>
        </g>
        <g id="Rectangle_170-34" data-name="Rectangle 170" transform="translate(571 656)" fill="none" stroke="#2196f3" stroke-width="5">
          <rect width="57" height="57" rx="8" stroke="none"/>
          <rect x="2.5" y="2.5" width="52" height="52" rx="5.5" fill="none"/>
        </g>
        <g id="Rectangle_170-35" data-name="Rectangle 170" transform="translate(904 656)" fill="none" stroke="#2196f3" stroke-width="5">
          <rect width="57" height="57" rx="8" stroke="none"/>
          <rect x="2.5" y="2.5" width="52" height="52" rx="5.5" fill="none"/>
        </g>
        <g id="Rectangle_170-36" data-name="Rectangle 170" transform="translate(976 656)" fill="none" stroke="#2196f3" stroke-width="5">
          <rect width="57" height="57" rx="8" stroke="none"/>
          <rect x="2.5" y="2.5" width="52" height="52" rx="5.5" fill="none"/>
        </g>
        <g id="Rectangle_170-37" data-name="Rectangle 170" transform="translate(1048 656)" fill="none" stroke="#2196f3" stroke-width="5">
          <rect width="57" height="57" rx="8" stroke="none"/>
          <rect x="2.5" y="2.5" width="52" height="52" rx="5.5" fill="none"/>
        </g>
        <g id="Rectangle_170-38" data-name="Rectangle 170" transform="translate(1120 656)" fill="none" stroke="#2196f3" stroke-width="5">
          <rect width="57" height="57" rx="8" stroke="none"/>
          <rect x="2.5" y="2.5" width="52" height="52" rx="5.5" fill="none"/>
        </g>
        <g id="Rectangle_170-39" data-name="Rectangle 170" transform="translate(1192 656)" fill="none" stroke="#2196f3" stroke-width="5">
          <rect width="57" height="57" rx="8" stroke="none"/>
          <rect x="2.5" y="2.5" width="52" height="52" rx="5.5" fill="none"/>
        </g>
        <g id="Rectangle_170-40" data-name="Rectangle 170" transform="translate(1264 656)" fill="none" stroke="#2196f3" stroke-width="5">
          <rect width="57" height="57" rx="8" stroke="none"/>
          <rect x="2.5" y="2.5" width="52" height="52" rx="5.5" fill="none"/>
        </g>
        <g id="Rectangle_170-41" data-name="Rectangle 170" transform="translate(499 728)" fill="none" stroke="#2196f3" stroke-width="5">
          <rect width="57" height="57" rx="8" stroke="none"/>
          <rect x="2.5" y="2.5" width="52" height="52" rx="5.5" fill="none"/>
        </g>
        <g id="Rectangle_170-42" data-name="Rectangle 170" transform="translate(571 728)" fill="none" stroke="#2196f3" stroke-width="5">
          <rect width="57" height="57" rx="8" stroke="none"/>
          <rect x="2.5" y="2.5" width="52" height="52" rx="5.5" fill="none"/>
        </g>
        <g id="Rectangle_170-43" data-name="Rectangle 170" transform="translate(904 728)" fill="none" stroke="#2196f3" stroke-width="5">
          <rect width="57" height="57" rx="8" stroke="none"/>
          <rect x="2.5" y="2.5" width="52" height="52" rx="5.5" fill="none"/>
        </g>
        <g id="Rectangle_170-44" data-name="Rectangle 170" transform="translate(976 728)" fill="none" stroke="#2196f3" stroke-width="5">
          <rect width="57" height="57" rx="8" stroke="none"/>
          <rect x="2.5" y="2.5" width="52" height="52" rx="5.5" fill="none"/>
        </g>
        <g id="Rectangle_170-45" data-name="Rectangle 170" transform="translate(1048 728)" fill="none" stroke="#2196f3" stroke-width="5">
          <rect width="57" height="57" rx="8" stroke="none"/>
          <rect x="2.5" y="2.5" width="52" height="52" rx="5.5" fill="none"/>
        </g>
        <g id="Rectangle_170-46" data-name="Rectangle 170" transform="translate(1120 728)" fill="none" stroke="#2196f3" stroke-width="5">
          <rect width="57" height="57" rx="8" stroke="none"/>
          <rect x="2.5" y="2.5" width="52" height="52" rx="5.5" fill="none"/>
        </g>
        <g id="Rectangle_170-47" data-name="Rectangle 170" transform="translate(1192 728)" fill="none" stroke="#2196f3" stroke-width="5">
          <rect width="57" height="57" rx="8" stroke="none"/>
          <rect x="2.5" y="2.5" width="52" height="52" rx="5.5" fill="none"/>
        </g>
        <g id="Rectangle_170-48" data-name="Rectangle 170" transform="translate(1264 728)" fill="none" stroke="#2196f3" stroke-width="5">
          <rect width="57" height="57" rx="8" stroke="none"/>
          <rect x="2.5" y="2.5" width="52" height="52" rx="5.5" fill="none"/>
        </g>
        <g id="Rectangle_171" data-name="Rectangle 171" transform="translate(499 296)" fill="none" stroke="#2196f3" stroke-width="5">
          <rect width="57" height="57" rx="8" stroke="none"/>
          <rect x="2.5" y="2.5" width="52" height="52" rx="5.5" fill="none"/>
        </g>
        <g id="Rectangle_172" data-name="Rectangle 172" transform="translate(1264 296)" fill="none" stroke="#2196f3" stroke-width="5">
          <rect width="57" height="57" rx="8" stroke="none"/>
          <rect x="2.5" y="2.5" width="52" height="52" rx="5.5" fill="none"/>
        </g>
        <g id="Rectangle_174" data-name="Rectangle 174" transform="translate(643 512)" fill="none" stroke="#2196f3" stroke-width="5">
          <rect width="57" height="57" rx="8" stroke="none"/>
          <rect x="2.5" y="2.5" width="52" height="52" rx="5.5" fill="none"/>
        </g>
        <g id="Rectangle_175" data-name="Rectangle 175" transform="translate(643 584)" fill="none" stroke="#2196f3" stroke-width="5">
          <rect width="57" height="57" rx="8" stroke="none"/>
          <rect x="2.5" y="2.5" width="52" height="52" rx="5.5" fill="none"/>
        </g>
        <g id="Rectangle_176" data-name="Rectangle 176" transform="translate(643 656)" fill="none" stroke="#2196f3" stroke-width="5">
          <rect width="57" height="57" rx="8" stroke="none"/>
          <rect x="2.5" y="2.5" width="52" height="52" rx="5.5" fill="none"/>
        </g>
        <g id="Rectangle_177" data-name="Rectangle 177" transform="translate(643 728)" fill="none" stroke="#2196f3" stroke-width="5">
          <rect width="57" height="57" rx="8" stroke="none"/>
          <rect x="2.5" y="2.5" width="52" height="52" rx="5.5" fill="none"/>
        </g>
        <g id="Rectangle_178" data-name="Rectangle 178" transform="translate(832 512)" fill="none" stroke="#2196f3" stroke-width="5">
          <rect width="57" height="57" rx="8" stroke="none"/>
          <rect x="2.5" y="2.5" width="52" height="52" rx="5.5" fill="none"/>
        </g>
        <g id="Rectangle_179" data-name="Rectangle 179" transform="translate(832 584)" fill="none" stroke="#2196f3" stroke-width="5">
          <rect width="57" height="57" rx="8" stroke="none"/>
          <rect x="2.5" y="2.5" width="52" height="52" rx="5.5" fill="none"/>
        </g>
        <g id="Rectangle_180" data-name="Rectangle 180" transform="translate(832 656)" fill="none" stroke="#2196f3" stroke-width="5">
          <rect width="57" height="57" rx="8" stroke="none"/>
          <rect x="2.5" y="2.5" width="52" height="52" rx="5.5" fill="none"/>
        </g>
        <g id="Rectangle_181" data-name="Rectangle 181" transform="translate(832 728)" fill="none" stroke="#2196f3" stroke-width="5">
          <rect width="57" height="57" rx="8" stroke="none"/>
          <rect x="2.5" y="2.5" width="52" height="52" rx="5.5" fill="none"/>
        </g>
        <path id="Path_155" data-name="Path 155" d="M8.136-3.24a4.149,4.149,0,0,0,4.1,4.1,4.149,4.149,0,0,0,4.1-4.1,4.149,4.149,0,0,0-4.1-4.1A4.149,4.149,0,0,0,8.136-3.24Zm23.76,0A4.149,4.149,0,0,0,36,.864a4.149,4.149,0,0,0,4.1-4.1,4.149,4.149,0,0,0-4.1-4.1A4.149,4.149,0,0,0,31.9-3.24Zm23.76,0a4.149,4.149,0,0,0,4.1,4.1,4.149,4.149,0,0,0,4.1-4.1,4.149,4.149,0,0,0-4.1-4.1A4.149,4.149,0,0,0,55.656-3.24Z" transform="translate(730 546)" fill="#2196f3"/>
        <path id="Path_156" data-name="Path 156" d="M8.136-3.24a4.149,4.149,0,0,0,4.1,4.1,4.149,4.149,0,0,0,4.1-4.1,4.149,4.149,0,0,0-4.1-4.1A4.149,4.149,0,0,0,8.136-3.24Zm23.76,0A4.149,4.149,0,0,0,36,.864a4.149,4.149,0,0,0,4.1-4.1,4.149,4.149,0,0,0-4.1-4.1A4.149,4.149,0,0,0,31.9-3.24Zm23.76,0a4.149,4.149,0,0,0,4.1,4.1,4.149,4.149,0,0,0,4.1-4.1,4.149,4.149,0,0,0-4.1-4.1A4.149,4.149,0,0,0,55.656-3.24Z" transform="translate(730 618)" fill="#2196f3"/>
        <path id="Path_157" data-name="Path 157" d="M8.136-3.24a4.149,4.149,0,0,0,4.1,4.1,4.149,4.149,0,0,0,4.1-4.1,4.149,4.149,0,0,0-4.1-4.1A4.149,4.149,0,0,0,8.136-3.24Zm23.76,0A4.149,4.149,0,0,0,36,.864a4.149,4.149,0,0,0,4.1-4.1,4.149,4.149,0,0,0-4.1-4.1A4.149,4.149,0,0,0,31.9-3.24Zm23.76,0a4.149,4.149,0,0,0,4.1,4.1,4.149,4.149,0,0,0,4.1-4.1,4.149,4.149,0,0,0-4.1-4.1A4.149,4.149,0,0,0,55.656-3.24Z" transform="translate(730 690)" fill="#2196f3"/>
        <path id="Path_158" data-name="Path 158" d="M8.136-3.24a4.149,4.149,0,0,0,4.1,4.1,4.149,4.149,0,0,0,4.1-4.1,4.149,4.149,0,0,0-4.1-4.1A4.149,4.149,0,0,0,8.136-3.24Zm23.76,0A4.149,4.149,0,0,0,36,.864a4.149,4.149,0,0,0,4.1-4.1,4.149,4.149,0,0,0-4.1-4.1A4.149,4.149,0,0,0,31.9-3.24Zm23.76,0a4.149,4.149,0,0,0,4.1,4.1,4.149,4.149,0,0,0,4.1-4.1,4.149,4.149,0,0,0-4.1-4.1A4.149,4.149,0,0,0,55.656-3.24Z" transform="translate(730 762)" fill="#2196f3"/>
      </g>
      <g id="Group_77" data-name="Group 77" transform="translate(1713.558 -187.115) rotate(90)">
        <g id="Group_36" data-name="Group 36" transform="translate(461.5 310.115) rotate(45)">
          <line id="Line_26" data-name="Line 26" y2="26" transform="translate(2 0)" fill="none" stroke="#151515" stroke-width="4"/>
          <line id="Line_27" data-name="Line 27" y2="26" transform="translate(26 2) rotate(90)" fill="none" stroke="#151515" stroke-width="4"/>
        </g>
        <line id="Line_28" data-name="Line 28" y2="866.73" transform="translate(461.5 314.5)" fill="none" stroke="#151515" stroke-width="4"/>
      </g>
      <g id="Group_78" data-name="Group 78" transform="translate(552.77 810.192) rotate(180)">
        <g id="Group_36-2" data-name="Group 36" transform="translate(18.385 0) rotate(45)">
          <line id="Line_26-2" data-name="Line 26" y2="26" transform="translate(2 0)" fill="none" stroke="#151515" stroke-width="4"/>
          <line id="Line_27-2" data-name="Line 27" y2="26" transform="translate(26 2) rotate(90)" fill="none" stroke="#151515" stroke-width="4"/>
        </g>
        <line id="Line_28-2" data-name="Line 28" y2="533.48" transform="translate(18.385 4.385)" fill="none" stroke="#151515" stroke-width="4"/>
      </g>
      <path id="Path_162" data-name="Path 162" d="M3.264,0H6.12V-23.8H3.264ZM19.04-16.116A5.588,5.588,0,0,0,14.212-13.5v-2.21H11.56V0h2.856V-10.812s1.36-2.652,3.91-2.652A3.483,3.483,0,0,1,22.1-9.622V0h2.856V-10.1A5.717,5.717,0,0,0,19.04-16.116ZM40.9-4.488a5.765,5.765,0,0,1-4.59,2.244c-3.162,0-5.236-2.516-5.236-5.61s2.074-5.61,5.236-5.61a5.805,5.805,0,0,1,4.318,1.9l1.938-1.734a8.419,8.419,0,0,0-6.256-2.822A8.064,8.064,0,0,0,28.22-7.854,8.044,8.044,0,0,0,36.312.408a8.471,8.471,0,0,0,6.426-3.026ZM52.564-16.116a5.256,5.256,0,0,0-4.386,2.822v-2.414H45.526V0h2.856V-10.812s1.122-2.652,3.6-2.652a3.984,3.984,0,0,1,1.8.34l1.054-2.584A6.566,6.566,0,0,0,52.564-16.116Zm10.744,0c-4.726,0-7.854,3.672-7.854,8.262A8.026,8.026,0,0,0,63.648.408a8.756,8.756,0,0,0,6.528-3.094l-1.8-1.87a6.066,6.066,0,0,1-4.726,2.312,5.3,5.3,0,0,1-5.406-4.59H70.924a8.918,8.918,0,0,0,.034-.918C70.958-12.818,67.694-16.116,63.308-16.116Zm-5,6.9a4.871,4.871,0,0,1,5-4.25,4.729,4.729,0,0,1,4.862,4.25Zm22.134-6.9a11.7,11.7,0,0,0-5.882,1.6l1.19,2.38a10.879,10.879,0,0,1,4.692-1.326c1.258,0,3.978.442,3.978,3.706v.85A8.792,8.792,0,0,0,79.7-10.2c-3.536,0-6.222,2.176-6.222,5.236,0,3.4,3.026,5.372,5.848,5.372A6.639,6.639,0,0,0,84.66-2.278V0h2.618V-10.336C87.278-13.26,85.068-16.116,80.444-16.116Zm-.51,14.008c-1.768,0-3.6-.816-3.6-2.856,0-1.632,1.53-2.856,3.978-2.856A7.525,7.525,0,0,1,84.422-6.7v2.21A6.031,6.031,0,0,1,79.934-2.108ZM90.61-2.89a8.608,8.608,0,0,0,6.732,3.3c3.026,0,6.222-1.564,6.222-4.59,0-3.2-2.55-4.318-5.542-4.964-2.584-.544-3.808-1.19-3.808-2.38,0-1.02.986-2.006,2.992-2.006A5.768,5.768,0,0,1,101.15-11.8l1.87-1.938a8.164,8.164,0,0,0-5.814-2.38c-3.5,0-5.78,2.244-5.78,4.522,0,2.958,2.38,4.284,5.746,4.964,2.414.476,3.57,1.156,3.57,2.516,0,1.258-1.8,1.938-3.4,1.938a6.059,6.059,0,0,1-4.76-2.55Zm17,2.89h2.856V-15.708H107.61Zm-.51-20.74a1.959,1.959,0,0,0,1.938,1.938,1.959,1.959,0,0,0,1.938-1.938,1.959,1.959,0,0,0-1.938-1.938A1.959,1.959,0,0,0,107.1-20.74Zm15.708,4.624A5.588,5.588,0,0,0,117.98-13.5v-2.21h-2.652V0h2.856V-10.812s1.36-2.652,3.91-2.652a3.483,3.483,0,0,1,3.774,3.842V0h2.856V-10.1A5.717,5.717,0,0,0,122.808-16.116ZM144.67.2c0,3.536-2.074,5.372-5.406,5.372a6.932,6.932,0,0,1-5.134-2.482L132.4,5.236a9.583,9.583,0,0,0,6.868,2.992c4.556,0,8.262-2.72,8.262-8.16V-15.708h-2.618v2.278a6.115,6.115,0,0,0-5.3-2.686c-4.25,0-7.616,3.638-7.616,8.262S135.354.408,139.6.408a6.32,6.32,0,0,0,5.066-2.38Zm0-5.1a5.584,5.584,0,0,1-4.624,2.652c-3.2,0-5.2-2.516-5.2-5.61s2.006-5.61,5.2-5.61a5.655,5.655,0,0,1,4.624,2.652Z" transform="translate(885 243)" fill="#151515"/>
      <path id="Path_161" data-name="Path 161" d="M9.622-23.8H2.788V0H9.622C17,0,21.386-5.032,21.386-11.9S17-23.8,9.622-23.8ZM9.452-2.72H5.644V-21.08H9.452c5.814,0,8.874,4.114,8.874,9.18S15.266-2.72,9.452-2.72Zm22.168-13.4c-4.726,0-7.854,3.672-7.854,8.262A8.026,8.026,0,0,0,31.96.408a8.756,8.756,0,0,0,6.528-3.094l-1.8-1.87A6.066,6.066,0,0,1,31.96-2.244a5.3,5.3,0,0,1-5.406-4.59H39.236a8.919,8.919,0,0,0,.034-.918C39.27-12.818,36.006-16.116,31.62-16.116Zm-5,6.9a4.871,4.871,0,0,1,5-4.25,4.729,4.729,0,0,1,4.862,4.25ZM54.128-4.488a5.765,5.765,0,0,1-4.59,2.244c-3.162,0-5.236-2.516-5.236-5.61s2.074-5.61,5.236-5.61a5.8,5.8,0,0,1,4.318,1.9l1.938-1.734a8.419,8.419,0,0,0-6.256-2.822,8.064,8.064,0,0,0-8.092,8.262A8.044,8.044,0,0,0,49.538.408a8.471,8.471,0,0,0,6.426-3.026ZM65.79-16.116A5.256,5.256,0,0,0,61.4-13.294v-2.414H58.752V0h2.856V-10.812s1.122-2.652,3.6-2.652a3.984,3.984,0,0,1,1.8.34l1.054-2.584A6.566,6.566,0,0,0,65.79-16.116Zm10.744,0c-4.726,0-7.854,3.672-7.854,8.262A8.026,8.026,0,0,0,76.874.408,8.756,8.756,0,0,0,83.4-2.686l-1.8-1.87a6.066,6.066,0,0,1-4.726,2.312,5.3,5.3,0,0,1-5.406-4.59H84.15a8.918,8.918,0,0,0,.034-.918C84.184-12.818,80.92-16.116,76.534-16.116Zm-5,6.9a4.871,4.871,0,0,1,5-4.25A4.729,4.729,0,0,1,81.4-9.214Zm22.134-6.9a11.7,11.7,0,0,0-5.882,1.6l1.19,2.38a10.879,10.879,0,0,1,4.692-1.326c1.258,0,3.978.442,3.978,3.706v.85A8.792,8.792,0,0,0,92.922-10.2c-3.536,0-6.222,2.176-6.222,5.236,0,3.4,3.026,5.372,5.848,5.372a6.639,6.639,0,0,0,5.338-2.686V0H100.5V-10.336C100.5-13.26,98.294-16.116,93.67-16.116ZM93.16-2.108c-1.768,0-3.6-.816-3.6-2.856,0-1.632,1.53-2.856,3.978-2.856A7.525,7.525,0,0,1,97.648-6.7v2.21A6.031,6.031,0,0,1,93.16-2.108Zm10.676-.782a8.608,8.608,0,0,0,6.732,3.3c3.026,0,6.222-1.564,6.222-4.59,0-3.2-2.55-4.318-5.542-4.964-2.584-.544-3.808-1.19-3.808-2.38,0-1.02.986-2.006,2.992-2.006a5.768,5.768,0,0,1,3.944,1.734l1.87-1.938a8.164,8.164,0,0,0-5.814-2.38c-3.5,0-5.78,2.244-5.78,4.522,0,2.958,2.38,4.284,5.746,4.964,2.414.476,3.57,1.156,3.57,2.516,0,1.258-1.8,1.938-3.4,1.938a6.059,6.059,0,0,1-4.76-2.55Zm17,2.89h2.856V-15.708h-2.856Zm-.51-20.74a1.959,1.959,0,0,0,1.938,1.938A1.959,1.959,0,0,0,124.2-20.74a1.959,1.959,0,0,0-1.938-1.938A1.959,1.959,0,0,0,120.326-20.74Zm15.708,4.624a5.588,5.588,0,0,0-4.828,2.618v-2.21h-2.652V0h2.856V-10.812s1.36-2.652,3.91-2.652a3.483,3.483,0,0,1,3.774,3.842V0h2.856V-10.1A5.717,5.717,0,0,0,136.034-16.116ZM157.9.2c0,3.536-2.074,5.372-5.406,5.372a6.932,6.932,0,0,1-5.134-2.482l-1.734,2.142a9.583,9.583,0,0,0,6.868,2.992c4.556,0,8.262-2.72,8.262-8.16V-15.708h-2.618v2.278a6.115,6.115,0,0,0-5.3-2.686c-4.25,0-7.616,3.638-7.616,8.262S148.58.408,152.83.408a6.32,6.32,0,0,0,5.066-2.38Zm0-5.1a5.584,5.584,0,0,1-4.624,2.652c-3.2,0-5.2-2.516-5.2-5.61s2.006-5.61,5.2-5.61a5.655,5.655,0,0,1,4.624,2.652Z" transform="translate(502.5 615) rotate(-90)" fill="#151515"/>
    </g>
  </g>
</svg>
