<svg xmlns="http://www.w3.org/2000/svg" width="1920" height="355" viewBox="0 0 1920 355">
  <g id="Group_10" data-name="Group 10" transform="translate(0 -363)">
    <rect id="Rectangle_2" data-name="Rectangle 2" width="1920" height="355" transform="translate(0 363)" fill="#fafafa"/>
    <g id="Group_9" data-name="Group 9" transform="translate(-0.774 3.312)">
      <path id="Path_13" data-name="Path 13" d="M19.839-5.1C12.8-5.1,7.956-10.965,7.956-17.85S12.8-30.6,19.839-30.6a12.275,12.275,0,0,1,9.078,3.927L33.048-30.7a17.889,17.889,0,0,0-13.209-5.61c-10.3,0-18.105,7.905-18.105,18.462S9.537.612,19.839.612A18,18,0,0,0,33.558-5.457l-4.08-4.029A12.7,12.7,0,0,1,19.839-5.1Z" transform="translate(879 557)" fill="#151515"/>
      <path id="Path_12" data-name="Path 12" d="M3.774,0h6.12V-13.464H12.7L21.165,0h7.14L19.38-13.872c5.1-1.275,7.956-5.355,7.956-10.71C27.336-31.11,22.593-35.7,15.5-35.7H3.774ZM14.739-19.278H9.894V-29.886h4.845c3.927,0,6.375,1.785,6.375,5.3S18.666-19.278,14.739-19.278Z" transform="translate(721 557)" fill="#151515"/>
      <path id="Path_14" data-name="Path 14" d="M19.788-36.312c-10.4,0-18.054,7.905-18.054,18.462S9.384.612,19.788.612,37.842-7.293,37.842-17.85,30.192-36.312,19.788-36.312Zm0,31.11C12.6-5.2,7.956-10.965,7.956-17.85S12.6-30.5,19.788-30.5,31.62-24.735,31.62-17.85,26.979-5.2,19.788-5.2Z" transform="translate(1001 440)" fill="#151515"/>
      <path id="Path_15" data-name="Path 15" d="M19.788-36.312c-10.4,0-18.054,7.905-18.054,18.462S9.384.612,19.788.612,37.842-7.293,37.842-17.85,30.192-36.312,19.788-36.312Zm0,31.11C12.6-5.2,7.956-10.965,7.956-17.85S12.6-30.5,19.788-30.5,31.62-24.735,31.62-17.85,26.979-5.2,19.788-5.2Z" transform="translate(1001 670)" fill="#151515"/>
      <path id="Path_16" data-name="Path 16" d="M3.774,0h6.12V-13.464H12.7L21.165,0h7.14L19.38-13.872c5.1-1.275,7.956-5.355,7.956-10.71C27.336-31.11,22.593-35.7,15.5-35.7H3.774ZM14.739-19.278H9.894V-29.886h4.845c3.927,0,6.375,1.785,6.375,5.3S18.666-19.278,14.739-19.278Z" transform="translate(1169 670)" fill="#151515"/>
      <line id="Line_11" data-name="Line 11" y2="100.663" transform="translate(865.163 542.765) rotate(90)" fill="none" stroke="#151515" stroke-width="7"/>
      <line id="Line_12" data-name="Line 12" y2="100.663" transform="translate(1156.163 655.765) rotate(90)" fill="none" stroke="#151515" stroke-width="7"/>
      <line id="Line_13" data-name="Line 13" y2="100.663" transform="translate(995.422 633.355) rotate(135)" fill="none" stroke="#151515" stroke-width="7"/>
      <line id="Line_14" data-name="Line 14" y2="100.663" transform="translate(929.242 519.355) rotate(-135)" fill="none" stroke="#151515" stroke-width="7"/>
      <line id="Line_15" data-name="Line 15" y2="100.663" transform="translate(921.242 512.355) rotate(-135)" fill="none" stroke="#151515" stroke-width="7"/>
    </g>
  </g>
</svg>
