<svg xmlns="http://www.w3.org/2000/svg" width="1918.595" height="837.031" viewBox="0 0 1918.595 837.031">
  <g id="Group_8" data-name="Group 8" transform="translate(-1 -121)">
    <rect id="Rectangle_1" data-name="Rectangle 1" width="1918.595" height="837.031" transform="translate(1 121)" fill="#fafafa"/>
    <g id="Group_7" data-name="Group 7">
      <path id="Path_8" data-name="Path 8" d="M20.228-5.2c-7.176,0-12.116-5.98-12.116-13s4.94-13,12.116-13a12.516,12.516,0,0,1,9.256,4L33.7-31.3a18.24,18.24,0,0,0-13.468-5.72c-10.5,0-18.46,8.06-18.46,18.824S9.724.624,20.228.624A18.348,18.348,0,0,0,34.216-5.564l-4.16-4.108A12.954,12.954,0,0,1,20.228-5.2Z" transform="translate(923.048 371.968)" fill="#151515"/>
      <path id="Path_7" data-name="Path 7" d="M20.228-5.2c-7.176,0-12.116-5.98-12.116-13s4.94-13,12.116-13a12.516,12.516,0,0,1,9.256,4L33.7-31.3a18.24,18.24,0,0,0-13.468-5.72c-10.5,0-18.46,8.06-18.46,18.824S9.724.624,20.228.624A18.348,18.348,0,0,0,34.216-5.564l-4.16-4.108A12.954,12.954,0,0,1,20.228-5.2Z" transform="translate(923.048 552.984)" fill="#151515"/>
      <path id="Path_6" data-name="Path 6" d="M20.228-5.2c-7.176,0-12.116-5.98-12.116-13s4.94-13,12.116-13a12.516,12.516,0,0,1,9.256,4L33.7-31.3a18.24,18.24,0,0,0-13.468-5.72c-10.5,0-18.46,8.06-18.46,18.824S9.724.624,20.228.624A18.348,18.348,0,0,0,34.216-5.564l-4.16-4.108A12.954,12.954,0,0,1,20.228-5.2Z" transform="translate(923.048 734)" fill="#151515"/>
      <line id="Line_1" data-name="Line 1" y2="100.663" transform="translate(942.15 393.22)" fill="none" stroke="#151515" stroke-width="7"/>
      <line id="Line_2" data-name="Line 2" y2="100.663" transform="translate(942.15 573.353)" fill="none" stroke="#151515" stroke-width="7"/>
      <line id="Line_3" data-name="Line 3" y2="100.663" transform="translate(1079.016 355.251) rotate(90)" fill="none" stroke="#151515" stroke-width="7"/>
      <line id="Line_4" data-name="Line 4" y2="100.663" transform="translate(1079.016 536.267) rotate(90)" fill="none" stroke="#151515" stroke-width="7"/>
      <line id="Line_5" data-name="Line 5" y2="100.663" transform="translate(1079.016 717.283) rotate(90)" fill="none" stroke="#151515" stroke-width="7"/>
      <path id="Path_9" data-name="Path 9" d="M19.788-36.312c-10.4,0-18.054,7.905-18.054,18.462S9.384.612,19.788.612,37.842-7.293,37.842-17.85,30.192-36.312,19.788-36.312Zm0,31.11C12.6-5.2,7.956-10.965,7.956-17.85S12.6-30.5,19.788-30.5,31.62-24.735,31.62-17.85,26.979-5.2,19.788-5.2ZM64.719-21.165H49.47V-35.7H43.35V0h6.12V-15.351H64.719V0h6.12V-35.7h-6.12Z" transform="translate(1098 370.968)" fill="#151515"/>
      <path id="Path_10" data-name="Path 10" d="M19.788-36.312c-10.4,0-18.054,7.905-18.054,18.462S9.384.612,19.788.612,37.842-7.293,37.842-17.85,30.192-36.312,19.788-36.312Zm0,31.11C12.6-5.2,7.956-10.965,7.956-17.85S12.6-30.5,19.788-30.5,31.62-24.735,31.62-17.85,26.979-5.2,19.788-5.2ZM64.719-21.165H49.47V-35.7H43.35V0h6.12V-15.351H64.719V0h6.12V-35.7h-6.12Z" transform="translate(1098 551.984)" fill="#151515"/>
      <path id="Path_11" data-name="Path 11" d="M19.788-36.312c-10.4,0-18.054,7.905-18.054,18.462S9.384.612,19.788.612,37.842-7.293,37.842-17.85,30.192-36.312,19.788-36.312Zm0,31.11C12.6-5.2,7.956-10.965,7.956-17.85S12.6-30.5,19.788-30.5,31.62-24.735,31.62-17.85,26.979-5.2,19.788-5.2ZM64.719-21.165H49.47V-35.7H43.35V0h6.12V-15.351H64.719V0h6.12V-35.7h-6.12Z" transform="translate(1098 733)" fill="#151515"/>
      <line id="Line_6" data-name="Line 6" y2="100.663" transform="translate(903.016 355.251) rotate(90)" fill="none" stroke="#151515" stroke-width="7"/>
      <line id="Line_7" data-name="Line 7" y2="100.663" transform="translate(903.016 536.267) rotate(90)" fill="none" stroke="#151515" stroke-width="7"/>
      <line id="Line_8" data-name="Line 8" y2="100.663" transform="translate(903.016 717.283) rotate(90)" fill="none" stroke="#151515" stroke-width="7"/>
      <line id="Line_9" data-name="Line 9" y2="100.663" transform="translate(942.15 754.353)" fill="none" stroke="#151515" stroke-width="7"/>
      <line id="Line_10" data-name="Line 10" y2="100.663" transform="translate(942.15 218.22)" fill="none" stroke="#151515" stroke-width="7"/>
      <path id="Path_5" data-name="Path 5" d="M25.143-21.165H9.894V-35.7H3.774V0h6.12V-15.351H25.143V0h6.12V-35.7h-6.12Z" transform="translate(924 908)" fill="#151515"/>
      <path id="Path_1" data-name="Path 1" d="M25.143-21.165H9.894V-35.7H3.774V0h6.12V-15.351H25.143V0h6.12V-35.7h-6.12Z" transform="translate(924 200)" fill="#151515"/>
      <path id="Path_4" data-name="Path 4" d="M25.143-21.165H9.894V-35.7H3.774V0h6.12V-15.351H25.143V0h6.12V-35.7h-6.12Z" transform="translate(750 732)" fill="#151515"/>
      <path id="Path_3" data-name="Path 3" d="M25.143-21.165H9.894V-35.7H3.774V0h6.12V-15.351H25.143V0h6.12V-35.7h-6.12Z" transform="translate(748 551)" fill="#151515"/>
      <path id="Path_2" data-name="Path 2" d="M25.143-21.165H9.894V-35.7H3.774V0h6.12V-15.351H25.143V0h6.12V-35.7h-6.12Z" transform="translate(750 370)" fill="#151515"/>
    </g>
  </g>
</svg>
