<svg xmlns="http://www.w3.org/2000/svg" width="1432" height="462" viewBox="0 0 1432 462">
  <g id="Group_35" data-name="Group 35" transform="translate(-244 -309)">
    <rect id="Rectangle_3" data-name="Rectangle 3" width="1432" height="462" transform="translate(244 309)" fill="#fafafa"/>
    <g id="Group_34" data-name="Group 34" transform="translate(-53.668 -27.059)">
      <g id="Group_28" data-name="Group 28">
        <line id="Line_25" data-name="Line 25" y2="76.933" transform="translate(780.767 438.626)" fill="none" stroke="#151515" stroke-width="4"/>
        <g id="Group_12" data-name="Group 12" transform="translate(715.599 449.483) rotate(45)">
          <line id="Line_16" data-name="Line 16" y2="25.231" transform="translate(0.827 90.997)" fill="none" stroke="#151515" stroke-width="4"/>
          <line id="Line_17" data-name="Line 17" y2="25.231" transform="translate(23.99 68.247)" fill="none" stroke="#151515" stroke-width="4"/>
          <line id="Line_18" data-name="Line 18" y2="25.231" transform="translate(25.231 92.237) rotate(90)" fill="none" stroke="#151515" stroke-width="4"/>
          <line id="Line_19" data-name="Line 19" y2="25.231" transform="translate(46.739 45.498)" fill="none" stroke="#151515" stroke-width="4"/>
          <line id="Line_20" data-name="Line 20" y2="25.231" transform="translate(47.98 69.488) rotate(90)" fill="none" stroke="#151515" stroke-width="4"/>
          <line id="Line_21" data-name="Line 21" y2="25.231" transform="translate(69.488 22.749)" fill="none" stroke="#151515" stroke-width="4"/>
          <line id="Line_22" data-name="Line 22" y2="25.231" transform="translate(70.729 46.739) rotate(90)" fill="none" stroke="#151515" stroke-width="4"/>
          <line id="Line_23" data-name="Line 23" y2="25.231" transform="translate(92.237)" fill="none" stroke="#151515" stroke-width="4"/>
          <line id="Line_24" data-name="Line 24" y2="25.231" transform="translate(93.478 23.99) rotate(90)" fill="none" stroke="#151515" stroke-width="4"/>
        </g>
        <g id="Group_26" data-name="Group 26">
          <line id="Line_16-2" data-name="Line 16" y2="25.231" transform="matrix(0.53, 0.848, -0.848, 0.53, 630.065, 421.102)" fill="none" stroke="#151515" stroke-width="4"/>
          <line id="Line_17-2" data-name="Line 17" y2="25.231" transform="matrix(0.53, 0.848, -0.848, 0.53, 661.632, 428.69)" fill="none" stroke="#151515" stroke-width="4"/>
          <line id="Line_18-2" data-name="Line 18" y2="25.231" transform="matrix(-0.848, 0.53, -0.53, -0.848, 641.945, 442.455)" fill="none" stroke="#151515" stroke-width="4"/>
          <line id="Line_19-2" data-name="Line 19" y2="25.231" transform="matrix(0.53, 0.848, -0.848, 0.53, 692.979, 435.928)" fill="none" stroke="#151515" stroke-width="4"/>
          <line id="Line_20-2" data-name="Line 20" y2="25.231" transform="matrix(-0.848, 0.53, -0.53, -0.848, 673.292, 449.693)" fill="none" stroke="#151515" stroke-width="4"/>
          <line id="Line_21-2" data-name="Line 21" y2="25.231" transform="translate(748.235 439.426) rotate(45)" fill="none" stroke="#151515" stroke-width="4"/>
          <line id="Line_22-2" data-name="Line 22" y2="25.231" transform="translate(732.149 457.267) rotate(135)" fill="none" stroke="#151515" stroke-width="4"/>
          <line id="Line_23-2" data-name="Line 23" y2="25.231" transform="translate(780.407 439.426) rotate(45)" fill="none" stroke="#151515" stroke-width="4"/>
          <line id="Line_24-2" data-name="Line 24" y2="25.231" transform="translate(764.321 457.267) rotate(135)" fill="none" stroke="#151515" stroke-width="4"/>
          <path id="Path_17" data-name="Path 17" d="M2.805-14.433h20.91v-3.774H2.805Zm0,8.058h20.91v-3.774H2.805Z" transform="translate(688.418 449.035) rotate(8)" fill="#151515"/>
        </g>
        <g id="Group_27" data-name="Group 27" transform="translate(781.668 466.058)">
          <line id="Line_16-3" data-name="Line 16" y1="25.231" transform="matrix(0.53, -0.848, 0.848, 0.53, 0, 22.794)" fill="none" stroke="#151515" stroke-width="4"/>
          <line id="Line_17-3" data-name="Line 17" y1="25.231" transform="matrix(0.53, -0.848, 0.848, 0.53, 31.567, 15.206)" fill="none" stroke="#151515" stroke-width="4"/>
          <line id="Line_18-3" data-name="Line 18" y1="25.231" transform="matrix(-0.848, -0.53, 0.53, -0.848, 19.906, 36.208)" fill="none" stroke="#151515" stroke-width="4"/>
          <line id="Line_19-3" data-name="Line 19" y1="25.231" transform="matrix(0.53, -0.848, 0.848, 0.53, 62.914, 7.969)" fill="none" stroke="#151515" stroke-width="4"/>
          <line id="Line_20-3" data-name="Line 20" y1="25.231" transform="matrix(-0.848, -0.53, 0.53, -0.848, 51.254, 28.971)" fill="none" stroke="#151515" stroke-width="4"/>
          <line id="Line_21-3" data-name="Line 21" y1="25.231" transform="translate(121.726 0) rotate(-45)" fill="none" stroke="#151515" stroke-width="4"/>
          <line id="Line_22-3" data-name="Line 22" y1="25.231" transform="translate(105.64 17.841) rotate(-135)" fill="none" stroke="#151515" stroke-width="4"/>
          <line id="Line_23-3" data-name="Line 23" y1="25.231" transform="translate(153.898 0) rotate(-45)" fill="none" stroke="#151515" stroke-width="4"/>
          <line id="Line_24-3" data-name="Line 24" y1="25.231" transform="translate(137.812 17.841) rotate(-135)" fill="none" stroke="#151515" stroke-width="4"/>
          <path id="Path_17-2" data-name="Path 17" d="M0,8.058H20.91v3.774H0ZM0,0H20.91V3.774H0Z" transform="translate(83.415 14.154) rotate(-8)" fill="#151515"/>
        </g>
      </g>
      <g id="Group_29" data-name="Group 29" transform="translate(225 109)">
        <line id="Line_25-2" data-name="Line 25" y2="76.933" transform="translate(780.767 438.626)" fill="none" stroke="#151515" stroke-width="4"/>
        <g id="Group_12-2" data-name="Group 12" transform="translate(715.599 449.483) rotate(45)">
          <line id="Line_16-4" data-name="Line 16" y2="25.231" transform="translate(0.827 90.997)" fill="none" stroke="#151515" stroke-width="4"/>
          <line id="Line_17-4" data-name="Line 17" y2="25.231" transform="translate(23.99 68.247)" fill="none" stroke="#151515" stroke-width="4"/>
          <line id="Line_18-4" data-name="Line 18" y2="25.231" transform="translate(25.231 92.237) rotate(90)" fill="none" stroke="#151515" stroke-width="4"/>
          <line id="Line_19-4" data-name="Line 19" y2="25.231" transform="translate(46.739 45.498)" fill="none" stroke="#151515" stroke-width="4"/>
          <line id="Line_20-4" data-name="Line 20" y2="25.231" transform="translate(47.98 69.488) rotate(90)" fill="none" stroke="#151515" stroke-width="4"/>
          <line id="Line_21-4" data-name="Line 21" y2="25.231" transform="translate(69.488 22.749)" fill="none" stroke="#151515" stroke-width="4"/>
          <line id="Line_22-4" data-name="Line 22" y2="25.231" transform="translate(70.729 46.739) rotate(90)" fill="none" stroke="#151515" stroke-width="4"/>
          <line id="Line_23-4" data-name="Line 23" y2="25.231" transform="translate(92.237)" fill="none" stroke="#151515" stroke-width="4"/>
          <line id="Line_24-4" data-name="Line 24" y2="25.231" transform="translate(93.478 23.99) rotate(90)" fill="none" stroke="#151515" stroke-width="4"/>
        </g>
        <g id="Group_26-2" data-name="Group 26">
          <line id="Line_16-5" data-name="Line 16" y2="25.231" transform="matrix(0.53, 0.848, -0.848, 0.53, 630.065, 421.102)" fill="none" stroke="#151515" stroke-width="4"/>
          <line id="Line_17-5" data-name="Line 17" y2="25.231" transform="matrix(0.53, 0.848, -0.848, 0.53, 661.632, 428.69)" fill="none" stroke="#151515" stroke-width="4"/>
          <line id="Line_18-5" data-name="Line 18" y2="25.231" transform="matrix(-0.848, 0.53, -0.53, -0.848, 641.945, 442.455)" fill="none" stroke="#151515" stroke-width="4"/>
          <line id="Line_19-5" data-name="Line 19" y2="25.231" transform="matrix(0.53, 0.848, -0.848, 0.53, 692.979, 435.928)" fill="none" stroke="#151515" stroke-width="4"/>
          <line id="Line_20-5" data-name="Line 20" y2="25.231" transform="matrix(-0.848, 0.53, -0.53, -0.848, 673.292, 449.693)" fill="none" stroke="#151515" stroke-width="4"/>
          <line id="Line_21-5" data-name="Line 21" y2="25.231" transform="translate(748.235 439.426) rotate(45)" fill="none" stroke="#151515" stroke-width="4"/>
          <line id="Line_22-5" data-name="Line 22" y2="25.231" transform="translate(732.149 457.267) rotate(135)" fill="none" stroke="#151515" stroke-width="4"/>
          <line id="Line_23-5" data-name="Line 23" y2="25.231" transform="translate(780.407 439.426) rotate(45)" fill="none" stroke="#151515" stroke-width="4"/>
          <line id="Line_24-5" data-name="Line 24" y2="25.231" transform="translate(764.321 457.267) rotate(135)" fill="none" stroke="#151515" stroke-width="4"/>
          <path id="Path_17-3" data-name="Path 17" d="M2.805-14.433h20.91v-3.774H2.805Zm0,8.058h20.91v-3.774H2.805Z" transform="translate(688.418 449.035) rotate(8)" fill="#151515"/>
        </g>
        <g id="Group_27-2" data-name="Group 27" transform="translate(781.668 466.058)">
          <line id="Line_16-6" data-name="Line 16" y1="25.231" transform="matrix(0.53, -0.848, 0.848, 0.53, 0, 22.794)" fill="none" stroke="#151515" stroke-width="4"/>
          <line id="Line_17-6" data-name="Line 17" y1="25.231" transform="matrix(0.53, -0.848, 0.848, 0.53, 31.567, 15.206)" fill="none" stroke="#151515" stroke-width="4"/>
          <line id="Line_18-6" data-name="Line 18" y1="25.231" transform="matrix(-0.848, -0.53, 0.53, -0.848, 19.906, 36.208)" fill="none" stroke="#151515" stroke-width="4"/>
          <line id="Line_19-6" data-name="Line 19" y1="25.231" transform="matrix(0.53, -0.848, 0.848, 0.53, 62.914, 7.969)" fill="none" stroke="#151515" stroke-width="4"/>
          <line id="Line_20-6" data-name="Line 20" y1="25.231" transform="matrix(-0.848, -0.53, 0.53, -0.848, 51.254, 28.971)" fill="none" stroke="#151515" stroke-width="4"/>
          <line id="Line_21-6" data-name="Line 21" y1="25.231" transform="translate(121.726 0) rotate(-45)" fill="none" stroke="#151515" stroke-width="4"/>
          <line id="Line_22-6" data-name="Line 22" y1="25.231" transform="translate(105.64 17.841) rotate(-135)" fill="none" stroke="#151515" stroke-width="4"/>
          <line id="Line_23-6" data-name="Line 23" y1="25.231" transform="translate(153.898 0) rotate(-45)" fill="none" stroke="#151515" stroke-width="4"/>
          <line id="Line_24-6" data-name="Line 24" y1="25.231" transform="translate(137.812 17.841) rotate(-135)" fill="none" stroke="#151515" stroke-width="4"/>
          <path id="Path_17-4" data-name="Path 17" d="M0,8.058H20.91v3.774H0ZM0,0H20.91V3.774H0Z" transform="translate(83.415 14.154) rotate(-8)" fill="#151515"/>
        </g>
      </g>
      <g id="Group_30" data-name="Group 30" transform="translate(368 -31)">
        <line id="Line_25-3" data-name="Line 25" y2="76.933" transform="translate(780.767 438.626)" fill="none" stroke="#151515" stroke-width="4"/>
        <g id="Group_12-3" data-name="Group 12" transform="translate(715.599 449.483) rotate(45)">
          <line id="Line_16-7" data-name="Line 16" y2="25.231" transform="translate(0.827 90.997)" fill="none" stroke="#151515" stroke-width="4"/>
          <line id="Line_17-7" data-name="Line 17" y2="25.231" transform="translate(23.99 68.247)" fill="none" stroke="#151515" stroke-width="4"/>
          <line id="Line_18-7" data-name="Line 18" y2="25.231" transform="translate(25.231 92.237) rotate(90)" fill="none" stroke="#151515" stroke-width="4"/>
          <line id="Line_19-7" data-name="Line 19" y2="25.231" transform="translate(46.739 45.498)" fill="none" stroke="#151515" stroke-width="4"/>
          <line id="Line_20-7" data-name="Line 20" y2="25.231" transform="translate(47.98 69.488) rotate(90)" fill="none" stroke="#151515" stroke-width="4"/>
          <line id="Line_21-7" data-name="Line 21" y2="25.231" transform="translate(69.488 22.749)" fill="none" stroke="#151515" stroke-width="4"/>
          <line id="Line_22-7" data-name="Line 22" y2="25.231" transform="translate(70.729 46.739) rotate(90)" fill="none" stroke="#151515" stroke-width="4"/>
          <line id="Line_23-7" data-name="Line 23" y2="25.231" transform="translate(92.237)" fill="none" stroke="#151515" stroke-width="4"/>
          <line id="Line_24-7" data-name="Line 24" y2="25.231" transform="translate(93.478 23.99) rotate(90)" fill="none" stroke="#151515" stroke-width="4"/>
        </g>
        <g id="Group_26-3" data-name="Group 26">
          <line id="Line_16-8" data-name="Line 16" y2="25.231" transform="matrix(0.53, 0.848, -0.848, 0.53, 630.065, 421.102)" fill="none" stroke="#151515" stroke-width="4"/>
          <line id="Line_17-8" data-name="Line 17" y2="25.231" transform="matrix(0.53, 0.848, -0.848, 0.53, 661.632, 428.69)" fill="none" stroke="#151515" stroke-width="4"/>
          <line id="Line_18-8" data-name="Line 18" y2="25.231" transform="matrix(-0.848, 0.53, -0.53, -0.848, 641.945, 442.455)" fill="none" stroke="#151515" stroke-width="4"/>
          <line id="Line_19-8" data-name="Line 19" y2="25.231" transform="matrix(0.53, 0.848, -0.848, 0.53, 692.979, 435.928)" fill="none" stroke="#151515" stroke-width="4"/>
          <line id="Line_20-8" data-name="Line 20" y2="25.231" transform="matrix(-0.848, 0.53, -0.53, -0.848, 673.292, 449.693)" fill="none" stroke="#151515" stroke-width="4"/>
          <line id="Line_21-8" data-name="Line 21" y2="25.231" transform="translate(748.235 439.426) rotate(45)" fill="none" stroke="#151515" stroke-width="4"/>
          <line id="Line_22-8" data-name="Line 22" y2="25.231" transform="translate(732.149 457.267) rotate(135)" fill="none" stroke="#151515" stroke-width="4"/>
          <line id="Line_23-8" data-name="Line 23" y2="25.231" transform="translate(780.407 439.426) rotate(45)" fill="none" stroke="#151515" stroke-width="4"/>
          <line id="Line_24-8" data-name="Line 24" y2="25.231" transform="translate(764.321 457.267) rotate(135)" fill="none" stroke="#151515" stroke-width="4"/>
          <path id="Path_17-5" data-name="Path 17" d="M2.805-14.433h20.91v-3.774H2.805Zm0,8.058h20.91v-3.774H2.805Z" transform="translate(688.418 449.035) rotate(8)" fill="#151515"/>
        </g>
        <g id="Group_27-3" data-name="Group 27" transform="translate(781.668 466.058)">
          <line id="Line_16-9" data-name="Line 16" y1="25.231" transform="matrix(0.53, -0.848, 0.848, 0.53, 0, 22.794)" fill="none" stroke="#151515" stroke-width="4"/>
          <line id="Line_17-9" data-name="Line 17" y1="25.231" transform="matrix(0.53, -0.848, 0.848, 0.53, 31.567, 15.206)" fill="none" stroke="#151515" stroke-width="4"/>
          <line id="Line_18-9" data-name="Line 18" y1="25.231" transform="matrix(-0.848, -0.53, 0.53, -0.848, 19.906, 36.208)" fill="none" stroke="#151515" stroke-width="4"/>
          <line id="Line_19-9" data-name="Line 19" y1="25.231" transform="matrix(0.53, -0.848, 0.848, 0.53, 62.914, 7.969)" fill="none" stroke="#151515" stroke-width="4"/>
          <line id="Line_20-9" data-name="Line 20" y1="25.231" transform="matrix(-0.848, -0.53, 0.53, -0.848, 51.254, 28.971)" fill="none" stroke="#151515" stroke-width="4"/>
          <line id="Line_21-9" data-name="Line 21" y1="25.231" transform="translate(121.726 0) rotate(-45)" fill="none" stroke="#151515" stroke-width="4"/>
          <line id="Line_22-9" data-name="Line 22" y1="25.231" transform="translate(105.64 17.841) rotate(-135)" fill="none" stroke="#151515" stroke-width="4"/>
          <line id="Line_23-9" data-name="Line 23" y1="25.231" transform="translate(153.898 0) rotate(-45)" fill="none" stroke="#151515" stroke-width="4"/>
          <line id="Line_24-9" data-name="Line 24" y1="25.231" transform="translate(137.812 17.841) rotate(-135)" fill="none" stroke="#151515" stroke-width="4"/>
          <path id="Path_17-6" data-name="Path 17" d="M0,8.058H20.91v3.774H0ZM0,0H20.91V3.774H0Z" transform="translate(83.415 14.154) rotate(-8)" fill="#151515"/>
        </g>
      </g>
      <g id="Group_31" data-name="Group 31" transform="translate(488.668 540.058)">
        <line id="Line_25-4" data-name="Line 25" y1="76.933" transform="translate(172.64 82.208)" fill="none" stroke="#151515" stroke-width="4"/>
        <g id="Group_12-4" data-name="Group 12" transform="translate(237.808 148.284) rotate(-135)">
          <line id="Line_16-10" data-name="Line 16" y2="25.231" transform="translate(0.827 90.997)" fill="none" stroke="#151515" stroke-width="4"/>
          <line id="Line_17-10" data-name="Line 17" y2="25.231" transform="translate(23.99 68.247)" fill="none" stroke="#151515" stroke-width="4"/>
          <line id="Line_18-10" data-name="Line 18" y2="25.231" transform="translate(25.231 92.237) rotate(90)" fill="none" stroke="#151515" stroke-width="4"/>
          <line id="Line_19-10" data-name="Line 19" y2="25.231" transform="translate(46.739 45.498)" fill="none" stroke="#151515" stroke-width="4"/>
          <line id="Line_20-10" data-name="Line 20" y2="25.231" transform="translate(47.98 69.488) rotate(90)" fill="none" stroke="#151515" stroke-width="4"/>
          <line id="Line_21-10" data-name="Line 21" y2="25.231" transform="translate(69.488 22.749)" fill="none" stroke="#151515" stroke-width="4"/>
          <line id="Line_22-10" data-name="Line 22" y2="25.231" transform="translate(70.729 46.739) rotate(90)" fill="none" stroke="#151515" stroke-width="4"/>
          <line id="Line_23-10" data-name="Line 23" y2="25.231" transform="translate(92.237 0)" fill="none" stroke="#151515" stroke-width="4"/>
          <line id="Line_24-10" data-name="Line 24" y2="25.231" transform="translate(93.478 23.99) rotate(90)" fill="none" stroke="#151515" stroke-width="4"/>
        </g>
        <g id="Group_26-4" data-name="Group 26" transform="translate(173 140.501)">
          <line id="Line_16-11" data-name="Line 16" y2="25.231" transform="matrix(-0.53, -0.848, 0.848, -0.53, 150.342, 36.164)" fill="none" stroke="#151515" stroke-width="4"/>
          <line id="Line_17-11" data-name="Line 17" y2="25.231" transform="matrix(-0.53, -0.848, 0.848, -0.53, 118.775, 28.576)" fill="none" stroke="#151515" stroke-width="4"/>
          <line id="Line_18-11" data-name="Line 18" y2="25.231" transform="matrix(0.848, -0.53, 0.53, 0.848, 138.462, 14.811)" fill="none" stroke="#151515" stroke-width="4"/>
          <line id="Line_19-11" data-name="Line 19" y2="25.231" transform="matrix(-0.53, -0.848, 0.848, -0.53, 87.427, 21.339)" fill="none" stroke="#151515" stroke-width="4"/>
          <line id="Line_20-11" data-name="Line 20" y2="25.231" transform="matrix(0.848, -0.53, 0.53, 0.848, 107.115, 7.574)" fill="none" stroke="#151515" stroke-width="4"/>
          <line id="Line_21-11" data-name="Line 21" y2="25.231" transform="translate(32.172 17.841) rotate(-135)" fill="none" stroke="#151515" stroke-width="4"/>
          <line id="Line_22-11" data-name="Line 22" y2="25.231" transform="translate(48.258 0) rotate(-45)" fill="none" stroke="#151515" stroke-width="4"/>
          <line id="Line_23-11" data-name="Line 23" y2="25.231" transform="translate(0 17.841) rotate(-135)" fill="none" stroke="#151515" stroke-width="4"/>
          <line id="Line_24-11" data-name="Line 24" y2="25.231" transform="translate(16.086 0) rotate(-45)" fill="none" stroke="#151515" stroke-width="4"/>
          <path id="Path_17-7" data-name="Path 17" d="M0,3.774H20.91V0H0Zm0,8.058H20.91V8.058H0Z" transform="translate(86.677 25.871) rotate(-172)" fill="#151515"/>
        </g>
        <g id="Group_27-4" data-name="Group 27" transform="translate(0 95.501)">
          <line id="Line_16-12" data-name="Line 16" y1="25.231" transform="matrix(-0.53, 0.848, -0.848, -0.53, 171.739, 13.414)" fill="none" stroke="#151515" stroke-width="4"/>
          <line id="Line_17-12" data-name="Line 17" y1="25.231" transform="matrix(-0.53, 0.848, -0.848, -0.53, 140.172, 21.002)" fill="none" stroke="#151515" stroke-width="4"/>
          <line id="Line_18-12" data-name="Line 18" y1="25.231" transform="matrix(0.848, 0.53, -0.53, 0.848, 151.832, 0)" fill="none" stroke="#151515" stroke-width="4"/>
          <line id="Line_19-12" data-name="Line 19" y1="25.231" transform="matrix(-0.53, 0.848, -0.848, -0.53, 108.824, 28.239)" fill="none" stroke="#151515" stroke-width="4"/>
          <line id="Line_20-12" data-name="Line 20" y1="25.231" transform="matrix(0.848, 0.53, -0.53, 0.848, 120.485, 7.237)" fill="none" stroke="#151515" stroke-width="4"/>
          <line id="Line_21-12" data-name="Line 21" y1="25.231" transform="translate(50.013 36.208) rotate(135)" fill="none" stroke="#151515" stroke-width="4"/>
          <line id="Line_22-12" data-name="Line 22" y1="25.231" transform="translate(66.099 18.367) rotate(45)" fill="none" stroke="#151515" stroke-width="4"/>
          <line id="Line_23-12" data-name="Line 23" y1="25.231" transform="translate(17.841 36.208) rotate(135)" fill="none" stroke="#151515" stroke-width="4"/>
          <line id="Line_24-12" data-name="Line 24" y1="25.231" transform="translate(33.927 18.367) rotate(45)" fill="none" stroke="#151515" stroke-width="4"/>
          <path id="Path_17-8" data-name="Path 17" d="M0,8.058H20.91v3.774H0ZM0,0H20.91V3.774H0Z" transform="translate(88.323 22.054) rotate(172)" fill="#151515"/>
        </g>
      </g>
      <g id="Group_32" data-name="Group 32" transform="translate(1194.668 405.058)">
        <line id="Line_25-5" data-name="Line 25" y1="76.933" transform="translate(172.64 82.208)" fill="none" stroke="#151515" stroke-width="4"/>
        <g id="Group_12-5" data-name="Group 12" transform="translate(237.808 148.284) rotate(-135)">
          <line id="Line_16-13" data-name="Line 16" y2="25.231" transform="translate(0.827 90.997)" fill="none" stroke="#151515" stroke-width="4"/>
          <line id="Line_17-13" data-name="Line 17" y2="25.231" transform="translate(23.99 68.247)" fill="none" stroke="#151515" stroke-width="4"/>
          <line id="Line_18-13" data-name="Line 18" y2="25.231" transform="translate(25.231 92.237) rotate(90)" fill="none" stroke="#151515" stroke-width="4"/>
          <line id="Line_19-13" data-name="Line 19" y2="25.231" transform="translate(46.739 45.498)" fill="none" stroke="#151515" stroke-width="4"/>
          <line id="Line_20-13" data-name="Line 20" y2="25.231" transform="translate(47.98 69.488) rotate(90)" fill="none" stroke="#151515" stroke-width="4"/>
          <line id="Line_21-13" data-name="Line 21" y2="25.231" transform="translate(69.488 22.749)" fill="none" stroke="#151515" stroke-width="4"/>
          <line id="Line_22-13" data-name="Line 22" y2="25.231" transform="translate(70.729 46.739) rotate(90)" fill="none" stroke="#151515" stroke-width="4"/>
          <line id="Line_23-13" data-name="Line 23" y2="25.231" transform="translate(92.237 0)" fill="none" stroke="#151515" stroke-width="4"/>
          <line id="Line_24-13" data-name="Line 24" y2="25.231" transform="translate(93.478 23.99) rotate(90)" fill="none" stroke="#151515" stroke-width="4"/>
        </g>
        <g id="Group_26-5" data-name="Group 26" transform="translate(173 140.501)">
          <line id="Line_16-14" data-name="Line 16" y2="25.231" transform="matrix(-0.53, -0.848, 0.848, -0.53, 150.342, 36.164)" fill="none" stroke="#151515" stroke-width="4"/>
          <line id="Line_17-14" data-name="Line 17" y2="25.231" transform="matrix(-0.53, -0.848, 0.848, -0.53, 118.775, 28.576)" fill="none" stroke="#151515" stroke-width="4"/>
          <line id="Line_18-14" data-name="Line 18" y2="25.231" transform="matrix(0.848, -0.53, 0.53, 0.848, 138.462, 14.811)" fill="none" stroke="#151515" stroke-width="4"/>
          <line id="Line_19-14" data-name="Line 19" y2="25.231" transform="matrix(-0.53, -0.848, 0.848, -0.53, 87.427, 21.339)" fill="none" stroke="#151515" stroke-width="4"/>
          <line id="Line_20-14" data-name="Line 20" y2="25.231" transform="matrix(0.848, -0.53, 0.53, 0.848, 107.115, 7.574)" fill="none" stroke="#151515" stroke-width="4"/>
          <line id="Line_21-14" data-name="Line 21" y2="25.231" transform="translate(32.172 17.841) rotate(-135)" fill="none" stroke="#151515" stroke-width="4"/>
          <line id="Line_22-14" data-name="Line 22" y2="25.231" transform="translate(48.258 0) rotate(-45)" fill="none" stroke="#151515" stroke-width="4"/>
          <line id="Line_23-14" data-name="Line 23" y2="25.231" transform="translate(0 17.841) rotate(-135)" fill="none" stroke="#151515" stroke-width="4"/>
          <line id="Line_24-14" data-name="Line 24" y2="25.231" transform="translate(16.086 0) rotate(-45)" fill="none" stroke="#151515" stroke-width="4"/>
          <path id="Path_17-9" data-name="Path 17" d="M0,3.774H20.91V0H0Zm0,8.058H20.91V8.058H0Z" transform="translate(86.677 25.871) rotate(-172)" fill="#151515"/>
        </g>
        <g id="Group_27-5" data-name="Group 27" transform="translate(0 95.501)">
          <line id="Line_16-15" data-name="Line 16" y1="25.231" transform="matrix(-0.53, 0.848, -0.848, -0.53, 171.739, 13.414)" fill="none" stroke="#151515" stroke-width="4"/>
          <line id="Line_17-15" data-name="Line 17" y1="25.231" transform="matrix(-0.53, 0.848, -0.848, -0.53, 140.172, 21.002)" fill="none" stroke="#151515" stroke-width="4"/>
          <line id="Line_18-15" data-name="Line 18" y1="25.231" transform="matrix(0.848, 0.53, -0.53, 0.848, 151.832, 0)" fill="none" stroke="#151515" stroke-width="4"/>
          <line id="Line_19-15" data-name="Line 19" y1="25.231" transform="matrix(-0.53, 0.848, -0.848, -0.53, 108.824, 28.239)" fill="none" stroke="#151515" stroke-width="4"/>
          <line id="Line_20-15" data-name="Line 20" y1="25.231" transform="matrix(0.848, 0.53, -0.53, 0.848, 120.485, 7.237)" fill="none" stroke="#151515" stroke-width="4"/>
          <line id="Line_21-15" data-name="Line 21" y1="25.231" transform="translate(50.013 36.208) rotate(135)" fill="none" stroke="#151515" stroke-width="4"/>
          <line id="Line_22-15" data-name="Line 22" y1="25.231" transform="translate(66.099 18.367) rotate(45)" fill="none" stroke="#151515" stroke-width="4"/>
          <line id="Line_23-15" data-name="Line 23" y1="25.231" transform="translate(17.841 36.208) rotate(135)" fill="none" stroke="#151515" stroke-width="4"/>
          <line id="Line_24-15" data-name="Line 24" y1="25.231" transform="translate(33.927 18.367) rotate(45)" fill="none" stroke="#151515" stroke-width="4"/>
          <path id="Path_17-10" data-name="Path 17" d="M0,8.058H20.91v3.774H0ZM0,0H20.91V3.774H0Z" transform="translate(88.323 22.054) rotate(172)" fill="#151515"/>
        </g>
      </g>
      <g id="Group_33" data-name="Group 33" transform="translate(1032.668 567.058)">
        <line id="Line_25-6" data-name="Line 25" y1="76.933" transform="translate(172.64 82.208)" fill="none" stroke="#151515" stroke-width="4"/>
        <g id="Group_12-6" data-name="Group 12" transform="translate(237.808 148.284) rotate(-135)">
          <line id="Line_16-16" data-name="Line 16" y2="25.231" transform="translate(0.827 90.997)" fill="none" stroke="#151515" stroke-width="4"/>
          <line id="Line_17-16" data-name="Line 17" y2="25.231" transform="translate(23.99 68.247)" fill="none" stroke="#151515" stroke-width="4"/>
          <line id="Line_18-16" data-name="Line 18" y2="25.231" transform="translate(25.231 92.237) rotate(90)" fill="none" stroke="#151515" stroke-width="4"/>
          <line id="Line_19-16" data-name="Line 19" y2="25.231" transform="translate(46.739 45.498)" fill="none" stroke="#151515" stroke-width="4"/>
          <line id="Line_20-16" data-name="Line 20" y2="25.231" transform="translate(47.98 69.488) rotate(90)" fill="none" stroke="#151515" stroke-width="4"/>
          <line id="Line_21-16" data-name="Line 21" y2="25.231" transform="translate(69.488 22.749)" fill="none" stroke="#151515" stroke-width="4"/>
          <line id="Line_22-16" data-name="Line 22" y2="25.231" transform="translate(70.729 46.739) rotate(90)" fill="none" stroke="#151515" stroke-width="4"/>
          <line id="Line_23-16" data-name="Line 23" y2="25.231" transform="translate(92.237 0)" fill="none" stroke="#151515" stroke-width="4"/>
          <line id="Line_24-16" data-name="Line 24" y2="25.231" transform="translate(93.478 23.99) rotate(90)" fill="none" stroke="#151515" stroke-width="4"/>
        </g>
        <g id="Group_26-6" data-name="Group 26" transform="translate(173 140.501)">
          <line id="Line_16-17" data-name="Line 16" y2="25.231" transform="matrix(-0.53, -0.848, 0.848, -0.53, 150.342, 36.164)" fill="none" stroke="#151515" stroke-width="4"/>
          <line id="Line_17-17" data-name="Line 17" y2="25.231" transform="matrix(-0.53, -0.848, 0.848, -0.53, 118.775, 28.576)" fill="none" stroke="#151515" stroke-width="4"/>
          <line id="Line_18-17" data-name="Line 18" y2="25.231" transform="matrix(0.848, -0.53, 0.53, 0.848, 138.462, 14.811)" fill="none" stroke="#151515" stroke-width="4"/>
          <line id="Line_19-17" data-name="Line 19" y2="25.231" transform="matrix(-0.53, -0.848, 0.848, -0.53, 87.427, 21.339)" fill="none" stroke="#151515" stroke-width="4"/>
          <line id="Line_20-17" data-name="Line 20" y2="25.231" transform="matrix(0.848, -0.53, 0.53, 0.848, 107.115, 7.574)" fill="none" stroke="#151515" stroke-width="4"/>
          <line id="Line_21-17" data-name="Line 21" y2="25.231" transform="translate(32.172 17.841) rotate(-135)" fill="none" stroke="#151515" stroke-width="4"/>
          <line id="Line_22-17" data-name="Line 22" y2="25.231" transform="translate(48.258 0) rotate(-45)" fill="none" stroke="#151515" stroke-width="4"/>
          <line id="Line_23-17" data-name="Line 23" y2="25.231" transform="translate(0 17.841) rotate(-135)" fill="none" stroke="#151515" stroke-width="4"/>
          <line id="Line_24-17" data-name="Line 24" y2="25.231" transform="translate(16.086 0) rotate(-45)" fill="none" stroke="#151515" stroke-width="4"/>
          <path id="Path_17-11" data-name="Path 17" d="M0,3.774H20.91V0H0Zm0,8.058H20.91V8.058H0Z" transform="translate(86.677 25.871) rotate(-172)" fill="#151515"/>
        </g>
        <g id="Group_27-6" data-name="Group 27" transform="translate(0 95.501)">
          <line id="Line_16-18" data-name="Line 16" y1="25.231" transform="matrix(-0.53, 0.848, -0.848, -0.53, 171.739, 13.414)" fill="none" stroke="#151515" stroke-width="4"/>
          <line id="Line_17-18" data-name="Line 17" y1="25.231" transform="matrix(-0.53, 0.848, -0.848, -0.53, 140.172, 21.002)" fill="none" stroke="#151515" stroke-width="4"/>
          <line id="Line_18-18" data-name="Line 18" y1="25.231" transform="matrix(0.848, 0.53, -0.53, 0.848, 151.832, 0)" fill="none" stroke="#151515" stroke-width="4"/>
          <line id="Line_19-18" data-name="Line 19" y1="25.231" transform="matrix(-0.53, 0.848, -0.848, -0.53, 108.824, 28.239)" fill="none" stroke="#151515" stroke-width="4"/>
          <line id="Line_20-18" data-name="Line 20" y1="25.231" transform="matrix(0.848, 0.53, -0.53, 0.848, 120.485, 7.237)" fill="none" stroke="#151515" stroke-width="4"/>
          <line id="Line_21-18" data-name="Line 21" y1="25.231" transform="translate(50.013 36.208) rotate(135)" fill="none" stroke="#151515" stroke-width="4"/>
          <line id="Line_22-18" data-name="Line 22" y1="25.231" transform="translate(66.099 18.367) rotate(45)" fill="none" stroke="#151515" stroke-width="4"/>
          <line id="Line_23-18" data-name="Line 23" y1="25.231" transform="translate(17.841 36.208) rotate(135)" fill="none" stroke="#151515" stroke-width="4"/>
          <line id="Line_24-18" data-name="Line 24" y1="25.231" transform="translate(33.927 18.367) rotate(45)" fill="none" stroke="#151515" stroke-width="4"/>
          <path id="Path_17-12" data-name="Path 17" d="M0,8.058H20.91v3.774H0ZM0,0H20.91V3.774H0Z" transform="translate(88.323 22.054) rotate(172)" fill="#151515"/>
        </g>
      </g>
    </g>
  </g>
</svg>
