<svg xmlns="http://www.w3.org/2000/svg" width="1363" height="573" viewBox="0 0 1363 573">
  <g id="Group_75" data-name="Group 75" transform="translate(-279 -228)">
    <g id="Group_67" data-name="Group 67">
      <rect id="Rectangle_5" data-name="Rectangle 5" width="1363" height="573" transform="translate(279 228)" fill="#fafafa"/>
    </g>
    <g id="Group_74" data-name="Group 74">
      <g id="Group_73" data-name="Group 73" transform="translate(1292 371.499)">
        <g id="Group_36" data-name="Group 36" transform="translate(18.385 0) rotate(45)">
          <line id="Line_26" data-name="Line 26" y2="26" transform="translate(2)" fill="none" stroke="#151515" stroke-width="4"/>
          <line id="Line_27" data-name="Line 27" y2="26" transform="translate(26 2) rotate(90)" fill="none" stroke="#151515" stroke-width="4"/>
        </g>
        <line id="Line_28" data-name="Line 28" y2="236.617" transform="translate(18.385 4.385)" fill="none" stroke="#151515" stroke-width="4"/>
      </g>
      <g id="Group_70" data-name="Group 70" transform="translate(607 371.289)">
        <g id="Group_36-2" data-name="Group 36" transform="translate(18.385 0) rotate(45)">
          <line id="Line_26-2" data-name="Line 26" x2="0.177" y2="26.177" transform="translate(2.014 0.014)" fill="none" stroke="#151515" stroke-width="4"/>
          <line id="Line_27-2" data-name="Line 27" x1="0.177" y2="26.177" transform="translate(26.191 2.014) rotate(90)" fill="none" stroke="#151515" stroke-width="4"/>
        </g>
        <line id="Line_28-2" data-name="Line 28" y2="115.379" transform="translate(18.385 4.445)" fill="none" stroke="#151515" stroke-width="4"/>
      </g>
      <path id="Path_147" data-name="Path 147" d="M2.788,0H5.644V-9.452h3.3c4.964,0,8.126-2.618,8.126-7.174S13.906-23.8,8.942-23.8H2.788ZM5.644-12.172V-21.08H8.772c3.23,0,5.44,1.428,5.44,4.454S12-12.172,8.772-12.172ZM26.35-16.116a11.7,11.7,0,0,0-5.882,1.6l1.19,2.38a10.879,10.879,0,0,1,4.692-1.326c1.258,0,3.978.442,3.978,3.706v.85A8.792,8.792,0,0,0,25.6-10.2c-3.536,0-6.222,2.176-6.222,5.236,0,3.4,3.026,5.372,5.848,5.372a6.639,6.639,0,0,0,5.338-2.686V0h2.618V-10.336C33.184-13.26,30.974-16.116,26.35-16.116ZM25.84-2.108c-1.768,0-3.6-.816-3.6-2.856,0-1.632,1.53-2.856,3.978-2.856A7.525,7.525,0,0,1,30.328-6.7v2.21A6.031,6.031,0,0,1,25.84-2.108ZM36.176-13.124h3.06v8.6A4.593,4.593,0,0,0,43.962.408a6.473,6.473,0,0,0,3.264-.952L46.172-2.89a3.728,3.728,0,0,1-1.8.646,2.1,2.1,0,0,1-2.278-2.414v-8.466h4.9v-2.584h-4.9V-20.5H39.236v4.794h-3.06Zm22.236-2.992A5.529,5.529,0,0,0,53.788-13.8V-25.7H50.932V0h2.856V-10.812s1.36-2.652,3.91-2.652a3.483,3.483,0,0,1,3.774,3.842V0h2.856V-10.1A5.717,5.717,0,0,0,58.412-16.116Zm26.792,0a8.044,8.044,0,0,0-8.092,8.262A8.044,8.044,0,0,0,85.2.408,8.044,8.044,0,0,0,93.3-7.854,8.044,8.044,0,0,0,85.2-16.116Zm0,13.872c-3.162,0-5.236-2.516-5.236-5.61s2.074-5.61,5.236-5.61,5.236,2.516,5.236,5.61S88.366-2.244,85.2-2.244Zm9.86-10.88h3.264V0h2.856V-13.124h4.08v-2.584h-4.08v-5.236a2.254,2.254,0,0,1,2.38-2.516,4.059,4.059,0,0,1,1.836.612l1.054-2.346a6.483,6.483,0,0,0-3.3-.918,4.81,4.81,0,0,0-4.828,5v5.406H95.064Zm29.716-2.992a5.256,5.256,0,0,0-4.386,2.822v-2.414h-2.652V0H120.6V-10.812s1.122-2.652,3.6-2.652a3.984,3.984,0,0,1,1.8.34l1.054-2.584A6.566,6.566,0,0,0,124.78-16.116Zm10.744,0c-4.726,0-7.854,3.672-7.854,8.262A8.026,8.026,0,0,0,135.864.408a8.756,8.756,0,0,0,6.528-3.094l-1.8-1.87a6.066,6.066,0,0,1-4.726,2.312,5.3,5.3,0,0,1-5.406-4.59H143.14a8.92,8.92,0,0,0,.034-.918C143.174-12.818,139.91-16.116,135.524-16.116Zm-5,6.9a4.871,4.871,0,0,1,5-4.25,4.729,4.729,0,0,1,4.862,4.25Zm22.134-6.9a11.7,11.7,0,0,0-5.882,1.6l1.19,2.38a10.879,10.879,0,0,1,4.692-1.326c1.258,0,3.978.442,3.978,3.706v.85a8.792,8.792,0,0,0-4.726-1.292c-3.536,0-6.222,2.176-6.222,5.236,0,3.4,3.026,5.372,5.848,5.372a6.639,6.639,0,0,0,5.338-2.686V0h2.618V-10.336C159.494-13.26,157.284-16.116,152.66-16.116Zm-.51,14.008c-1.768,0-3.6-.816-3.6-2.856,0-1.632,1.53-2.856,3.978-2.856A7.525,7.525,0,0,1,156.638-6.7v2.21A6.031,6.031,0,0,1,152.15-2.108Zm23.29-2.38a5.765,5.765,0,0,1-4.59,2.244c-3.162,0-5.236-2.516-5.236-5.61s2.074-5.61,5.236-5.61a5.8,5.8,0,0,1,4.318,1.9l1.938-1.734a8.419,8.419,0,0,0-6.256-2.822,8.064,8.064,0,0,0-8.092,8.262A8.044,8.044,0,0,0,170.85.408a8.471,8.471,0,0,0,6.426-3.026Zm3.264-8.636h3.06v8.6A4.593,4.593,0,0,0,186.49.408a6.473,6.473,0,0,0,3.264-.952L188.7-2.89a3.728,3.728,0,0,1-1.8.646,2.1,2.1,0,0,1-2.278-2.414v-8.466h4.9v-2.584h-4.9V-20.5h-2.856v4.794H178.7ZM193.358,0h2.856V-15.708h-2.856Zm-.51-20.74a1.959,1.959,0,0,0,1.938,1.938,1.959,1.959,0,0,0,1.938-1.938,1.959,1.959,0,0,0-1.938-1.938A1.959,1.959,0,0,0,192.848-20.74Zm15.232,4.624a8.044,8.044,0,0,0-8.092,8.262A8.044,8.044,0,0,0,208.08.408a8.044,8.044,0,0,0,8.092-8.262A8.044,8.044,0,0,0,208.08-16.116Zm0,13.872c-3.162,0-5.236-2.516-5.236-5.61s2.074-5.61,5.236-5.61,5.236,2.516,5.236,5.61S211.242-2.244,208.08-2.244Zm18.836-13.872a5.588,5.588,0,0,0-4.828,2.618v-2.21h-2.652V0h2.856V-10.812s1.36-2.652,3.91-2.652a3.483,3.483,0,0,1,3.774,3.842V0h2.856V-10.1A5.717,5.717,0,0,0,226.916-16.116Z" transform="translate(527 759)" fill="#151515"/>
      <path id="Path_146" data-name="Path 146" d="M2.788,0H5.644V-9.452h3.3c4.964,0,8.126-2.618,8.126-7.174S13.906-23.8,8.942-23.8H2.788ZM5.644-12.172V-21.08H8.772c3.23,0,5.44,1.428,5.44,4.454S12-12.172,8.772-12.172Zm21.488-3.944A8.044,8.044,0,0,0,19.04-7.854,8.044,8.044,0,0,0,27.132.408a8.044,8.044,0,0,0,8.092-8.262A8.044,8.044,0,0,0,27.132-16.116Zm0,13.872c-3.162,0-5.236-2.516-5.236-5.61s2.074-5.61,5.236-5.61,5.236,2.516,5.236,5.61S30.294-2.244,27.132-2.244Zm10-10.88h3.06v8.6A4.593,4.593,0,0,0,44.914.408a6.473,6.473,0,0,0,3.264-.952L47.124-2.89a3.728,3.728,0,0,1-1.8.646,2.1,2.1,0,0,1-2.278-2.414v-8.466h4.9v-2.584h-4.9V-20.5H40.188v4.794h-3.06Zm20.91-2.992c-4.726,0-7.854,3.672-7.854,8.262A8.026,8.026,0,0,0,58.378.408a8.756,8.756,0,0,0,6.528-3.094l-1.8-1.87a6.066,6.066,0,0,1-4.726,2.312,5.3,5.3,0,0,1-5.406-4.59H65.654a8.918,8.918,0,0,0,.034-.918C65.688-12.818,62.424-16.116,58.038-16.116Zm-5,6.9a4.871,4.871,0,0,1,5-4.25A4.729,4.729,0,0,1,62.9-9.214Zm23.392-6.9A5.588,5.588,0,0,0,71.6-13.5v-2.21H68.952V0h2.856V-10.812s1.36-2.652,3.91-2.652a3.483,3.483,0,0,1,3.774,3.842V0h2.856V-10.1A5.717,5.717,0,0,0,76.432-16.116Zm8.908,2.992H88.4v8.6A4.593,4.593,0,0,0,93.126.408,6.473,6.473,0,0,0,96.39-.544L95.336-2.89a3.728,3.728,0,0,1-1.8.646,2.1,2.1,0,0,1-2.278-2.414v-8.466h4.9v-2.584h-4.9V-20.5H88.4v4.794H85.34ZM99.994,0h2.856V-15.708H99.994Zm-.51-20.74a1.959,1.959,0,0,0,1.938,1.938,1.959,1.959,0,0,0,1.938-1.938,1.959,1.959,0,0,0-1.938-1.938A1.959,1.959,0,0,0,99.484-20.74Zm14.45,4.624a11.7,11.7,0,0,0-5.882,1.6l1.19,2.38a10.879,10.879,0,0,1,4.692-1.326c1.258,0,3.978.442,3.978,3.706v.85a8.792,8.792,0,0,0-4.726-1.292c-3.536,0-6.222,2.176-6.222,5.236,0,3.4,3.026,5.372,5.848,5.372a6.639,6.639,0,0,0,5.338-2.686V0h2.618V-10.336C120.768-13.26,118.558-16.116,113.934-16.116Zm-.51,14.008c-1.768,0-3.6-.816-3.6-2.856,0-1.632,1.53-2.856,3.978-2.856A7.525,7.525,0,0,1,117.912-6.7v2.21A6.031,6.031,0,0,1,113.424-2.108ZM125.732,0h2.856V-25.7h-2.856Zm24.106-16.116c-4.726,0-7.854,3.672-7.854,8.262A8.026,8.026,0,0,0,150.178.408a8.756,8.756,0,0,0,6.528-3.094l-1.8-1.87a6.066,6.066,0,0,1-4.726,2.312,5.3,5.3,0,0,1-5.406-4.59h12.682a8.92,8.92,0,0,0,.034-.918C157.488-12.818,154.224-16.116,149.838-16.116Zm-5,6.9a4.871,4.871,0,0,1,5-4.25,4.729,4.729,0,0,1,4.862,4.25Zm23.392-6.9A5.588,5.588,0,0,0,163.4-13.5v-2.21h-2.652V0h2.856V-10.812s1.36-2.652,3.91-2.652a3.483,3.483,0,0,1,3.774,3.842V0h2.856V-10.1A5.717,5.717,0,0,0,168.232-16.116Zm17.034,0c-4.726,0-7.854,3.672-7.854,8.262A8.026,8.026,0,0,0,185.606.408a8.756,8.756,0,0,0,6.528-3.094l-1.8-1.87a6.066,6.066,0,0,1-4.726,2.312,5.3,5.3,0,0,1-5.406-4.59h12.682a8.92,8.92,0,0,0,.034-.918C192.916-12.818,189.652-16.116,185.266-16.116Zm-5,6.9a4.871,4.871,0,0,1,5-4.25,4.729,4.729,0,0,1,4.862,4.25Zm22.95-6.9a5.256,5.256,0,0,0-4.386,2.822v-2.414H196.18V0h2.856V-10.812s1.122-2.652,3.6-2.652a3.984,3.984,0,0,1,1.8.34l1.054-2.584A6.566,6.566,0,0,0,203.218-16.116ZM218.79.2c0,3.536-2.074,5.372-5.406,5.372a6.932,6.932,0,0,1-5.134-2.482l-1.734,2.142a9.583,9.583,0,0,0,6.868,2.992c4.556,0,8.262-2.72,8.262-8.16V-15.708h-2.618v2.278a6.115,6.115,0,0,0-5.3-2.686c-4.25,0-7.616,3.638-7.616,8.262S209.474.408,213.724.408a6.32,6.32,0,0,0,5.066-2.38Zm0-5.1a5.584,5.584,0,0,1-4.624,2.652c-3.2,0-5.2-2.516-5.2-5.61s2.006-5.61,5.2-5.61a5.655,5.655,0,0,1,4.624,2.652Zm5.95,12a5.8,5.8,0,0,0,3.332,1.122,4.618,4.618,0,0,0,4.352-3.162c.374-.918,8.262-20.774,8.262-20.774h-3.094L232.9-3.3l-5.508-12.41h-3.23L231.506.068l-1.224,3.094c-.612,1.53-1.19,2.414-2.448,2.414a3.656,3.656,0,0,1-1.87-.816Z" transform="translate(337 636) rotate(-90)" fill="#151515"/>
      <g id="Group_39" data-name="Group 39" transform="translate(-80.115 -47.115)">
        <g id="Group_37" data-name="Group 37">
          <g id="Group_36-3" data-name="Group 36" transform="translate(440.287 -107.785) rotate(45)">
            <line id="Line_26-3" data-name="Line 26" y2="26" transform="translate(312.5 280.5)" fill="none" stroke="#151515" stroke-width="4"/>
            <line id="Line_27-3" data-name="Line 27" y2="26" transform="translate(336.5 282.5) rotate(90)" fill="none" stroke="#151515" stroke-width="4"/>
          </g>
          <line id="Line_28-3" data-name="Line 28" y2="436" transform="translate(461.5 314.5)" fill="none" stroke="#151515" stroke-width="4"/>
        </g>
        <g id="Group_38" data-name="Group 38" transform="translate(1316.963 288.808) rotate(90)">
          <g id="Group_36-4" data-name="Group 36" transform="translate(461.5 310.115) rotate(45)">
            <line id="Line_26-4" data-name="Line 26" y2="26" transform="translate(2 0)" fill="none" stroke="#151515" stroke-width="4"/>
            <line id="Line_27-4" data-name="Line 27" y2="26" transform="translate(26 2) rotate(90)" fill="none" stroke="#151515" stroke-width="4"/>
          </g>
          <line id="Line_28-4" data-name="Line 28" y2="542.963" transform="translate(461.5 314.5)" fill="none" stroke="#151515" stroke-width="4"/>
        </g>
      </g>
      <path id="Path_145" data-name="Path 145" d="M5.644-21.08h10.88V-23.8H2.788V0h13.94V-2.72H5.644v-8.126H15.708v-2.72H5.644Zm13.94,5.372,5.372,7.616L19.244,0h3.2l4.25-6.154L31.008,0h3.366L28.73-8.092,34-15.708H30.838l-3.944,5.78-3.978-5.78ZM44.3-16.116A8.044,8.044,0,0,0,36.21-7.854,8.044,8.044,0,0,0,44.3.408a8.044,8.044,0,0,0,8.092-8.262A8.044,8.044,0,0,0,44.3-16.116Zm0,13.872c-3.162,0-5.236-2.516-5.236-5.61s2.074-5.61,5.236-5.61,5.236,2.516,5.236,5.61S47.464-2.244,44.3-2.244Zm10-10.88h3.06v8.6A4.593,4.593,0,0,0,62.084.408a6.473,6.473,0,0,0,3.264-.952L64.294-2.89a3.728,3.728,0,0,1-1.8.646,2.1,2.1,0,0,1-2.278-2.414v-8.466h4.9v-2.584h-4.9V-20.5H57.358v4.794H54.3Zm22.236-2.992A5.529,5.529,0,0,0,71.91-13.8V-25.7H69.054V0H71.91V-10.812s1.36-2.652,3.91-2.652a3.483,3.483,0,0,1,3.774,3.842V0H82.45V-10.1A5.717,5.717,0,0,0,76.534-16.116Zm17.034,0c-4.726,0-7.854,3.672-7.854,8.262A8.026,8.026,0,0,0,93.908.408a8.756,8.756,0,0,0,6.528-3.094l-1.8-1.87a6.066,6.066,0,0,1-4.726,2.312A5.3,5.3,0,0,1,88.5-6.834h12.682a8.918,8.918,0,0,0,.034-.918C101.218-12.818,97.954-16.116,93.568-16.116Zm-5,6.9a4.871,4.871,0,0,1,5-4.25,4.729,4.729,0,0,1,4.862,4.25Zm22.95-6.9a5.256,5.256,0,0,0-4.386,2.822v-2.414h-2.652V0h2.856V-10.812s1.122-2.652,3.6-2.652a3.984,3.984,0,0,1,1.8.34l1.054-2.584A6.566,6.566,0,0,0,111.52-16.116Zm21.114,0a5.19,5.19,0,0,0-4.692,2.924s-.986-2.924-4.9-2.924a4.8,4.8,0,0,0-4.352,2.72v-2.312h-2.652V0H118.9V-10.948s1.054-2.516,3.366-2.516c2.04,0,3.366,1.258,3.366,3.808V0h2.856V-10.948s1.02-2.516,3.366-2.516c2.04,0,3.366,1.258,3.366,3.808V0h2.856V-10.1C138.074-13.974,135.9-16.116,132.634-16.116ZM142.936,0h2.856V-15.708h-2.856Zm-.51-20.74a1.959,1.959,0,0,0,1.938,1.938A1.959,1.959,0,0,0,146.3-20.74a1.959,1.959,0,0,0-1.938-1.938A1.959,1.959,0,0,0,142.426-20.74ZM162.248-4.488a5.765,5.765,0,0,1-4.59,2.244c-3.162,0-5.236-2.516-5.236-5.61s2.074-5.61,5.236-5.61a5.805,5.805,0,0,1,4.318,1.9l1.938-1.734a8.419,8.419,0,0,0-6.256-2.822,8.064,8.064,0,0,0-8.092,8.262A8.044,8.044,0,0,0,157.658.408a8.471,8.471,0,0,0,6.426-3.026ZM183.43-16.116a5.256,5.256,0,0,0-4.386,2.822v-2.414h-2.652V0h2.856V-10.812s1.122-2.652,3.6-2.652a3.984,3.984,0,0,1,1.8.34l1.054-2.584A6.566,6.566,0,0,0,183.43-16.116Zm10.744,0c-4.726,0-7.854,3.672-7.854,8.262A8.026,8.026,0,0,0,194.514.408a8.756,8.756,0,0,0,6.528-3.094l-1.8-1.87a6.066,6.066,0,0,1-4.726,2.312,5.3,5.3,0,0,1-5.406-4.59H201.79a8.92,8.92,0,0,0,.034-.918C201.824-12.818,198.56-16.116,194.174-16.116Zm-5,6.9a4.871,4.871,0,0,1,5-4.25,4.729,4.729,0,0,1,4.862,4.25Zm22.134-6.9a11.7,11.7,0,0,0-5.882,1.6l1.19,2.38a10.879,10.879,0,0,1,4.692-1.326c1.258,0,3.978.442,3.978,3.706v.85a8.792,8.792,0,0,0-4.726-1.292c-3.536,0-6.222,2.176-6.222,5.236,0,3.4,3.026,5.372,5.848,5.372a6.639,6.639,0,0,0,5.338-2.686V0h2.618V-10.336C218.144-13.26,215.934-16.116,211.31-16.116ZM210.8-2.108c-1.768,0-3.6-.816-3.6-2.856,0-1.632,1.53-2.856,3.978-2.856A7.525,7.525,0,0,1,215.288-6.7v2.21A6.031,6.031,0,0,1,210.8-2.108Zm23.29-2.38a5.765,5.765,0,0,1-4.59,2.244c-3.162,0-5.236-2.516-5.236-5.61s2.074-5.61,5.236-5.61a5.805,5.805,0,0,1,4.318,1.9l1.938-1.734a8.419,8.419,0,0,0-6.256-2.822,8.064,8.064,0,0,0-8.092,8.262A8.044,8.044,0,0,0,229.5.408a8.471,8.471,0,0,0,6.426-3.026Zm3.264-8.636h3.06v8.6A4.593,4.593,0,0,0,245.14.408,6.473,6.473,0,0,0,248.4-.544L247.35-2.89a3.728,3.728,0,0,1-1.8.646,2.1,2.1,0,0,1-2.278-2.414v-8.466h4.9v-2.584h-4.9V-20.5h-2.856v4.794h-3.06ZM252.008,0h2.856V-15.708h-2.856Zm-.51-20.74a1.959,1.959,0,0,0,1.938,1.938,1.959,1.959,0,0,0,1.938-1.938,1.959,1.959,0,0,0-1.938-1.938A1.959,1.959,0,0,0,251.5-20.74Zm15.232,4.624a8.044,8.044,0,0,0-8.092,8.262A8.044,8.044,0,0,0,266.73.408a8.044,8.044,0,0,0,8.092-8.262A8.044,8.044,0,0,0,266.73-16.116Zm0,13.872c-3.162,0-5.236-2.516-5.236-5.61s2.074-5.61,5.236-5.61,5.236,2.516,5.236,5.61S269.892-2.244,266.73-2.244Zm18.836-13.872a5.588,5.588,0,0,0-4.828,2.618v-2.21h-2.652V0h2.856V-10.812s1.36-2.652,3.91-2.652a3.483,3.483,0,0,1,3.774,3.842V0h2.856V-10.1A5.717,5.717,0,0,0,285.566-16.116Z" transform="translate(497 331)" fill="#151515"/>
      <path id="Path_150" data-name="Path 150" d="M2.788,0H5.644V-9.452h3.3c4.964,0,8.126-2.618,8.126-7.174S13.906-23.8,8.942-23.8H2.788ZM5.644-12.172V-21.08H8.772c3.23,0,5.44,1.428,5.44,4.454S12-12.172,8.772-12.172ZM26.35-16.116a11.7,11.7,0,0,0-5.882,1.6l1.19,2.38a10.879,10.879,0,0,1,4.692-1.326c1.258,0,3.978.442,3.978,3.706v.85A8.792,8.792,0,0,0,25.6-10.2c-3.536,0-6.222,2.176-6.222,5.236,0,3.4,3.026,5.372,5.848,5.372a6.639,6.639,0,0,0,5.338-2.686V0h2.618V-10.336C33.184-13.26,30.974-16.116,26.35-16.116ZM25.84-2.108c-1.768,0-3.6-.816-3.6-2.856,0-1.632,1.53-2.856,3.978-2.856A7.525,7.525,0,0,1,30.328-6.7v2.21A6.031,6.031,0,0,1,25.84-2.108ZM36.176-13.124h3.06v8.6A4.593,4.593,0,0,0,43.962.408a6.473,6.473,0,0,0,3.264-.952L46.172-2.89a3.728,3.728,0,0,1-1.8.646,2.1,2.1,0,0,1-2.278-2.414v-8.466h4.9v-2.584h-4.9V-20.5H39.236v4.794h-3.06Zm22.236-2.992A5.529,5.529,0,0,0,53.788-13.8V-25.7H50.932V0h2.856V-10.812s1.36-2.652,3.91-2.652a3.483,3.483,0,0,1,3.774,3.842V0h2.856V-10.1A5.717,5.717,0,0,0,58.412-16.116Zm26.792,0a8.044,8.044,0,0,0-8.092,8.262A8.044,8.044,0,0,0,85.2.408,8.044,8.044,0,0,0,93.3-7.854,8.044,8.044,0,0,0,85.2-16.116Zm0,13.872c-3.162,0-5.236-2.516-5.236-5.61s2.074-5.61,5.236-5.61,5.236,2.516,5.236,5.61S88.366-2.244,85.2-2.244Zm9.86-10.88h3.264V0h2.856V-13.124h4.08v-2.584h-4.08v-5.236a2.254,2.254,0,0,1,2.38-2.516,4.059,4.059,0,0,1,1.836.612l1.054-2.346a6.483,6.483,0,0,0-3.3-.918,4.81,4.81,0,0,0-4.828,5v5.406H95.064Zm29.716-2.992a5.256,5.256,0,0,0-4.386,2.822v-2.414h-2.652V0H120.6V-10.812s1.122-2.652,3.6-2.652a3.984,3.984,0,0,1,1.8.34l1.054-2.584A6.566,6.566,0,0,0,124.78-16.116Zm10.744,0c-4.726,0-7.854,3.672-7.854,8.262A8.026,8.026,0,0,0,135.864.408a8.756,8.756,0,0,0,6.528-3.094l-1.8-1.87a6.066,6.066,0,0,1-4.726,2.312,5.3,5.3,0,0,1-5.406-4.59H143.14a8.92,8.92,0,0,0,.034-.918C143.174-12.818,139.91-16.116,135.524-16.116Zm-5,6.9a4.871,4.871,0,0,1,5-4.25,4.729,4.729,0,0,1,4.862,4.25Zm22.134-6.9a11.7,11.7,0,0,0-5.882,1.6l1.19,2.38a10.879,10.879,0,0,1,4.692-1.326c1.258,0,3.978.442,3.978,3.706v.85a8.792,8.792,0,0,0-4.726-1.292c-3.536,0-6.222,2.176-6.222,5.236,0,3.4,3.026,5.372,5.848,5.372a6.639,6.639,0,0,0,5.338-2.686V0h2.618V-10.336C159.494-13.26,157.284-16.116,152.66-16.116Zm-.51,14.008c-1.768,0-3.6-.816-3.6-2.856,0-1.632,1.53-2.856,3.978-2.856A7.525,7.525,0,0,1,156.638-6.7v2.21A6.031,6.031,0,0,1,152.15-2.108Zm23.29-2.38a5.765,5.765,0,0,1-4.59,2.244c-3.162,0-5.236-2.516-5.236-5.61s2.074-5.61,5.236-5.61a5.8,5.8,0,0,1,4.318,1.9l1.938-1.734a8.419,8.419,0,0,0-6.256-2.822,8.064,8.064,0,0,0-8.092,8.262A8.044,8.044,0,0,0,170.85.408a8.471,8.471,0,0,0,6.426-3.026Zm3.264-8.636h3.06v8.6A4.593,4.593,0,0,0,186.49.408a6.473,6.473,0,0,0,3.264-.952L188.7-2.89a3.728,3.728,0,0,1-1.8.646,2.1,2.1,0,0,1-2.278-2.414v-8.466h4.9v-2.584h-4.9V-20.5h-2.856v4.794H178.7ZM193.358,0h2.856V-15.708h-2.856Zm-.51-20.74a1.959,1.959,0,0,0,1.938,1.938,1.959,1.959,0,0,0,1.938-1.938,1.959,1.959,0,0,0-1.938-1.938A1.959,1.959,0,0,0,192.848-20.74Zm15.232,4.624a8.044,8.044,0,0,0-8.092,8.262A8.044,8.044,0,0,0,208.08.408a8.044,8.044,0,0,0,8.092-8.262A8.044,8.044,0,0,0,208.08-16.116Zm0,13.872c-3.162,0-5.236-2.516-5.236-5.61s2.074-5.61,5.236-5.61,5.236,2.516,5.236,5.61S211.242-2.244,208.08-2.244Zm18.836-13.872a5.588,5.588,0,0,0-4.828,2.618v-2.21h-2.652V0h2.856V-10.812s1.36-2.652,3.91-2.652a3.483,3.483,0,0,1,3.774,3.842V0h2.856V-10.1A5.717,5.717,0,0,0,226.916-16.116Z" transform="translate(1211 759)" fill="#151515"/>
      <path id="Path_149" data-name="Path 149" d="M2.788,0H5.644V-9.452h3.3c4.964,0,8.126-2.618,8.126-7.174S13.906-23.8,8.942-23.8H2.788ZM5.644-12.172V-21.08H8.772c3.23,0,5.44,1.428,5.44,4.454S12-12.172,8.772-12.172Zm21.488-3.944A8.044,8.044,0,0,0,19.04-7.854,8.044,8.044,0,0,0,27.132.408a8.044,8.044,0,0,0,8.092-8.262A8.044,8.044,0,0,0,27.132-16.116Zm0,13.872c-3.162,0-5.236-2.516-5.236-5.61s2.074-5.61,5.236-5.61,5.236,2.516,5.236,5.61S30.294-2.244,27.132-2.244Zm10-10.88h3.06v8.6A4.593,4.593,0,0,0,44.914.408a6.473,6.473,0,0,0,3.264-.952L47.124-2.89a3.728,3.728,0,0,1-1.8.646,2.1,2.1,0,0,1-2.278-2.414v-8.466h4.9v-2.584h-4.9V-20.5H40.188v4.794h-3.06Zm20.91-2.992c-4.726,0-7.854,3.672-7.854,8.262A8.026,8.026,0,0,0,58.378.408a8.756,8.756,0,0,0,6.528-3.094l-1.8-1.87a6.066,6.066,0,0,1-4.726,2.312,5.3,5.3,0,0,1-5.406-4.59H65.654a8.918,8.918,0,0,0,.034-.918C65.688-12.818,62.424-16.116,58.038-16.116Zm-5,6.9a4.871,4.871,0,0,1,5-4.25A4.729,4.729,0,0,1,62.9-9.214Zm23.392-6.9A5.588,5.588,0,0,0,71.6-13.5v-2.21H68.952V0h2.856V-10.812s1.36-2.652,3.91-2.652a3.483,3.483,0,0,1,3.774,3.842V0h2.856V-10.1A5.717,5.717,0,0,0,76.432-16.116Zm8.908,2.992H88.4v8.6A4.593,4.593,0,0,0,93.126.408,6.473,6.473,0,0,0,96.39-.544L95.336-2.89a3.728,3.728,0,0,1-1.8.646,2.1,2.1,0,0,1-2.278-2.414v-8.466h4.9v-2.584h-4.9V-20.5H88.4v4.794H85.34ZM99.994,0h2.856V-15.708H99.994Zm-.51-20.74a1.959,1.959,0,0,0,1.938,1.938,1.959,1.959,0,0,0,1.938-1.938,1.959,1.959,0,0,0-1.938-1.938A1.959,1.959,0,0,0,99.484-20.74Zm14.45,4.624a11.7,11.7,0,0,0-5.882,1.6l1.19,2.38a10.879,10.879,0,0,1,4.692-1.326c1.258,0,3.978.442,3.978,3.706v.85a8.792,8.792,0,0,0-4.726-1.292c-3.536,0-6.222,2.176-6.222,5.236,0,3.4,3.026,5.372,5.848,5.372a6.639,6.639,0,0,0,5.338-2.686V0h2.618V-10.336C120.768-13.26,118.558-16.116,113.934-16.116Zm-.51,14.008c-1.768,0-3.6-.816-3.6-2.856,0-1.632,1.53-2.856,3.978-2.856A7.525,7.525,0,0,1,117.912-6.7v2.21A6.031,6.031,0,0,1,113.424-2.108ZM125.732,0h2.856V-25.7h-2.856Zm24.106-16.116c-4.726,0-7.854,3.672-7.854,8.262A8.026,8.026,0,0,0,150.178.408a8.756,8.756,0,0,0,6.528-3.094l-1.8-1.87a6.066,6.066,0,0,1-4.726,2.312,5.3,5.3,0,0,1-5.406-4.59h12.682a8.92,8.92,0,0,0,.034-.918C157.488-12.818,154.224-16.116,149.838-16.116Zm-5,6.9a4.871,4.871,0,0,1,5-4.25,4.729,4.729,0,0,1,4.862,4.25Zm23.392-6.9A5.588,5.588,0,0,0,163.4-13.5v-2.21h-2.652V0h2.856V-10.812s1.36-2.652,3.91-2.652a3.483,3.483,0,0,1,3.774,3.842V0h2.856V-10.1A5.717,5.717,0,0,0,168.232-16.116Zm17.034,0c-4.726,0-7.854,3.672-7.854,8.262A8.026,8.026,0,0,0,185.606.408a8.756,8.756,0,0,0,6.528-3.094l-1.8-1.87a6.066,6.066,0,0,1-4.726,2.312,5.3,5.3,0,0,1-5.406-4.59h12.682a8.92,8.92,0,0,0,.034-.918C192.916-12.818,189.652-16.116,185.266-16.116Zm-5,6.9a4.871,4.871,0,0,1,5-4.25,4.729,4.729,0,0,1,4.862,4.25Zm22.95-6.9a5.256,5.256,0,0,0-4.386,2.822v-2.414H196.18V0h2.856V-10.812s1.122-2.652,3.6-2.652a3.984,3.984,0,0,1,1.8.34l1.054-2.584A6.566,6.566,0,0,0,203.218-16.116ZM218.79.2c0,3.536-2.074,5.372-5.406,5.372a6.932,6.932,0,0,1-5.134-2.482l-1.734,2.142a9.583,9.583,0,0,0,6.868,2.992c4.556,0,8.262-2.72,8.262-8.16V-15.708h-2.618v2.278a6.115,6.115,0,0,0-5.3-2.686c-4.25,0-7.616,3.638-7.616,8.262S209.474.408,213.724.408a6.32,6.32,0,0,0,5.066-2.38Zm0-5.1a5.584,5.584,0,0,1-4.624,2.652c-3.2,0-5.2-2.516-5.2-5.61s2.006-5.61,5.2-5.61a5.655,5.655,0,0,1,4.624,2.652Zm5.95,12a5.8,5.8,0,0,0,3.332,1.122,4.618,4.618,0,0,0,4.352-3.162c.374-.918,8.262-20.774,8.262-20.774h-3.094L232.9-3.3l-5.508-12.41h-3.23L231.506.068l-1.224,3.094c-.612,1.53-1.19,2.414-2.448,2.414a3.656,3.656,0,0,1-1.87-.816Z" transform="translate(1021 636) rotate(-90)" fill="#151515"/>
      <g id="Group_39-2" data-name="Group 39" transform="translate(603.885 -47.115)">
        <g id="Group_37-2" data-name="Group 37">
          <g id="Group_36-5" data-name="Group 36" transform="translate(440.287 -107.785) rotate(45)">
            <line id="Line_26-5" data-name="Line 26" y2="26" transform="translate(312.5 280.5)" fill="none" stroke="#151515" stroke-width="4"/>
            <line id="Line_27-5" data-name="Line 27" y2="26" transform="translate(336.5 282.5) rotate(90)" fill="none" stroke="#151515" stroke-width="4"/>
          </g>
          <line id="Line_28-5" data-name="Line 28" y2="436" transform="translate(461.5 314.5)" fill="none" stroke="#151515" stroke-width="4"/>
        </g>
        <g id="Group_38-2" data-name="Group 38" transform="translate(1316.963 288.808) rotate(90)">
          <g id="Group_36-6" data-name="Group 36" transform="translate(461.5 310.115) rotate(45)">
            <line id="Line_26-6" data-name="Line 26" y2="26" transform="translate(2 0)" fill="none" stroke="#151515" stroke-width="4"/>
            <line id="Line_27-6" data-name="Line 27" y2="26" transform="translate(26 2) rotate(90)" fill="none" stroke="#151515" stroke-width="4"/>
          </g>
          <line id="Line_28-6" data-name="Line 28" y2="542.963" transform="translate(461.5 314.5)" fill="none" stroke="#151515" stroke-width="4"/>
        </g>
      </g>
      <path id="Path_148" data-name="Path 148" d="M5.644-21.08h10.88V-23.8H2.788V0h13.94V-2.72H5.644v-8.126H15.708v-2.72H5.644Zm22.508,4.964A5.588,5.588,0,0,0,23.324-13.5v-2.21H20.672V0h2.856V-10.812s1.36-2.652,3.91-2.652a3.483,3.483,0,0,1,3.774,3.842V0h2.856V-10.1A5.717,5.717,0,0,0,28.152-16.116Zm16.8,0c-4.25,0-7.616,3.638-7.616,8.262S40.7.408,44.948.408a6.115,6.115,0,0,0,5.3-2.686V0H52.87V-25.7H50.014V-13.77A6.241,6.241,0,0,0,44.948-16.116ZM50.014-4.964a5.579,5.579,0,0,1-4.624,2.72c-3.2,0-5.2-2.516-5.2-5.61s2.074-5.61,5.2-5.61a5.579,5.579,0,0,1,4.624,2.72ZM64.838-16.116a8.044,8.044,0,0,0-8.092,8.262A8.044,8.044,0,0,0,64.838.408,8.044,8.044,0,0,0,72.93-7.854,8.044,8.044,0,0,0,64.838-16.116Zm0,13.872c-3.162,0-5.236-2.516-5.236-5.61s2.074-5.61,5.236-5.61,5.236,2.516,5.236,5.61S68-2.244,64.838-2.244Zm10-10.88h3.06v8.6A4.593,4.593,0,0,0,82.62.408a6.473,6.473,0,0,0,3.264-.952L84.83-2.89a3.728,3.728,0,0,1-1.8.646A2.1,2.1,0,0,1,80.75-4.658v-8.466h4.9v-2.584h-4.9V-20.5H77.894v4.794h-3.06ZM97.07-16.116A5.529,5.529,0,0,0,92.446-13.8V-25.7H89.59V0h2.856V-10.812s1.36-2.652,3.91-2.652a3.483,3.483,0,0,1,3.774,3.842V0h2.856V-10.1A5.717,5.717,0,0,0,97.07-16.116Zm17.034,0c-4.726,0-7.854,3.672-7.854,8.262A8.026,8.026,0,0,0,114.444.408a8.756,8.756,0,0,0,6.528-3.094l-1.8-1.87a6.066,6.066,0,0,1-4.726,2.312,5.3,5.3,0,0,1-5.406-4.59H121.72a8.918,8.918,0,0,0,.034-.918C121.754-12.818,118.49-16.116,114.1-16.116Zm-5,6.9a4.871,4.871,0,0,1,5-4.25,4.729,4.729,0,0,1,4.862,4.25Zm22.95-6.9a5.256,5.256,0,0,0-4.386,2.822v-2.414h-2.652V0h2.856V-10.812s1.122-2.652,3.6-2.652a3.984,3.984,0,0,1,1.8.34l1.054-2.584A6.566,6.566,0,0,0,132.056-16.116Zm21.114,0a5.19,5.19,0,0,0-4.692,2.924s-.986-2.924-4.9-2.924a4.8,4.8,0,0,0-4.352,2.72v-2.312h-2.652V0h2.856V-10.948s1.054-2.516,3.366-2.516c2.04,0,3.366,1.258,3.366,3.808V0h2.856V-10.948s1.02-2.516,3.366-2.516c2.04,0,3.366,1.258,3.366,3.808V0h2.856V-10.1C158.61-13.974,156.434-16.116,153.17-16.116ZM163.472,0h2.856V-15.708h-2.856Zm-.51-20.74A1.959,1.959,0,0,0,164.9-18.8a1.959,1.959,0,0,0,1.938-1.938,1.959,1.959,0,0,0-1.938-1.938A1.959,1.959,0,0,0,162.962-20.74ZM182.784-4.488a5.765,5.765,0,0,1-4.59,2.244c-3.162,0-5.236-2.516-5.236-5.61s2.074-5.61,5.236-5.61a5.805,5.805,0,0,1,4.318,1.9l1.938-1.734a8.419,8.419,0,0,0-6.256-2.822A8.064,8.064,0,0,0,170.1-7.854,8.044,8.044,0,0,0,178.194.408a8.471,8.471,0,0,0,6.426-3.026Zm21.182-11.628a5.256,5.256,0,0,0-4.386,2.822v-2.414h-2.652V0h2.856V-10.812s1.122-2.652,3.6-2.652a3.984,3.984,0,0,1,1.8.34l1.054-2.584A6.566,6.566,0,0,0,203.966-16.116Zm10.744,0c-4.726,0-7.854,3.672-7.854,8.262A8.026,8.026,0,0,0,215.05.408a8.756,8.756,0,0,0,6.528-3.094l-1.8-1.87a6.066,6.066,0,0,1-4.726,2.312,5.3,5.3,0,0,1-5.406-4.59h12.682a8.92,8.92,0,0,0,.034-.918C222.36-12.818,219.1-16.116,214.71-16.116Zm-5,6.9a4.871,4.871,0,0,1,5-4.25,4.729,4.729,0,0,1,4.862,4.25Zm22.134-6.9a11.7,11.7,0,0,0-5.882,1.6l1.19,2.38a10.879,10.879,0,0,1,4.692-1.326c1.258,0,3.978.442,3.978,3.706v.85A8.792,8.792,0,0,0,231.1-10.2c-3.536,0-6.222,2.176-6.222,5.236,0,3.4,3.026,5.372,5.848,5.372a6.639,6.639,0,0,0,5.338-2.686V0h2.618V-10.336C238.68-13.26,236.47-16.116,231.846-16.116Zm-.51,14.008c-1.768,0-3.6-.816-3.6-2.856,0-1.632,1.53-2.856,3.978-2.856A7.525,7.525,0,0,1,235.824-6.7v2.21A6.031,6.031,0,0,1,231.336-2.108Zm23.29-2.38a5.765,5.765,0,0,1-4.59,2.244c-3.162,0-5.236-2.516-5.236-5.61s2.074-5.61,5.236-5.61a5.8,5.8,0,0,1,4.318,1.9l1.938-1.734a8.419,8.419,0,0,0-6.256-2.822,8.064,8.064,0,0,0-8.092,8.262A8.044,8.044,0,0,0,250.036.408a8.471,8.471,0,0,0,6.426-3.026Zm3.264-8.636h3.06v8.6a4.593,4.593,0,0,0,4.726,4.93,6.473,6.473,0,0,0,3.264-.952L267.886-2.89a3.728,3.728,0,0,1-1.8.646,2.1,2.1,0,0,1-2.278-2.414v-8.466h4.9v-2.584h-4.9V-20.5H260.95v4.794h-3.06ZM272.544,0H275.4V-15.708h-2.856Zm-.51-20.74a1.959,1.959,0,0,0,1.938,1.938,1.959,1.959,0,0,0,1.938-1.938,1.959,1.959,0,0,0-1.938-1.938A1.959,1.959,0,0,0,272.034-20.74Zm15.232,4.624a8.044,8.044,0,0,0-8.092,8.262A8.044,8.044,0,0,0,287.266.408a8.044,8.044,0,0,0,8.092-8.262A8.044,8.044,0,0,0,287.266-16.116Zm0,13.872c-3.162,0-5.236-2.516-5.236-5.61s2.074-5.61,5.236-5.61,5.236,2.516,5.236,5.61S290.428-2.244,287.266-2.244ZM306.1-16.116a5.588,5.588,0,0,0-4.828,2.618v-2.21h-2.652V0h2.856V-10.812s1.36-2.652,3.91-2.652a3.483,3.483,0,0,1,3.774,3.842V0h2.856V-10.1A5.717,5.717,0,0,0,306.1-16.116Z" transform="translate(1181 331)" fill="#151515"/>
      <path id="Path_143" data-name="Path 143" d="M.136,0H28.288L14.212-25.7ZM4.692-2.55l9.52-17.408L23.732-2.55ZM46-13.566H34.068V-23.8H31.212V0h2.856V-10.846H46V0h2.856V-23.8H46Z" transform="translate(564 557)" fill="#151515"/>
      <path id="Path_144" data-name="Path 144" d="M.136,0H28.288L14.212-25.7ZM4.692-2.55l9.52-17.408L23.732-2.55ZM46-13.566H34.068V-23.8H31.212V0h2.856V-10.846H46V0h2.856V-23.8H46Z" transform="translate(1354 562)" fill="#151515"/>
      <g id="Group_69" data-name="Group 69" transform="translate(213 -76)">
        <path id="Path_151" data-name="Path 151" d="M5.644-21.08h10.88V-23.8H2.788V0h13.94V-2.72H5.644v-8.126H15.708v-2.72H5.644Z" transform="translate(1059 590)" fill="#151515"/>
        <path id="Path_152" data-name="Path 152" d="M.16,0h1.8L3.42-3.78H9.46L10.92,0h1.76L7.22-14H5.66ZM6.44-11.6l2.4,6.22H4.04Z" transform="translate(1076 596)" fill="#151515"/>
      </g>
      <g id="Group_72" data-name="Group 72">
        <line id="Line_54" data-name="Line 54" x1="154" transform="translate(607.5 612.5)" fill="none" stroke="#f44336" stroke-linecap="round" stroke-width="5" stroke-dasharray="16"/>
        <g id="Group_58" data-name="Group 58" transform="translate(607 492.289)">
          <g id="Group_36-7" data-name="Group 36" transform="translate(0 99.827) rotate(-45)">
            <line id="Line_26-7" data-name="Line 26" y1="26" transform="translate(2 0)" fill="none" stroke="#151515" stroke-width="4"/>
            <line id="Line_27-7" data-name="Line 27" y1="26" transform="translate(0 24) rotate(-90)" fill="none" stroke="#151515" stroke-width="4"/>
          </g>
          <line id="Line_28-7" data-name="Line 28" y1="113.827" transform="translate(18.385 0)" fill="none" stroke="#151515" stroke-width="4"/>
        </g>
        <line id="Line_51" data-name="Line 51" x2="140.5" transform="translate(383 492.289)" fill="none" stroke="#f44336" stroke-linecap="round" stroke-width="5"/>
        <line id="Line_52" data-name="Line 52" x2="156.5" transform="translate(729.5 612.5)" fill="none" stroke="#f44336" stroke-linecap="round" stroke-width="5"/>
        <line id="Line_53" data-name="Line 53" x1="110" y1="0.211" transform="translate(523.5 492.289)" fill="none" stroke="#f44336" stroke-linecap="round" stroke-width="5" stroke-dasharray="16"/>
      </g>
      <path id="Path_153" data-name="Path 153" d="M6493.5,2832.219c36.086-8.262,63.206-149.153,114.653-119.444s59.546,222.509,91.226,239.635" transform="translate(-5970 -2340)" fill="none" stroke="#f44336" stroke-linecap="round" stroke-width="5"/>
      <g id="Group_71" data-name="Group 71" transform="translate(-473 -133)">
        <path id="Path_151-2" data-name="Path 151" d="M5.644-21.08h10.88V-23.8H2.788V0h13.94V-2.72H5.644v-8.126H15.708v-2.72H5.644Z" transform="translate(1059 590)" fill="#151515"/>
        <path id="Path_152-2" data-name="Path 152" d="M.16,0h1.8L3.42-3.78H9.46L10.92,0h1.76L7.22-14H5.66ZM6.44-11.6l2.4,6.22H4.04Z" transform="translate(1076 596)" fill="#151515"/>
      </g>
      <line id="Line_54-2" data-name="Line 54" x1="122" transform="translate(1323.5 492.289)" fill="none" stroke="#2196f3" stroke-linecap="round" stroke-width="5" stroke-dasharray="16"/>
      <g id="Group_58-2" data-name="Group 58" transform="translate(1323 494.289)">
        <g id="Group_36-8" data-name="Group 36" transform="translate(18.385 0) rotate(45)">
          <line id="Line_26-8" data-name="Line 26" y2="26" transform="translate(2)" fill="none" stroke="#151515" stroke-width="4"/>
          <line id="Line_27-8" data-name="Line 27" y2="26" transform="translate(26 2) rotate(90)" fill="none" stroke="#151515" stroke-width="4"/>
        </g>
        <line id="Line_28-8" data-name="Line 28" y2="113.827" transform="translate(18.385 4.385)" fill="none" stroke="#151515" stroke-width="4"/>
      </g>
      <line id="Line_51-2" data-name="Line 51" x2="140.5" transform="translate(1067 612.5)" fill="none" stroke="#2196f3" stroke-linecap="round" stroke-width="5"/>
      <line id="Line_52-2" data-name="Line 52" x2="156.5" transform="translate(1413.5 492.289)" fill="none" stroke="#2196f3" stroke-linecap="round" stroke-width="5"/>
      <line id="Line_53-2" data-name="Line 53" x1="175" transform="translate(1207.5 612.5)" fill="none" stroke="#2196f3" stroke-linecap="round" stroke-width="5" stroke-dasharray="16"/>
      <path id="Path_154" data-name="Path 154" d="M6699.381,2832.219c-36.086-8.262-63.206-149.153-114.653-119.444s-59.546,222.509-91.226,239.635" transform="translate(-5287 -2340)" fill="none" stroke="#2196f3" stroke-linecap="round" stroke-width="5"/>
    </g>
  </g>
</svg>
