<svg xmlns="http://www.w3.org/2000/svg" width="1123" height="556" viewBox="0 0 1123 556">
  <g id="Group_57" data-name="Group 57" transform="translate(-399 -254)">
    <rect id="Rectangle_5" data-name="Rectangle 5" width="1123" height="556" transform="translate(399 254)" fill="#fafafa"/>
    <g id="Group_54" data-name="Group 54">
      <path id="Path_132" data-name="Path 132" d="M4656.207,1898.131a87,87,0,0,0,28.745-31.542c11.505-21.323,17.42-54.1,22.461-71.706,28.336-98.988,53.655-245.532,97.918-245.934,59.734-.543,85.812,177.579,155.56,231.935s154.2,79.214,288.989,89.141" transform="translate(-3980 -1170)" fill="none" stroke="#2196f3" stroke-linecap="round" stroke-width="5"/>
      <line id="Line_29" data-name="Line 29" y2="124" transform="translate(1069.5 604.5)" fill="none" stroke="#f44336" stroke-width="5"/>
      <path id="Path_137" data-name="Path 137" d="M4656.207,1898.131a87,87,0,0,0,28.745-31.542c11.505-21.323,41.71-85.706,41.71-85.706s113.248-204.468,157.511-204.87c55.158,3.187,79.731,130.338,128.149,170s102.629,89.934,237.419,99.86" transform="translate(-3980 -1170)" fill="none" stroke="#f44336" stroke-linecap="round" stroke-width="5"/>
      <path id="Path_141" data-name="Path 141" d="M5.644-23.8H2.788V0H5.644V-11.356L16.15,0h3.876L8.84-12.172,18.9-23.8H15.266L5.644-12.614ZM22.712,0h2.856V-15.708H22.712ZM22.2-20.74A1.959,1.959,0,0,0,24.14-18.8a1.959,1.959,0,0,0,1.938-1.938,1.959,1.959,0,0,0-1.938-1.938A1.959,1.959,0,0,0,22.2-20.74ZM37.91-16.116A5.588,5.588,0,0,0,33.082-13.5v-2.21H30.43V0h2.856V-10.812s1.36-2.652,3.91-2.652A3.483,3.483,0,0,1,40.97-9.622V0h2.856V-10.1A5.717,5.717,0,0,0,37.91-16.116Zm17.034,0c-4.726,0-7.854,3.672-7.854,8.262A8.026,8.026,0,0,0,55.284.408a8.756,8.756,0,0,0,6.528-3.094l-1.8-1.87a6.066,6.066,0,0,1-4.726,2.312,5.3,5.3,0,0,1-5.406-4.59H62.56a8.918,8.918,0,0,0,.034-.918C62.594-12.818,59.33-16.116,54.944-16.116Zm-5,6.9a4.871,4.871,0,0,1,5-4.25,4.729,4.729,0,0,1,4.862,4.25ZM64.5-13.124h3.06v8.6A4.593,4.593,0,0,0,72.284.408a6.473,6.473,0,0,0,3.264-.952L74.494-2.89a3.728,3.728,0,0,1-1.8.646,2.1,2.1,0,0,1-2.278-2.414v-8.466h4.9v-2.584h-4.9V-20.5H67.558v4.794H64.5ZM79.152,0h2.856V-15.708H79.152Zm-.51-20.74A1.959,1.959,0,0,0,80.58-18.8a1.959,1.959,0,0,0,1.938-1.938,1.959,1.959,0,0,0-1.938-1.938A1.959,1.959,0,0,0,78.642-20.74ZM98.464-4.488a5.765,5.765,0,0,1-4.59,2.244c-3.162,0-5.236-2.516-5.236-5.61s2.074-5.61,5.236-5.61a5.8,5.8,0,0,1,4.318,1.9l1.938-1.734a8.419,8.419,0,0,0-6.256-2.822,8.064,8.064,0,0,0-8.092,8.262A8.044,8.044,0,0,0,93.874.408,8.471,8.471,0,0,0,100.3-2.618Zm20.91-11.628c-4.726,0-7.854,3.672-7.854,8.262A8.026,8.026,0,0,0,119.714.408a8.756,8.756,0,0,0,6.528-3.094l-1.8-1.87a6.066,6.066,0,0,1-4.726,2.312,5.3,5.3,0,0,1-5.406-4.59H126.99a8.918,8.918,0,0,0,.034-.918C127.024-12.818,123.76-16.116,119.374-16.116Zm-5,6.9a4.871,4.871,0,0,1,5-4.25,4.729,4.729,0,0,1,4.862,4.25Zm23.392-6.9A5.588,5.588,0,0,0,132.94-13.5v-2.21h-2.652V0h2.856V-10.812s1.36-2.652,3.91-2.652a3.483,3.483,0,0,1,3.774,3.842V0h2.856V-10.1A5.717,5.717,0,0,0,137.768-16.116Zm17.034,0c-4.726,0-7.854,3.672-7.854,8.262A8.026,8.026,0,0,0,155.142.408a8.756,8.756,0,0,0,6.528-3.094l-1.8-1.87a6.066,6.066,0,0,1-4.726,2.312,5.3,5.3,0,0,1-5.406-4.59h12.682a8.92,8.92,0,0,0,.034-.918C162.452-12.818,159.188-16.116,154.8-16.116Zm-5,6.9a4.871,4.871,0,0,1,5-4.25,4.729,4.729,0,0,1,4.862,4.25Zm22.95-6.9a5.256,5.256,0,0,0-4.386,2.822v-2.414h-2.652V0h2.856V-10.812s1.122-2.652,3.6-2.652a3.984,3.984,0,0,1,1.8.34l1.054-2.584A6.566,6.566,0,0,0,172.754-16.116ZM188.326.2c0,3.536-2.074,5.372-5.406,5.372a6.932,6.932,0,0,1-5.134-2.482l-1.734,2.142a9.583,9.583,0,0,0,6.868,2.992c4.556,0,8.262-2.72,8.262-8.16V-15.708h-2.618v2.278a6.115,6.115,0,0,0-5.3-2.686c-4.25,0-7.616,3.638-7.616,8.262S179.01.408,183.26.408a6.32,6.32,0,0,0,5.066-2.38Zm0-5.1A5.584,5.584,0,0,1,183.7-2.244c-3.2,0-5.2-2.516-5.2-5.61s2.006-5.61,5.2-5.61a5.655,5.655,0,0,1,4.624,2.652Zm5.95,12a5.8,5.8,0,0,0,3.332,1.122,4.618,4.618,0,0,0,4.352-3.162c.374-.918,8.262-20.774,8.262-20.774h-3.094L202.436-3.3l-5.508-12.41H193.7L201.042.068l-1.224,3.094c-.612,1.53-1.19,2.414-2.448,2.414a3.656,3.656,0,0,1-1.87-.816Z" transform="translate(884 784)" fill="#151515"/>
      <g id="Group_37" data-name="Group 37" transform="translate(212.885 -22.115)">
        <g id="Group_36" data-name="Group 36" transform="translate(440.287 -107.785) rotate(45)">
          <line id="Line_26" data-name="Line 26" y2="26" transform="translate(312.5 280.5)" fill="none" stroke="#151515" stroke-width="4"/>
          <line id="Line_27" data-name="Line 27" y2="26" transform="translate(336.5 282.5) rotate(90)" fill="none" stroke="#151515" stroke-width="4"/>
        </g>
        <line id="Line_28" data-name="Line 28" y2="436" transform="translate(461.5 314.5)" fill="none" stroke="#151515" stroke-width="4"/>
      </g>
      <g id="Group_38" data-name="Group 38" transform="translate(1631.692 266.692) rotate(90)">
        <g id="Group_36-2" data-name="Group 36" transform="translate(440.287 -107.785) rotate(45)">
          <line id="Line_26-2" data-name="Line 26" y2="26" transform="translate(312.5 280.5)" fill="none" stroke="#151515" stroke-width="4"/>
          <line id="Line_27-2" data-name="Line 27" y2="26" transform="translate(336.5 282.5) rotate(90)" fill="none" stroke="#151515" stroke-width="4"/>
        </g>
        <line id="Line_28-2" data-name="Line 28" y2="644.808" transform="translate(461.5 314.5)" fill="none" stroke="#151515" stroke-width="4"/>
      </g>
      <path id="Path_138" data-name="Path 138" d="M2.788-23.8V0H5.644V-19.04L18.394,0h2.958V-23.8H18.5V-4.76L5.746-23.8ZM32.232.408A5.566,5.566,0,0,0,37.06-2.414V0h2.652V-15.708H36.856v10.88a4.727,4.727,0,0,1-3.91,2.584,3.483,3.483,0,0,1-3.774-3.842v-9.622H26.316v10.1A5.717,5.717,0,0,0,32.232.408ZM60.656-16.116a5.19,5.19,0,0,0-4.692,2.924s-.986-2.924-4.9-2.924a4.8,4.8,0,0,0-4.352,2.72v-2.312H44.064V0H46.92V-10.948s1.054-2.516,3.366-2.516c2.04,0,3.366,1.258,3.366,3.808V0h2.856V-10.948s1.02-2.516,3.366-2.516c2.04,0,3.366,1.258,3.366,3.808V0H66.1V-10.1C66.1-13.974,63.92-16.116,60.656-16.116Zm18.326,0a6.241,6.241,0,0,0-5.066,2.346V-25.7H71.06V0h2.618V-2.278a6.115,6.115,0,0,0,5.3,2.686c4.25,0,7.616-3.638,7.616-8.262S83.232-16.116,78.982-16.116Zm-5.066,5.372a5.579,5.579,0,0,1,4.624-2.72c3.128,0,5.2,2.516,5.2,5.61s-2.006,5.61-5.2,5.61a5.579,5.579,0,0,1-4.624-2.72Zm22.712-5.372c-4.726,0-7.854,3.672-7.854,8.262A8.026,8.026,0,0,0,96.968.408,8.756,8.756,0,0,0,103.5-2.686l-1.8-1.87a6.066,6.066,0,0,1-4.726,2.312,5.3,5.3,0,0,1-5.406-4.59h12.682a8.918,8.918,0,0,0,.034-.918C104.278-12.818,101.014-16.116,96.628-16.116Zm-5,6.9a4.871,4.871,0,0,1,5-4.25,4.729,4.729,0,0,1,4.862,4.25Zm22.95-6.9a5.256,5.256,0,0,0-4.386,2.822v-2.414h-2.652V0H110.4V-10.812s1.122-2.652,3.6-2.652a3.984,3.984,0,0,1,1.8.34l1.054-2.584A6.566,6.566,0,0,0,114.58-16.116Zm21.046,0a8.044,8.044,0,0,0-8.092,8.262A8.044,8.044,0,0,0,135.626.408a8.044,8.044,0,0,0,8.092-8.262A8.044,8.044,0,0,0,135.626-16.116Zm0,13.872c-3.162,0-5.236-2.516-5.236-5.61s2.074-5.61,5.236-5.61,5.236,2.516,5.236,5.61S138.788-2.244,135.626-2.244Zm9.86-10.88h3.264V0h2.856V-13.124h4.08v-2.584h-4.08v-5.236a2.254,2.254,0,0,1,2.38-2.516,4.059,4.059,0,0,1,1.836.612l1.054-2.346a6.483,6.483,0,0,0-3.3-.918,4.81,4.81,0,0,0-4.828,5v5.406h-3.264Zm39.27-2.992a5.19,5.19,0,0,0-4.692,2.924s-.986-2.924-4.9-2.924a4.8,4.8,0,0,0-4.352,2.72v-2.312h-2.652V0h2.856V-10.948s1.054-2.516,3.366-2.516c2.04,0,3.366,1.258,3.366,3.808V0h2.856V-10.948s1.02-2.516,3.366-2.516c2.04,0,3.366,1.258,3.366,3.808V0H190.2V-10.1C190.2-13.974,188.02-16.116,184.756-16.116Zm16.8,0a8.044,8.044,0,0,0-8.092,8.262A8.044,8.044,0,0,0,201.552.408a8.044,8.044,0,0,0,8.092-8.262A8.044,8.044,0,0,0,201.552-16.116Zm0,13.872c-3.162,0-5.236-2.516-5.236-5.61s2.074-5.61,5.236-5.61,5.236,2.516,5.236,5.61S204.714-2.244,201.552-2.244ZM213.52,0h2.856V-25.7H213.52Zm14.586-16.116c-4.726,0-7.854,3.672-7.854,8.262A8.026,8.026,0,0,0,228.446.408a8.756,8.756,0,0,0,6.528-3.094l-1.8-1.87a6.066,6.066,0,0,1-4.726,2.312,5.3,5.3,0,0,1-5.406-4.59h12.682a8.92,8.92,0,0,0,.034-.918C235.756-12.818,232.492-16.116,228.106-16.116Zm-5,6.9a4.871,4.871,0,0,1,5-4.25,4.729,4.729,0,0,1,4.862,4.25Zm27.506,4.726a5.765,5.765,0,0,1-4.59,2.244c-3.162,0-5.236-2.516-5.236-5.61s2.074-5.61,5.236-5.61a5.805,5.805,0,0,1,4.318,1.9l1.938-1.734a8.419,8.419,0,0,0-6.256-2.822,8.064,8.064,0,0,0-8.092,8.262A8.044,8.044,0,0,0,246.024.408a8.471,8.471,0,0,0,6.426-3.026Zm10.54,4.9a5.566,5.566,0,0,0,4.828-2.822V0h2.652V-15.708h-2.856v10.88a4.727,4.727,0,0,1-3.91,2.584,3.483,3.483,0,0,1-3.774-3.842v-9.622h-2.856v10.1A5.717,5.717,0,0,0,261.154.408ZM273.6,0h2.856V-25.7H273.6Zm14.586-16.116c-4.726,0-7.854,3.672-7.854,8.262A8.026,8.026,0,0,0,288.524.408a8.756,8.756,0,0,0,6.528-3.094l-1.8-1.87a6.066,6.066,0,0,1-4.726,2.312,5.3,5.3,0,0,1-5.406-4.59H295.8a8.912,8.912,0,0,0,.034-.918C295.834-12.818,292.57-16.116,288.184-16.116Zm-5,6.9a4.871,4.871,0,0,1,5-4.25,4.729,4.729,0,0,1,4.862,4.25ZM298.078-2.89a8.608,8.608,0,0,0,6.732,3.3c3.026,0,6.222-1.564,6.222-4.59,0-3.2-2.55-4.318-5.542-4.964-2.584-.544-3.808-1.19-3.808-2.38,0-1.02.986-2.006,2.992-2.006a5.768,5.768,0,0,1,3.944,1.734l1.87-1.938a8.164,8.164,0,0,0-5.814-2.38c-3.5,0-5.78,2.244-5.78,4.522,0,2.958,2.38,4.284,5.746,4.964,2.414.476,3.57,1.156,3.57,2.516,0,1.258-1.8,1.938-3.4,1.938a6.059,6.059,0,0,1-4.76-2.55Z" transform="translate(630 696) rotate(-90)" fill="#151515"/>
      <path id="Path_139" data-name="Path 139" d="M5.644-21.08h10.88V-23.8H2.788V0h13.94V-2.72H5.644v-8.126H15.708v-2.72H5.644Z" transform="translate(1059 590)" fill="#151515"/>
      <path id="Path_140" data-name="Path 140" d="M.16,0h1.8L3.42-3.78H9.46L10.92,0h1.76L7.22-14H5.66ZM6.44-11.6l2.4,6.22H4.04Z" transform="translate(1076 596)" fill="#151515"/>
      <line id="Line_30" data-name="Line 30" y1="12" transform="translate(1085.743 627.257) rotate(45)" fill="none" stroke="#f44336" stroke-linecap="round" stroke-width="4"/>
      <line id="Line_31" data-name="Line 31" y1="16" x2="16" transform="translate(1077.5 631.5)" fill="none" stroke="#f44336" stroke-linecap="round" stroke-width="4"/>
      <line id="Line_32" data-name="Line 32" y1="23" x2="23" transform="translate(1077.5 636.5)" fill="none" stroke="#f44336" stroke-linecap="round" stroke-width="4"/>
      <line id="Line_33" data-name="Line 33" y1="31" x2="31" transform="translate(1077.5 641.5)" fill="none" stroke="#f44336" stroke-linecap="round" stroke-width="4"/>
      <line id="Line_34" data-name="Line 34" y1="39" x2="39" transform="translate(1077.5 646.5)" fill="none" stroke="#f44336" stroke-linecap="round" stroke-width="4"/>
      <line id="Line_35" data-name="Line 35" y1="47" x2="47" transform="translate(1078.5 650.5)" fill="none" stroke="#f44336" stroke-linecap="round" stroke-width="4"/>
      <line id="Line_36" data-name="Line 36" y1="56" x2="56" transform="translate(1078.5 654.5)" fill="none" stroke="#f44336" stroke-linecap="round" stroke-width="4"/>
      <line id="Line_37" data-name="Line 37" y1="63" x2="63" transform="translate(1080.5 658.5)" fill="none" stroke="#f44336" stroke-linecap="round" stroke-width="4"/>
      <line id="Line_38" data-name="Line 38" y1="59" x2="59" transform="translate(1094.5 662.5)" fill="none" stroke="#f44336" stroke-linecap="round" stroke-width="4"/>
      <line id="Line_39" data-name="Line 39" y1="56" x2="56" transform="translate(1107.5 665.5)" fill="none" stroke="#f44336" stroke-linecap="round" stroke-width="4"/>
      <line id="Line_40" data-name="Line 40" y1="53" x2="53" transform="translate(1120.5 668.5)" fill="none" stroke="#f44336" stroke-linecap="round" stroke-width="4"/>
      <line id="Line_41" data-name="Line 41" y1="50" x2="50" transform="translate(1133.5 671.5)" fill="none" stroke="#f44336" stroke-linecap="round" stroke-width="4"/>
      <line id="Line_42" data-name="Line 42" y1="48" x2="48" transform="translate(1145.5 673.5)" fill="none" stroke="#f44336" stroke-linecap="round" stroke-width="4"/>
      <line id="Line_43" data-name="Line 43" y1="46" x2="46" transform="translate(1157.5 675.5)" fill="none" stroke="#f44336" stroke-linecap="round" stroke-width="4"/>
      <line id="Line_44" data-name="Line 44" y1="44" x2="44" transform="translate(1169.5 677.5)" fill="none" stroke="#f44336" stroke-linecap="round" stroke-width="4"/>
      <line id="Line_45" data-name="Line 45" y1="3" x2="3" transform="translate(1076.5 622.5)" fill="none" stroke="#f44336" stroke-linecap="round" stroke-width="4"/>
      <line id="Line_46" data-name="Line 46" y1="42" x2="42" transform="translate(1181.5 679.5)" fill="none" stroke="#f44336" stroke-linecap="round" stroke-width="4"/>
      <line id="Line_47" data-name="Line 47" y1="41" x2="41" transform="translate(1193.5 680.5)" fill="none" stroke="#f44336" stroke-linecap="round" stroke-width="4"/>
      <line id="Line_48" data-name="Line 48" y1="39" x2="39" transform="translate(1205.5 682.5)" fill="none" stroke="#f44336" stroke-linecap="round" stroke-width="4"/>
      <line id="Line_49" data-name="Line 49" y1="38" x2="38" transform="translate(1217.5 683.5)" fill="none" stroke="#f44336" stroke-linecap="round" stroke-width="4"/>
      <line id="Line_50" data-name="Line 50" y1="37" x2="37" transform="translate(1229.5 684.5)" fill="none" stroke="#f44336" stroke-linecap="round" stroke-width="4"/>
    </g>
  </g>
</svg>
