<svg xmlns="http://www.w3.org/2000/svg" width="1123" height="556" viewBox="0 0 1123 556">
  <g id="Group_53" data-name="Group 53" transform="translate(-399 -254)">
    <rect id="Rectangle_5" data-name="Rectangle 5" width="1123" height="556" transform="translate(399 254)" fill="#fafafa"/>
    <g id="Group_52" data-name="Group 52" transform="translate(29 -23)">
      <g id="Group_51" data-name="Group 51">
        <path id="Path_19" data-name="Path 19" d="M4625.126,750.731S4725.818,468.3,4772.5,428.633s102.373-36.879,102.373-36.879l339.374-3.561" transform="translate(-3976.556 0.001)" fill="none" stroke="#f44336" stroke-width="5"/>
        <path id="Path_20" data-name="Path 20" d="M4625.126,750.732s199.323-184.1,346.6-274.739,242.52-87.8,242.52-87.8" transform="translate(-3976.556)" fill="none" stroke="#66bb6a" stroke-width="5"/>
        <path id="Path_18" data-name="Path 18" d="M4625.126,750.731S4759.66,396.8,5128.348,388.193c100.377-.01,85.9,0,85.9,0" transform="translate(-3976.556 0)" fill="none" stroke="#2196f3" stroke-width="5"/>
        <g id="Group_39" data-name="Group 39" transform="translate(183.885 0.885)">
          <g id="Group_37" data-name="Group 37">
            <g id="Group_36" data-name="Group 36" transform="translate(440.287 -107.785) rotate(45)">
              <line id="Line_26" data-name="Line 26" y2="26" transform="translate(312.5 280.5)" fill="none" stroke="#151515" stroke-width="4"/>
              <line id="Line_27" data-name="Line 27" y2="26" transform="translate(336.5 282.5) rotate(90)" fill="none" stroke="#151515" stroke-width="4"/>
            </g>
            <line id="Line_28" data-name="Line 28" y2="436" transform="translate(461.5 314.5)" fill="none" stroke="#151515" stroke-width="4"/>
          </g>
          <g id="Group_38" data-name="Group 38" transform="translate(1418.808 288.808) rotate(90)">
            <g id="Group_36-2" data-name="Group 36" transform="translate(440.287 -107.785) rotate(45)">
              <line id="Line_26-2" data-name="Line 26" y2="26" transform="translate(312.5 280.5)" fill="none" stroke="#151515" stroke-width="4"/>
              <line id="Line_27-2" data-name="Line 27" y2="26" transform="translate(336.5 282.5) rotate(90)" fill="none" stroke="#151515" stroke-width="4"/>
            </g>
            <line id="Line_28-2" data-name="Line 28" y2="644.808" transform="translate(461.5 314.5)" fill="none" stroke="#151515" stroke-width="4"/>
          </g>
        </g>
      </g>
      <path id="Path_131" data-name="Path 131" d="M7.31,0h2.856V-21.08H17V-23.8H.476v2.72H7.31ZM20.162,0h2.856V-15.708H20.162Zm-.51-20.74A1.959,1.959,0,0,0,21.59-18.8a1.959,1.959,0,0,0,1.938-1.938,1.959,1.959,0,0,0-1.938-1.938A1.959,1.959,0,0,0,19.652-20.74Zm24.82,4.624a5.19,5.19,0,0,0-4.692,2.924s-.986-2.924-4.9-2.924a4.8,4.8,0,0,0-4.352,2.72v-2.312H27.88V0h2.856V-10.948s1.054-2.516,3.366-2.516c2.04,0,3.366,1.258,3.366,3.808V0h2.856V-10.948s1.02-2.516,3.366-2.516c2.04,0,3.366,1.258,3.366,3.808V0h2.856V-10.1C49.912-13.974,47.736-16.116,44.472-16.116Zm16.558,0c-4.726,0-7.854,3.672-7.854,8.262A8.026,8.026,0,0,0,61.37.408,8.756,8.756,0,0,0,67.9-2.686l-1.8-1.87A6.066,6.066,0,0,1,61.37-2.244a5.3,5.3,0,0,1-5.406-4.59H68.646a8.918,8.918,0,0,0,.034-.918C68.68-12.818,65.416-16.116,61.03-16.116Zm-5,6.9a4.871,4.871,0,0,1,5-4.25,4.729,4.729,0,0,1,4.862,4.25Z" transform="translate(925 809)" fill="#151515"/>
      <path id="Path_130" data-name="Path 130" d="M19.992-23.8H17.034l-6.9,17.442L3.264-23.8H.136L10.064.68Zm7.276,7.684a8.044,8.044,0,0,0-8.092,8.262A8.044,8.044,0,0,0,27.268.408,8.044,8.044,0,0,0,35.36-7.854,8.044,8.044,0,0,0,27.268-16.116Zm0,13.872c-3.162,0-5.236-2.516-5.236-5.61s2.074-5.61,5.236-5.61S32.5-10.948,32.5-7.854,30.43-2.244,27.268-2.244ZM39.236,0h2.856V-25.7H39.236ZM52.972.408A5.566,5.566,0,0,0,57.8-2.414V0h2.652V-15.708H57.6v10.88a4.727,4.727,0,0,1-3.91,2.584,3.483,3.483,0,0,1-3.774-3.842v-9.622H47.056v10.1A5.717,5.717,0,0,0,52.972.408ZM81.4-16.116A5.19,5.19,0,0,0,76.7-13.192s-.986-2.924-4.9-2.924a4.8,4.8,0,0,0-4.352,2.72v-2.312H64.8V0H67.66V-10.948s1.054-2.516,3.366-2.516c2.04,0,3.366,1.258,3.366,3.808V0h2.856V-10.948s1.02-2.516,3.366-2.516c2.04,0,3.366,1.258,3.366,3.808V0h2.856V-10.1C86.836-13.974,84.66-16.116,81.4-16.116Zm16.558,0c-4.726,0-7.854,3.672-7.854,8.262A8.026,8.026,0,0,0,98.294.408a8.756,8.756,0,0,0,6.528-3.094l-1.8-1.87a6.066,6.066,0,0,1-4.726,2.312,5.3,5.3,0,0,1-5.406-4.59H105.57a8.918,8.918,0,0,0,.034-.918C105.6-12.818,102.34-16.116,97.954-16.116Zm-5,6.9a4.871,4.871,0,0,1,5-4.25,4.729,4.729,0,0,1,4.862,4.25Zm32.436-6.9A8.044,8.044,0,0,0,117.3-7.854,8.044,8.044,0,0,0,125.392.408a8.044,8.044,0,0,0,8.092-8.262A8.044,8.044,0,0,0,125.392-16.116Zm0,13.872c-3.162,0-5.236-2.516-5.236-5.61s2.074-5.61,5.236-5.61,5.236,2.516,5.236,5.61S128.554-2.244,125.392-2.244Zm9.86-10.88h3.264V0h2.856V-13.124h4.08v-2.584h-4.08v-5.236a2.254,2.254,0,0,1,2.38-2.516,4.059,4.059,0,0,1,1.836.612l1.054-2.346a6.483,6.483,0,0,0-3.3-.918,4.81,4.81,0,0,0-4.828,5v5.406h-3.264Zm22.678-2.584V7.82h2.856V-1.938A6.319,6.319,0,0,0,165.852.408c4.25,0,7.616-3.638,7.616-8.262s-3.366-8.262-7.616-8.262a6.183,6.183,0,0,0-5.3,2.686v-2.278Zm2.856,4.93a5.581,5.581,0,0,1,4.624-2.686c3.2,0,5.2,2.516,5.2,5.61s-2.006,5.61-5.2,5.61a5.581,5.581,0,0,1-4.624-2.686Zm22.984-5.338a5.256,5.256,0,0,0-4.386,2.822v-2.414h-2.652V0h2.856V-10.812s1.122-2.652,3.6-2.652a3.984,3.984,0,0,1,1.8.34l1.054-2.584A6.566,6.566,0,0,0,183.77-16.116Zm10.982,0a8.044,8.044,0,0,0-8.092,8.262A8.044,8.044,0,0,0,194.752.408a8.044,8.044,0,0,0,8.092-8.262A8.044,8.044,0,0,0,194.752-16.116Zm0,13.872c-3.162,0-5.236-2.516-5.236-5.61s2.074-5.61,5.236-5.61,5.236,2.516,5.236,5.61S197.914-2.244,194.752-2.244Zm17.884-13.872c-4.25,0-7.616,3.638-7.616,8.262S208.386.408,212.636.408a6.115,6.115,0,0,0,5.3-2.686V0h2.618V-25.7H217.7V-13.77A6.241,6.241,0,0,0,212.636-16.116ZM217.7-4.964a5.579,5.579,0,0,1-4.624,2.72c-3.2,0-5.2-2.516-5.2-5.61s2.074-5.61,5.2-5.61a5.579,5.579,0,0,1,4.624,2.72ZM231.438.408a5.566,5.566,0,0,0,4.828-2.822V0h2.652V-15.708h-2.856v10.88a4.727,4.727,0,0,1-3.91,2.584,3.483,3.483,0,0,1-3.774-3.842v-9.622h-2.856v10.1A5.717,5.717,0,0,0,231.438.408Zm23.426-4.9a5.765,5.765,0,0,1-4.59,2.244c-3.162,0-5.236-2.516-5.236-5.61s2.074-5.61,5.236-5.61a5.805,5.805,0,0,1,4.318,1.9l1.938-1.734a8.419,8.419,0,0,0-6.256-2.822,8.064,8.064,0,0,0-8.092,8.262A8.044,8.044,0,0,0,250.274.408,8.471,8.471,0,0,0,256.7-2.618Zm3.264-8.636h3.06v8.6a4.593,4.593,0,0,0,4.726,4.93,6.473,6.473,0,0,0,3.264-.952L268.124-2.89a3.728,3.728,0,0,1-1.8.646,2.1,2.1,0,0,1-2.278-2.414v-8.466h4.9v-2.584h-4.9V-20.5h-2.856v4.794h-3.06Zm23.664-2.584V7.82h2.856V-1.938A6.319,6.319,0,0,0,289.714.408c4.25,0,7.616-3.638,7.616-8.262s-3.366-8.262-7.616-8.262a6.183,6.183,0,0,0-5.3,2.686v-2.278Zm2.856,4.93a5.581,5.581,0,0,1,4.624-2.686c3.2,0,5.2,2.516,5.2,5.61s-2.006,5.61-5.2,5.61a5.581,5.581,0,0,1-4.624-2.686Zm22.984-5.338a5.256,5.256,0,0,0-4.386,2.822v-2.414h-2.652V0h2.856V-10.812s1.122-2.652,3.6-2.652a3.984,3.984,0,0,1,1.8.34l1.054-2.584A6.566,6.566,0,0,0,307.632-16.116Zm10.982,0a8.044,8.044,0,0,0-8.092,8.262A8.044,8.044,0,0,0,318.614.408a8.044,8.044,0,0,0,8.092-8.262A8.044,8.044,0,0,0,318.614-16.116Zm0,13.872c-3.162,0-5.236-2.516-5.236-5.61s2.074-5.61,5.236-5.61,5.236,2.516,5.236,5.61S321.776-2.244,318.614-2.244ZM336.5-16.116c-4.25,0-7.616,3.638-7.616,8.262S332.248.408,336.5.408a6.115,6.115,0,0,0,5.3-2.686V0h2.618V-25.7h-2.856V-13.77A6.241,6.241,0,0,0,336.5-16.116Zm5.066,11.152a5.579,5.579,0,0,1-4.624,2.72c-3.2,0-5.2-2.516-5.2-5.61s2.074-5.61,5.2-5.61a5.579,5.579,0,0,1,4.624,2.72ZM355.3.408a5.566,5.566,0,0,0,4.828-2.822V0h2.652V-15.708h-2.856v10.88a4.727,4.727,0,0,1-3.91,2.584,3.483,3.483,0,0,1-3.774-3.842v-9.622h-2.856v10.1A5.717,5.717,0,0,0,355.3.408Zm23.426-4.9a5.765,5.765,0,0,1-4.59,2.244c-3.162,0-5.236-2.516-5.236-5.61s2.074-5.61,5.236-5.61a5.8,5.8,0,0,1,4.318,1.9l1.938-1.734a8.419,8.419,0,0,0-6.256-2.822,8.064,8.064,0,0,0-8.092,8.262A8.044,8.044,0,0,0,374.136.408a8.471,8.471,0,0,0,6.426-3.026Zm11.39-11.628c-4.726,0-7.854,3.672-7.854,8.262A8.026,8.026,0,0,0,390.456.408a8.756,8.756,0,0,0,6.528-3.094l-1.8-1.87a6.066,6.066,0,0,1-4.726,2.312,5.3,5.3,0,0,1-5.406-4.59h12.682a8.912,8.912,0,0,0,.034-.918C397.766-12.818,394.5-16.116,390.116-16.116Zm-5,6.9a4.871,4.871,0,0,1,5-4.25,4.729,4.729,0,0,1,4.862,4.25Zm22.44-6.9c-4.25,0-7.616,3.638-7.616,8.262S403.308.408,407.558.408a6.115,6.115,0,0,0,5.3-2.686V0h2.618V-25.7h-2.856V-13.77A6.241,6.241,0,0,0,407.558-16.116Zm5.066,11.152A5.579,5.579,0,0,1,408-2.244c-3.2,0-5.2-2.516-5.2-5.61s2.074-5.61,5.2-5.61a5.579,5.579,0,0,1,4.624,2.72Z" transform="translate(597 749) rotate(-90)" fill="#151515"/>
    </g>
  </g>
</svg>
